<svg width="80" height="80" viewBox="0 0 80 80" fill="none" xmlns="http://www.w3.org/2000/svg">
<circle cx="40" cy="40" r="40" fill="#09DEA0" fill-opacity="0.14"/>
<path d="M47.5 13.75C48.8807 13.75 50 14.8693 50 16.25C50 17.6307 48.8807 18.75 47.5 18.75H42.5V21.3887C53.7498 22.6323 62.5 32.1687 62.5 43.75C62.5 56.1764 52.4264 66.25 40 66.25C27.5736 66.25 17.5 56.1764 17.5 43.75C17.5 32.1687 26.2502 22.6323 37.5 21.3887V18.75H32.5C31.1193 18.75 30 17.6307 30 16.25C30 14.8693 31.1193 13.75 32.5 13.75H47.5ZM40 31.25C38.6193 31.25 37.5 32.3693 37.5 33.75V43.75C37.5 45.1307 38.6193 46.25 40 46.25C41.3807 46.25 42.5 45.1307 42.5 43.75V33.75C42.5 32.3693 41.3807 31.25 40 31.25ZM56.7676 20.5176C57.6828 19.6025 59.1314 19.545 60.1133 20.3457L60.3027 20.5176L63.8389 24.0537L64.0107 24.2432C64.8113 25.225 64.7539 26.6737 63.8389 27.5889C62.8626 28.5652 61.279 28.5652 60.3027 27.5889L56.7676 24.0537C55.7913 23.0774 55.7913 21.4939 56.7676 20.5176Z" fill="#09DEA0"/>
</svg>
