<svg width="80" height="80" viewBox="0 0 80 80" fill="none" xmlns="http://www.w3.org/2000/svg">
<circle cx="40" cy="40" r="40" fill="#7694FF" fill-opacity="0.14"/>
<path d="M36.1074 15C36.9221 15 37.5969 15.6316 37.6514 16.4443L38.9746 36.2695C39.2176 39.9105 36.4599 43.059 32.8145 43.3018C32.668 43.3115 32.5208 43.3164 32.374 43.3164H32.124L34.0635 62.7178C34.2926 65.0102 32.4923 66.9998 30.1885 67C27.9152 67 26.1245 65.061 26.3057 62.7949L27.8633 43.3164H27.6152C23.9617 43.3163 21 40.358 21 36.709C21 36.5625 21.0049 36.4157 21.0146 36.2695L22.3379 16.4443C22.3924 15.6315 23.0681 15 23.8828 15C24.7664 15.0002 25.4708 15.7394 25.4287 16.6221L24.6279 33.4072C24.6269 33.4286 24.627 33.4503 24.627 33.4717C24.627 34.2172 25.232 34.8213 25.9785 34.8213C26.772 34.8212 27.4261 34.1989 27.4639 33.4072L28.2627 16.6523C28.3068 15.7275 29.0693 15 29.9951 15C30.9209 15.0001 31.6834 15.7276 31.7275 16.6523L32.5264 33.4072C32.5641 34.1989 33.2181 34.8213 34.0117 34.8213C34.0329 34.8213 34.0541 34.8213 34.0752 34.8203C34.8209 34.7848 35.3968 34.152 35.3613 33.4072L34.5615 16.6221C34.5194 15.7393 35.2236 15 36.1074 15ZM50.835 15.3965C52.1022 14.4387 53.917 15.3247 53.917 16.9131V45.0518L55.6484 62.8574C55.8598 65.0311 54.1517 66.914 51.9678 66.9141C49.7826 66.9141 48.0738 65.0292 48.2871 62.8545L50.0146 45.2432C50.0145 44.5644 49.6654 43.9275 49.082 43.5801C45.9239 41.7 43.8204 38.0367 43.8203 32.4365C43.8203 25.8537 46.7256 18.5028 50.835 15.3965Z" fill="#7694FF"/>
</svg>
