<svg width="80" height="80" viewBox="0 0 80 80" fill="none" xmlns="http://www.w3.org/2000/svg">
<circle cx="40" cy="40" r="40" fill="#FFA600" fill-opacity="0.14"/>
<path fill-rule="evenodd" clip-rule="evenodd" d="M52.1761 17.4121C58.7063 17.4121 64 22.7348 64 29.3007C64 29.9216 63.9516 30.5415 63.8553 31.1548L61.7518 52.5542C60.8443 58.3327 55.8908 62.5886 50.0726 62.5886H29.9244C24.1062 62.5886 19.1526 58.3327 18.2452 52.5542L16.1464 31.1548C15.128 24.6693 19.5313 18.5816 25.9815 17.5576C26.5915 17.4608 27.2081 17.4121 27.8256 17.4121H52.1761ZM37.8127 32.2073C36.763 32.327 36.0084 33.2797 36.1275 34.3353L37.1381 43.2965C37.1563 43.4581 37.1865 43.6182 37.2284 43.7753C37.6941 45.5231 39.4808 46.5603 41.2191 46.092C41.3754 46.0498 41.5283 45.9961 41.6767 45.9312C43.3266 45.2088 44.0817 43.2783 43.3632 41.6193L39.7822 33.3506C39.4467 32.576 38.6477 32.1121 37.8127 32.2073ZM39.9994 24.028C34.1774 24.028 28.8297 26.2233 25.7909 29.8432C25.046 30.7305 25.1575 32.0569 26.04 32.8059C26.9225 33.5548 28.2417 33.4426 28.9866 32.5553C31.1798 29.9427 35.3452 28.2328 39.9994 28.2328C44.6553 28.2328 48.8221 29.9441 51.0145 32.5582C51.759 33.4458 53.0782 33.5586 53.961 32.81C54.8438 32.0615 54.9559 30.7351 54.2115 29.8475C51.1733 26.2251 45.8237 24.028 39.9994 24.028Z" fill="#FFA600"/>
</svg>
