<svg width="88" height="88" viewBox="0 0 88 88" fill="none" xmlns="http://www.w3.org/2000/svg">
<rect width="88" height="88" rx="23.6923" fill="white"/>
<mask id="mask0_2307_1867" style="mask-type:luminance" maskUnits="userSpaceOnUse" x="0" y="0" width="88" height="88">
<rect width="88" height="88" rx="23.6923" fill="white"/>
</mask>
<g mask="url(#mask0_2307_1867)">
<circle cx="44.0004" cy="45.5717" r="40.7805" fill="white" stroke="white" stroke-width="6.43902"/>
<circle cx="35.9512" cy="35.9512" r="35.9512" transform="matrix(-1 0 0 1 80.1289 9.62061)" fill="white"/>
<mask id="mask1_2307_1867" style="mask-type:luminance" maskUnits="userSpaceOnUse" x="8" y="9" width="73" height="73">
<circle cx="35.9512" cy="35.9512" r="35.9512" transform="matrix(-1 0 0 1 80.1289 9.62061)" fill="white"/>
</mask>
<g mask="url(#mask1_2307_1867)">
<rect opacity="0.32" width="2.05436" height="7.70383" rx="1.02718" transform="matrix(-1 0 0 1 45.2031 9.62061)" fill="#00CE7F"/>
<path opacity="0.32" fill-rule="evenodd" clip-rule="evenodd" d="M20.139 20.1507C19.757 19.7687 19.1376 19.7687 18.7555 20.1507V20.1507C18.3735 20.5328 18.3735 21.1522 18.7555 21.5342L22.906 25.6846C23.288 26.0667 23.9074 26.0667 24.2894 25.6846V25.6846C24.6715 25.3026 24.6715 24.6832 24.2894 24.3011L20.139 20.1507Z" fill="#00CE7F"/>
<path opacity="0.32" fill-rule="evenodd" clip-rule="evenodd" d="M9.25374 44.5449C8.68645 44.5449 8.22656 45.0048 8.22656 45.5721V45.5721C8.22656 46.1394 8.68645 46.5993 9.25374 46.5993H14.9032C15.4705 46.5993 15.9304 46.1394 15.9304 45.5721V45.5721C15.9304 45.0048 15.4705 44.5449 14.9032 44.5449H9.25374Z" fill="#00CE7F"/>
<path opacity="0.32" fill-rule="evenodd" clip-rule="evenodd" d="M18.7562 69.6095C18.3742 69.9916 18.3742 70.611 18.7562 70.993V70.993C19.1382 71.375 19.7576 71.375 20.1397 70.993L24.2901 66.8426C24.6721 66.4605 24.6721 65.8411 24.2901 65.4591V65.4591C23.9081 65.0771 23.2887 65.0771 22.9066 65.4591L18.7562 69.6095Z" fill="#00CE7F"/>
<path opacity="0.32" fill-rule="evenodd" clip-rule="evenodd" d="M69.5973 21.534C69.9794 21.152 69.9794 20.5326 69.5973 20.1505V20.1505C69.2153 19.7685 68.5959 19.7685 68.2139 20.1505L64.0634 24.301C63.6814 24.683 63.6814 25.3024 64.0634 25.6844V25.6844C64.4455 26.0665 65.0649 26.0665 65.4469 25.6844L69.5973 21.534Z" fill="#00CE7F"/>
<path opacity="0.4" fill-rule="evenodd" clip-rule="evenodd" d="M67.445 72.277C67.827 72.659 68.4464 72.659 68.8285 72.277V72.277C69.2105 71.895 69.2105 71.2756 68.8285 70.8935L64.678 66.7431C64.296 66.3611 63.6766 66.3611 63.2946 66.7431V66.7431C62.9125 67.1251 62.9125 67.7446 63.2946 68.1266L67.445 72.277Z" fill="#FFBF46"/>
<path opacity="0.4" fill-rule="evenodd" clip-rule="evenodd" d="M79.1017 46.5991C79.669 46.5991 80.1289 46.1392 80.1289 45.5719V45.5719C80.1289 45.0046 79.669 44.5448 79.1017 44.5448H73.4523C72.885 44.5448 72.4251 45.0046 72.4251 45.5719V45.5719C72.4251 46.1392 72.885 46.5991 73.4523 46.5991H79.1017Z" fill="#FFBF46"/>
</g>
<path d="M67.6644 71.3578C74.664 64.9789 79.0566 55.7884 79.0566 45.5719C79.0566 26.3093 63.4412 10.6938 44.1786 10.6938C24.916 10.6938 9.30055 26.3093 9.30055 45.5719C9.30055 55.1559 13.1661 63.837 19.4232 70.1412" stroke="#FFBF46" stroke-width="6.40701" stroke-linecap="round"/>
<path d="M68.5469 20.6175C62.2599 14.4776 53.6617 10.6938 44.1797 10.6938C24.9171 10.6938 9.30169 26.3093 9.30169 45.5719C9.30169 55.1559 13.1673 63.837 19.4244 70.1412" stroke="#00CE7F" stroke-width="6.40701" stroke-linecap="round"/>
<path fill-rule="evenodd" clip-rule="evenodd" d="M34.8804 30.5474C35.9299 30.5474 36.7944 31.3717 36.8443 32.4201L37.7501 51.476C37.7929 52.3762 38.534 53.084 39.4336 53.084C39.4579 53.084 39.4822 53.0834 39.5065 53.0822C40.3518 53.0419 41.0044 52.3228 40.9642 51.476L40.0566 32.3854C40.0091 31.3847 40.8075 30.5474 41.8093 30.5474C42.7332 30.5474 43.4988 31.2637 43.5601 32.1855L45.0606 54.7306C45.3361 58.8703 42.2093 62.4499 38.0767 62.7258C37.9106 62.7369 37.7442 62.7425 37.5778 62.7425H37.2952L39.632 95.451C39.8193 98.0729 37.7427 100.303 35.1141 100.303C32.5109 100.303 30.4435 98.1142 30.592 95.5153L32.4651 62.7425H32.183C28.0412 62.7425 24.6836 59.3792 24.6836 55.2303C24.6836 55.0636 24.6891 54.8969 24.7002 54.7306L26.2006 32.1855C26.262 31.2637 27.0276 30.5474 27.9515 30.5474C28.9532 30.5474 29.7517 31.3847 29.7042 32.3854L28.7966 51.476C28.7955 51.5003 28.7949 51.5247 28.7949 51.549C28.7949 52.3967 29.4809 53.084 30.3272 53.084C31.2268 53.084 31.9679 52.3762 32.0106 51.476L32.9165 32.4201C32.9664 31.3717 33.8308 30.5474 34.8804 30.5474ZM56.6445 30.9977C58.0811 29.9086 60.1386 30.9161 60.1386 32.7221V64.7154L62.2353 95.5951C62.4046 98.0891 60.4272 100.205 57.9274 100.205C55.4269 100.205 53.4492 98.088 53.6196 95.5933L55.7143 64.9335C55.7143 64.1615 55.3185 63.4374 54.6571 63.0424C51.0769 60.9048 48.6923 56.7393 48.6923 50.3719C48.6923 42.8872 51.9859 34.5293 56.6445 30.9977Z" fill="#00CE7F"/>
</g>
</svg>
