<svg width="80" height="80" viewBox="0 0 80 80" fill="none" xmlns="http://www.w3.org/2000/svg">
<rect width="80" height="80" rx="40" fill="black" fill-opacity="0.04"/>
<path d="M39.5 18C51.9228 18 62 26.9501 62 37.9992C61.9991 41.3143 60.6818 44.4933 58.3377 46.8374C55.9937 49.1814 52.8147 50.4987 49.4996 50.4996H45.0752C44.5827 50.4992 44.095 50.5959 43.6398 50.7841C43.1847 50.9724 42.7712 51.2486 42.423 51.5968C42.0747 51.9451 41.7986 52.3586 41.6103 52.8137C41.422 53.2688 41.3253 53.7566 41.3258 54.2491C41.3258 55.1974 41.7004 56.0715 42.2741 56.7228C42.8748 57.3978 43.2528 58.2752 43.2528 59.2472C43.2457 60.2403 42.8481 61.1908 42.1458 61.893C41.4436 62.5953 40.4931 62.9929 39.5 63C33.5326 63 27.8097 60.6295 23.5901 56.4099C19.3705 52.1903 17 46.4674 17 40.5C17 34.5326 19.3705 28.8097 23.5901 24.5901C27.8097 20.3705 33.5326 18 39.5 18ZM29.3755 40.5C30.2706 40.5 31.129 40.1444 31.7619 39.5115C32.3948 38.8786 32.7503 38.0202 32.7503 37.1252C32.7503 36.2301 32.3948 35.3717 31.7619 34.7388C31.129 34.1059 30.2706 33.7503 29.3755 33.7503C28.4804 33.7503 27.622 34.1059 26.9891 34.7388C26.3562 35.3717 26.0007 36.2301 26.0007 37.1252C26.0007 38.0202 26.3562 38.8786 26.9891 39.5115C27.622 40.1444 28.4804 40.5 29.3755 40.5ZM49.6245 40.5C50.5196 40.5 51.378 40.1444 52.0109 39.5115C52.6438 38.8786 52.9993 38.0202 52.9993 37.1252C52.9993 36.2301 52.6438 35.3717 52.0109 34.7388C51.378 34.1059 50.5196 33.7503 49.6245 33.7503C48.7294 33.7503 47.871 34.1059 47.2381 34.7388C46.6052 35.3717 46.2497 36.2301 46.2497 37.1252C46.2497 38.0202 46.6052 38.8786 47.2381 39.5115C47.871 40.1444 48.7294 40.5 49.6245 40.5ZM39.5 33.7503C40.3951 33.7503 41.2535 33.3948 41.8864 32.7619C42.5193 32.129 42.8748 31.2706 42.8748 30.3755C42.8748 29.4804 42.5193 28.622 41.8864 27.9891C41.2535 27.3562 40.3951 27.0007 39.5 27.0007C38.6049 27.0007 37.7465 27.3562 37.1136 27.9891C36.4807 28.622 36.1252 29.4804 36.1252 30.3755C36.1252 31.2706 36.4807 32.129 37.1136 32.7619C37.7465 33.3948 38.6049 33.7503 39.5 33.7503Z" fill="#3875F7"/>
</svg>
