<svg width="80" height="80" viewBox="0 0 80 80" fill="none" xmlns="http://www.w3.org/2000/svg">
<rect width="80" height="80" rx="40" fill="black" fill-opacity="0.04"/>
<path d="M58.7596 57.5003H57.5003V42.5075C57.5003 41.0948 56.3699 40 54.9772 40H50.0251C48.6072 40 47.4998 41.1225 47.4998 42.5075V57.5003H45.0002V22.5174C45.0002 21.1225 43.8699 20 42.4776 20H37.5224C36.1075 20 34.9998 21.1275 34.9998 22.5174V57.5003H32.5001V32.4901C32.5001 31.1126 31.3698 29.9999 29.9775 29.9999H25.0223C23.6075 29.9999 22.4997 31.1151 22.4997 32.4901V57.5003H21.2403C20.5647 57.5003 20 58.0599 20 58.7502C20 59.4201 20.5552 60 21.2403 60H58.758C59.4352 60 60 59.4401 60 58.7502C59.9999 58.0802 59.4447 57.5003 58.7596 57.5003Z" fill="#3875F7"/>
</svg>
