<svg width="80" height="80" viewBox="0 0 80 80" fill="none" xmlns="http://www.w3.org/2000/svg">
<rect width="80" height="80" rx="40" fill="black" fill-opacity="0.04"/>
<path d="M37.8317 25.8226V35.7291C37.831 36.3857 37.5698 37.0152 37.1055 37.4795C36.6412 37.9438 36.0117 38.205 35.3551 38.2057H25.4486C22.4441 38.2057 20 35.76 20 32.7571V25.8226C20 22.8197 22.4457 20.374 25.4486 20.374H32.3831C35.3876 20.374 37.8317 22.8197 37.8317 25.8226ZM35.3551 42.1683H25.4486C22.4441 42.1683 20 44.614 20 47.6169V54.5514C20 57.5543 22.4441 60 25.4486 60H32.3831C35.386 60 37.8317 57.5543 37.8317 54.5514V44.6449C37.831 43.9883 37.5698 43.3588 37.1055 42.8945C36.6412 42.4302 36.0117 42.169 35.3551 42.1683ZM54.1774 42.1683H44.2709C43.6143 42.169 42.9848 42.4302 42.5205 42.8945C42.0562 43.3588 41.795 43.9883 41.7943 44.6449V54.5514C41.7943 57.5543 44.24 60 47.2429 60H54.1774C57.1803 60 59.626 57.5543 59.626 54.5514V47.6169C59.626 44.614 57.1819 42.1683 54.1774 42.1683ZM48.9589 37.8556C49.4237 38.3193 50.0535 38.5797 50.7101 38.5797C51.3667 38.5797 51.9966 38.3193 52.4614 37.8556L59.2758 31.0411C59.7396 30.5763 60 29.9465 60 29.2899C60 28.6333 59.7396 28.0034 59.2758 27.5386L52.4614 20.7242C51.9966 20.2604 51.3667 20 50.7101 20C50.0535 20 49.4237 20.2604 48.9589 20.7242L42.1444 27.5386C41.6807 28.0034 41.4203 28.6333 41.4203 29.2899C41.4203 29.9465 41.6807 30.5763 42.1444 31.0411L48.9589 37.8556Z" fill="#3875F7"/>
</svg>
