<svg width="80" height="80" viewBox="0 0 80 80" fill="none" xmlns="http://www.w3.org/2000/svg">
<rect width="80" height="80" rx="40" fill="black" fill-opacity="0.04"/>
<path d="M34.8891 59.9893C34.3531 59.9648 33.8448 59.7453 33.4615 59.3728L30.6062 56.2403C30.4863 56.1046 30.3403 55.9941 30.1766 55.9154C30.0129 55.8366 29.835 55.7913 29.6534 55.782C29.4717 55.7726 29.29 55.7996 29.1191 55.8611C28.9481 55.9226 28.7913 56.0176 28.6579 56.1403L28.5572 56.2403L25.6851 59.3728C25.2603 59.7221 24.7395 59.9369 24.1903 59.9893C23.9683 60.0233 23.7414 59.9759 23.552 59.856C23.2001 59.732 22.8929 59.5078 22.6688 59.2114C22.4447 58.915 22.3138 58.5596 22.2924 58.1897C22.2924 54.5538 22.089 30.4195 22.0215 22.5071C22.0096 21.118 23.1325 20 24.5217 20L55.3004 20C56.6749 20 57.7915 21.096 57.8002 22.4705C57.8497 30.3318 58 54.4659 58 58.1231C57.9853 58.4948 57.8569 58.8533 57.6319 59.1509C57.4069 59.4486 57.0959 59.6712 56.7403 59.7893C56.5093 59.8752 56.2648 59.9203 56.0181 59.9226C55.77 59.921 55.5254 59.8648 55.3018 59.7583C55.0782 59.6517 54.8811 59.4972 54.7248 59.3061L51.9368 56.2069C51.6868 55.9381 51.3398 55.7785 50.9715 55.7629C50.6033 55.7472 50.2438 55.877 49.9717 56.1236L46.898 59.3561C46.7154 59.5385 46.4982 59.6832 46.259 59.782C46.0197 59.8807 45.7631 59.9316 45.504 59.9316C45.2449 59.9316 44.9883 59.8807 44.749 59.782C44.5098 59.6832 44.2926 59.5385 44.11 59.3561L41.2715 56.2403C41.1503 56.1065 41.0038 55.9978 40.8402 55.9204C40.6766 55.843 40.4993 55.7983 40.3183 55.789C40.1373 55.7798 39.9562 55.806 39.7854 55.8663C39.6147 55.9265 39.4576 56.0197 39.3232 56.1403L39.2224 56.2403L36.2832 59.3728C35.9129 59.7445 35.4153 59.9645 34.8891 59.9893ZM31.8659 39.2448C31.3955 39.2889 30.9586 39.5054 30.6406 39.8521C30.3226 40.1987 30.1463 40.6506 30.1463 41.1193C30.1463 41.5881 30.3226 42.0399 30.6406 42.3866C30.9586 42.7333 31.3955 42.9498 31.8659 42.9938H48.4768C48.7399 43.0185 49.0053 42.9883 49.256 42.9053C49.5067 42.8223 49.7372 42.6883 49.9326 42.5118C50.1281 42.3354 50.2842 42.1204 50.3911 41.8806C50.4979 41.6408 50.5531 41.3815 50.5531 41.1193C50.5531 40.8571 50.4979 40.5979 50.3911 40.3581C50.2842 40.1183 50.1281 39.9033 49.9326 39.7268C49.7372 39.5504 49.5067 39.4163 49.256 39.3333C49.0053 39.2503 48.7399 39.2202 48.4768 39.2448H31.8659ZM31.8659 30.2306C31.3708 30.2513 30.9019 30.4568 30.5531 30.806C30.2043 31.1551 30.0013 31.6221 29.9848 32.1134C30.0015 32.6031 30.2051 33.0681 30.5543 33.4146C30.9035 33.761 31.3723 33.963 31.8659 33.9796H44.9665C45.4689 33.9756 45.9503 33.7792 46.3102 33.4315C46.6701 33.0837 46.8807 32.6115 46.898 32.1134C46.8774 31.6206 46.6708 31.1535 46.3193 30.8048C45.9677 30.456 45.4969 30.2511 45.0001 30.2306H31.8659Z" fill="#3875F7"/>
</svg>
