<svg width="80" height="80" viewBox="0 0 80 80" fill="none" xmlns="http://www.w3.org/2000/svg">
<circle cx="40" cy="40" r="40" fill="#0085FF" fill-opacity="0.14"/>
<path d="M40 20.792C47.8867 20.792 54.4515 26.7076 55.9248 34.5869C61.558 34.998 65.9999 39.8848 66 45.9141C66 52.2174 61.1468 57.3338 55.167 57.334H27C19.8284 57.334 14.0002 51.1903 14 43.6309C14 36.5738 19.0701 30.7494 25.5918 30.0186C28.3002 24.5374 33.7384 20.792 40 20.792Z" fill="#0085FF"/>
<path d="M46.357 34.3184C48.1809 36.0043 49.3223 38.4129 49.3223 41.0871C49.3223 46.1854 45.1738 50.3184 40.0565 50.3184C39.1047 50.3184 38.1865 50.1754 37.3223 49.9099L40.0565 47.1859" stroke="white" stroke-width="2.5" stroke-linecap="round" stroke-linejoin="round"/>
<path d="M33.3956 47.1143C31.7239 45.4284 30.6777 43.0197 30.6777 40.3455C30.6777 35.2472 34.4801 31.1143 39.1707 31.1143C40.0433 31.1143 40.8853 31.2573 41.6777 31.5231L39.1707 34.2481" stroke="white" stroke-width="2.5" stroke-linecap="round" stroke-linejoin="round"/>
</svg>
