<svg width="24" height="30" viewBox="0 0 24 30" fill="none" xmlns="http://www.w3.org/2000/svg">
<path d="M20.0454 15.4549C20.06 14.341 20.3603 13.2489 20.9185 12.28C21.4766 11.3112 22.2745 10.4972 23.2378 9.91375C22.6258 9.05274 21.8185 8.34417 20.8799 7.8443C19.9414 7.34444 18.8975 7.06706 17.8311 7.03419C15.5563 6.79896 13.3509 8.3752 12.1917 8.3752C11.0101 8.3752 9.22533 7.05754 7.30342 7.0965C6.06028 7.13607 4.84874 7.4922 3.78685 8.1302C2.72496 8.7682 1.84893 9.66631 1.24411 10.737C-1.37581 15.2057 0.578418 21.7732 3.08808 25.3853C4.34372 27.1541 5.81121 29.1298 7.73138 29.0598C9.61038 28.983 10.3122 27.8794 12.5803 27.8794C14.8273 27.8794 15.4857 29.0598 17.4449 29.0152C19.4611 28.983 20.7315 27.2386 21.9431 25.4531C22.8452 24.1928 23.5394 22.7999 24 21.3259C22.8286 20.8378 21.829 20.0209 21.1257 18.9768C20.4225 17.9328 20.0468 16.7079 20.0454 15.4549Z" fill="black"/>
<path d="M16.3472 4.65846C17.4466 3.35832 17.9882 1.6872 17.857 0C16.1775 0.173788 14.626 0.964597 13.5118 2.21486C12.9671 2.82564 12.5498 3.53621 12.284 4.30595C12.0181 5.07569 11.9089 5.8895 11.9625 6.70085C12.8026 6.70938 13.6337 6.52999 14.3932 6.17622C15.1527 5.82244 15.8208 5.30349 16.3472 4.65846Z" fill="black"/>
</svg>
