<svg width="180" height="54" viewBox="0 0 180 54" fill="none" xmlns="http://www.w3.org/2000/svg">
<path d="M166.331 0.6001H13.6742C13.1829 0.6001 12.6974 0.6001 12.2074 0.60274C11.7972 0.60538 11.3903 0.613049 10.9761 0.619504C10.0764 0.629934 9.17883 0.707913 8.29115 0.852761C7.40472 1.00076 6.54606 1.27979 5.74421 1.6804C4.94334 2.0844 4.21156 2.60936 3.57542 3.23623C2.93594 3.86134 2.40289 4.58388 1.99675 5.37607C1.5895 6.16668 1.30711 7.0139 1.15933 7.88845C1.01015 8.7619 0.929875 9.64543 0.919225 10.5311C0.906791 10.9358 0.905478 11.3419 0.898926 11.7466V42.2574C0.905478 42.6673 0.906791 43.0644 0.919225 43.4744C0.929878 44.36 1.01015 45.2435 1.15933 46.1169C1.3067 46.9919 1.58911 47.8396 1.99675 48.6305C2.4027 49.4202 2.93583 50.1398 3.57542 50.7614C4.20915 51.3911 4.9414 51.9164 5.74421 52.3173C6.54606 52.719 7.40463 52.9997 8.29115 53.15C9.17898 53.2936 10.0765 53.3717 10.9761 53.3833C11.3903 53.3923 11.7972 53.3975 12.2074 53.3975C12.6974 53.4001 13.1829 53.4001 13.6742 53.4001H166.331C166.812 53.4001 167.302 53.4001 167.783 53.3975C168.192 53.3975 168.61 53.3923 169.019 53.3833C169.916 53.3723 170.812 53.2943 171.698 53.15C172.588 52.9986 173.449 52.718 174.255 52.3173C175.057 51.9162 175.789 51.3909 176.422 50.7614C177.06 50.1373 177.594 49.4183 178.005 48.6305C178.41 47.8391 178.689 46.9914 178.835 46.1169C178.984 45.2433 179.067 44.3601 179.083 43.4744C179.088 43.0644 179.088 42.6673 179.088 42.2574C179.099 41.7779 179.099 41.301 179.099 40.8136V13.1878C179.099 12.7044 179.099 12.2249 179.088 11.7466C179.088 11.3419 179.088 10.9358 179.083 10.531C179.067 9.6453 178.984 8.76197 178.835 7.8884C178.689 7.01435 178.409 6.1672 178.005 5.37602C177.178 3.78816 175.866 2.49565 174.255 1.68028C173.449 1.28065 172.588 1.0017 171.698 0.852642C170.812 0.707156 169.917 0.62915 169.019 0.619319C168.61 0.612878 168.192 0.605142 167.783 0.602568C167.302 0.599928 166.812 0.6001 166.331 0.6001Z" fill="#A6A6A6"/>
<path d="M12.214 52.245C11.8058 52.245 11.4074 52.2398 11.0024 52.2308C10.1633 52.2201 9.32624 52.1481 8.49797 52.0155C7.72565 51.8845 6.97749 51.6407 6.27815 51.2923C5.58522 50.9468 4.95321 50.4937 4.40634 49.9504C3.85155 49.4135 3.38966 48.7908 3.03898 48.107C2.68444 47.4188 2.43907 46.681 2.31143 45.9195C2.17359 45.1013 2.09901 44.2739 2.08834 43.4445C2.07985 43.1662 2.06873 42.2393 2.06873 42.2393V11.7466C2.06873 11.7466 2.08057 10.834 2.08841 10.5658C2.09863 9.73778 2.17277 8.91168 2.3102 8.09471C2.43807 7.33112 2.68363 6.59126 3.03837 5.90074C3.38776 5.2174 3.84708 4.59425 4.39853 4.05546C4.94936 3.51154 5.58338 3.05612 6.27749 2.7058C6.97522 2.35849 7.72198 2.11645 8.49273 1.9878C9.32372 1.85391 10.1637 1.78152 11.0057 1.77124L12.2147 1.75513H167.777L169 1.77189C169.835 1.78166 170.667 1.8534 171.49 1.98651C172.269 2.11677 173.023 2.3605 173.729 2.70967C175.12 3.41566 176.251 4.53261 176.965 5.90397C177.314 6.58971 177.556 7.32354 177.682 8.08053C177.821 8.90421 177.899 9.73679 177.915 10.5716C177.919 10.9455 177.919 11.347 177.919 11.7466C177.929 12.2416 177.929 12.7128 177.929 13.1878V40.8135C177.929 41.2931 177.929 41.761 177.919 42.2328C177.919 42.6621 177.919 43.0553 177.913 43.46C177.898 44.2799 177.821 45.0977 177.684 45.9066C177.559 46.6736 177.315 47.4171 176.961 48.111C176.608 48.7874 176.149 49.4047 175.6 49.9401C175.053 50.4863 174.42 50.942 173.725 51.2898C173.021 51.6409 172.268 51.8856 171.49 52.0155C170.662 52.1488 169.825 52.2208 168.986 52.2308C168.593 52.2398 168.182 52.245 167.783 52.245L166.331 52.2476L12.214 52.245Z" fill="#041E54"/>
<path d="M42.611 26.5018C42.6286 25.1526 42.9924 23.8298 43.6684 22.6563C44.3445 21.4828 45.3109 20.4969 46.4776 19.7902C45.7364 18.7473 44.7586 17.8891 43.6218 17.2837C42.485 16.6782 41.2206 16.3422 39.9289 16.3024C37.1736 16.0175 34.5025 17.9267 33.0984 17.9267C31.6672 17.9267 29.5055 16.3307 27.1776 16.3779C25.6719 16.4258 24.2044 16.8572 22.9183 17.6299C21.6321 18.4027 20.571 19.4905 19.8384 20.7874C16.6651 26.1999 19.0321 34.1546 22.0719 38.5297C23.5928 40.6721 25.3702 43.0652 27.696 42.9803C29.9718 42.8873 30.8218 41.5506 33.569 41.5506C36.2907 41.5506 37.0882 42.9803 39.4612 42.9263C41.9033 42.8873 43.4419 40.7745 44.9094 38.6118C46.0022 37.0853 46.843 35.3982 47.4009 33.6129C45.9821 33.0217 44.7713 32.0322 43.9195 30.7676C43.0677 29.5031 42.6126 28.0195 42.611 26.5018Z" fill="white"/>
<path d="M38.1293 13.4251C39.4608 11.8504 40.1168 9.82629 39.958 7.78271C37.9236 7.99321 36.0445 8.95106 34.695 10.4654C34.0351 11.2052 33.5298 12.0659 33.2078 12.9982C32.8858 13.9305 32.7534 14.9162 32.8184 15.8989C33.8359 15.9093 34.8425 15.692 35.7625 15.2635C36.6824 14.835 37.4916 14.2064 38.1293 13.4251Z" fill="white"/>
<path d="M68.7818 36.4241H62.4396L60.9166 40.8546H58.2303L64.2375 24.4629H67.0284L73.0356 40.8546H70.3035L68.7818 36.4241ZM63.0965 34.3796H68.1237L65.6455 27.1893H65.5761L63.0965 34.3796Z" fill="white"/>
<path d="M86.01 34.8799C86.01 38.5937 83.9923 40.9798 80.9475 40.9798C80.1762 41.0195 79.4091 40.8445 78.7341 40.4747C78.0591 40.1049 77.5034 39.5553 77.1307 38.8889H77.0731V44.8082H74.5831V28.9039H76.9933V30.8916H77.0391C77.429 30.2283 77.994 29.6816 78.6742 29.3096C79.3543 28.9375 80.1242 28.7541 80.9017 28.7788C83.9805 28.7788 86.01 31.1765 86.01 34.8799ZM83.4506 34.8799C83.4506 32.4604 82.1814 30.8697 80.2449 30.8697C78.3423 30.8697 77.0627 32.4939 77.0627 34.8799C77.0627 37.2879 78.3423 38.9005 80.2449 38.9005C82.1814 38.9005 83.4506 37.3214 83.4506 34.8799Z" fill="white"/>
<path d="M99.3604 34.8799C99.3604 38.5937 97.3427 40.9797 94.2979 40.9797C93.5266 41.0195 92.7595 40.8445 92.0845 40.4747C91.4095 40.1049 90.8538 39.5553 90.4811 38.8889H90.4235V44.8082H87.9335V28.9038H90.3437V30.8916H90.3895C90.7793 30.2283 91.3444 29.6816 92.0245 29.3096C92.7047 28.9375 93.4745 28.7541 94.2521 28.7788C97.331 28.7788 99.3604 31.1765 99.3604 34.8799ZM96.801 34.8799C96.801 32.4604 95.5318 30.8697 93.5953 30.8697C91.6927 30.8697 90.4131 32.4939 90.4131 34.8799C90.4131 37.2879 91.6927 38.9005 93.5953 38.9005C95.5318 38.9005 96.801 37.3214 96.801 34.8799Z" fill="white"/>
<path d="M108.186 36.2876C108.37 37.9131 109.973 38.9804 112.163 38.9804C114.262 38.9804 115.772 37.913 115.772 36.4474C115.772 35.1751 114.861 34.4132 112.705 33.8912L110.549 33.3794C107.493 32.6524 106.075 31.2447 106.075 28.9605C106.075 26.1323 108.577 24.1897 112.129 24.1897C115.645 24.1897 118.055 26.1323 118.136 28.9605H115.623C115.472 27.3247 114.1 26.3373 112.094 26.3373C110.088 26.3373 108.715 27.3363 108.715 28.7904C108.715 29.9492 109.592 30.6311 111.737 31.1531L113.57 31.5966C116.984 32.3919 118.402 33.7429 118.402 36.1405C118.402 39.2072 115.922 41.1279 111.979 41.1279C108.289 41.1279 105.798 39.2523 105.637 36.2875L108.186 36.2876Z" fill="white"/>
<path d="M123.777 26.0757V28.9039H126.084V30.8465H123.777V37.4349C123.777 38.4584 124.239 38.9353 125.253 38.9353C125.527 38.9306 125.8 38.9117 126.072 38.8786V40.8096C125.616 40.8935 125.153 40.9315 124.689 40.923C122.233 40.923 121.275 40.0142 121.275 37.6965V30.8465H119.511V28.9039H121.275V26.0757H123.777Z" fill="white"/>
<path d="M127.42 34.8799C127.42 31.1197 129.668 28.7568 133.173 28.7568C136.69 28.7568 138.928 31.1196 138.928 34.8799C138.928 38.6504 136.702 41.0029 133.173 41.0029C129.645 41.0029 127.42 38.6503 127.42 34.8799ZM136.39 34.8799C136.39 32.3005 135.191 30.7781 133.173 30.7781C131.155 30.7781 129.957 32.3121 129.957 34.8799C129.957 37.4696 131.155 38.9804 133.173 38.9804C135.191 38.9804 136.39 37.4696 136.39 34.8799Z" fill="white"/>
<path d="M140.98 28.9037H143.354V30.9379H143.412C143.573 30.3026 143.95 29.7411 144.482 29.3479C145.013 28.9547 145.666 28.7537 146.33 28.7787C146.617 28.7777 146.903 28.8084 147.183 28.8702V31.1647C146.821 31.0557 146.443 31.0056 146.064 31.0165C145.702 31.002 145.342 31.0649 145.007 31.2007C144.672 31.3365 144.371 31.5421 144.125 31.8033C143.878 32.0645 143.692 32.3752 143.579 32.714C143.466 33.0528 143.429 33.4117 143.47 33.7661V40.8546H140.979L140.98 28.9037Z" fill="white"/>
<path d="M158.664 37.3445C158.329 39.514 156.184 41.0029 153.441 41.0029C149.912 41.0029 147.721 38.6736 147.721 34.9366C147.721 31.188 149.923 28.7568 153.336 28.7568C156.692 28.7568 158.803 31.0282 158.803 34.6517V35.4922H150.235V35.6404C150.195 36.0802 150.251 36.5233 150.399 36.9402C150.546 37.3571 150.782 37.7383 151.091 38.0585C151.4 38.3786 151.774 38.6304 152.189 38.7972C152.604 38.9639 153.05 39.0417 153.498 39.0255C154.087 39.0798 154.677 38.9455 155.182 38.6427C155.687 38.3398 156.079 37.8845 156.3 37.3445L158.664 37.3445ZM150.247 33.7777H156.311C156.334 33.3823 156.273 32.9865 156.133 32.6153C155.992 32.2441 155.776 31.9055 155.496 31.6207C155.217 31.3359 154.881 31.111 154.509 30.9603C154.137 30.8095 153.738 30.7361 153.336 30.7446C152.93 30.7422 152.528 30.8189 152.153 30.9704C151.778 31.1218 151.437 31.345 151.15 31.627C150.863 31.909 150.635 32.2442 150.48 32.6134C150.325 32.9825 150.246 33.3782 150.247 33.7777Z" fill="white"/>
<path d="M62.784 12.1249C63.306 12.088 63.8298 12.1657 64.3177 12.3524C64.8056 12.5391 65.2453 12.8301 65.6052 13.2045C65.965 13.5789 66.2361 14.0273 66.3988 14.5174C66.5614 15.0074 66.6117 15.527 66.5458 16.0385C66.5458 18.5547 65.1654 20.0011 62.784 20.0011H59.8962V12.1249H62.784ZM61.1379 18.8872H62.6453C63.0183 18.9092 63.3916 18.849 63.738 18.7109C64.0844 18.5728 64.3952 18.3603 64.6478 18.089C64.9003 17.8176 65.0883 17.4942 65.198 17.1423C65.3077 16.7904 65.3363 16.4187 65.2818 16.0545C65.3324 15.6918 65.3008 15.3225 65.1894 14.9731C65.0781 14.6237 64.8896 14.303 64.6377 14.0338C64.3857 13.7646 64.0764 13.5537 63.7319 13.4161C63.3875 13.2785 63.0164 13.2176 62.6453 13.2379H61.1379V18.8872Z" fill="white"/>
<path d="M67.9491 17.0266C67.9112 16.636 67.9566 16.2419 68.0823 15.8696C68.208 15.4973 68.4114 15.1549 68.6793 14.8646C68.9472 14.5742 69.2737 14.3422 69.6379 14.1834C70.0022 14.0246 70.3961 13.9426 70.7944 13.9426C71.1927 13.9426 71.5866 14.0246 71.9509 14.1834C72.3151 14.3422 72.6417 14.5742 72.9095 14.8646C73.1774 15.1549 73.3808 15.4973 73.5065 15.8696C73.6323 16.2419 73.6776 16.636 73.6397 17.0266C73.6783 17.4176 73.6335 17.8123 73.5081 18.1852C73.3827 18.5582 73.1795 18.9011 72.9115 19.1921C72.6436 19.483 72.3168 19.7155 71.9522 19.8746C71.5875 20.0337 71.1932 20.1159 70.7944 20.1159C70.3956 20.1159 70.0013 20.0337 69.6366 19.8746C69.272 19.7155 68.9452 19.483 68.6773 19.1921C68.4093 18.9011 68.2061 18.5582 68.0807 18.1852C67.9553 17.8123 67.9105 17.4176 67.9491 17.0266ZM72.4149 17.0266C72.4149 15.7382 71.8274 14.9848 70.7964 14.9848C69.7614 14.9848 69.1791 15.7382 69.1791 17.0266C69.1791 18.3254 69.7614 19.073 70.7964 19.073C71.8275 19.073 72.4149 18.3202 72.4149 17.0266Z" fill="white"/>
<path d="M81.2038 20.0012H79.9686L78.7216 15.6236H78.6274L77.3856 20.0012H76.1622L74.4991 14.0574H75.7069L76.7877 18.5929H76.8767L78.1171 14.0574H79.2594L80.4998 18.5929H80.594L81.6696 14.0574H82.8603L81.2038 20.0012Z" fill="white"/>
<path d="M84.2595 14.0574H85.4057V15.0016H85.4947C85.6456 14.6625 85.9002 14.3782 86.2229 14.1883C86.5457 13.9985 86.9205 13.9126 87.2951 13.9426C87.5887 13.9209 87.8835 13.9645 88.1576 14.0702C88.4317 14.1759 88.6782 14.3411 88.8788 14.5534C89.0793 14.7657 89.2288 15.0197 89.3162 15.2967C89.4035 15.5737 89.4265 15.8664 89.3834 16.1533V20.0011H88.1927V16.4479C88.1927 15.4927 87.7714 15.0177 86.8908 15.0177C86.6915 15.0086 86.4925 15.042 86.3075 15.1157C86.1226 15.1894 85.9559 15.3016 85.8191 15.4447C85.6823 15.5877 85.5785 15.7583 85.5148 15.9445C85.4511 16.1308 85.4291 16.3285 85.4502 16.524V20.0012H84.2595L84.2595 14.0574Z" fill="white"/>
<path d="M91.2806 11.7368H92.4713V20.001H91.2806V11.7368Z" fill="white"/>
<path d="M94.1267 17.0265C94.0888 16.6359 94.1342 16.2417 94.26 15.8694C94.3857 15.497 94.5891 15.1547 94.857 14.8643C95.1249 14.5739 95.4515 14.3419 95.8158 14.1832C96.1801 14.0244 96.574 13.9424 96.9723 13.9424C97.3706 13.9424 97.7646 14.0244 98.1288 14.1832C98.4931 14.3419 98.8197 14.5739 99.0876 14.8643C99.3555 15.1547 99.5589 15.497 99.6847 15.8694C99.8104 16.2417 99.8558 16.6359 99.8179 17.0265C99.8565 17.4175 99.8117 17.8122 99.6862 18.1851C99.5608 18.558 99.3575 18.901 99.0895 19.1919C98.8215 19.4829 98.4947 19.7154 98.1301 19.8745C97.7655 20.0336 97.3711 20.1157 96.9723 20.1157C96.5735 20.1157 96.1791 20.0336 95.8145 19.8745C95.4499 19.7154 95.1231 19.4829 94.8551 19.1919C94.5871 18.901 94.3838 18.558 94.2584 18.1851C94.133 17.8122 94.0881 17.4175 94.1267 17.0265ZM98.5925 17.0265C98.5925 15.7381 98.005 14.9846 96.9739 14.9846C95.9389 14.9846 95.3567 15.7381 95.3567 17.0265C95.3567 18.3252 95.939 19.0729 96.9739 19.0729C98.005 19.0729 98.5925 18.3201 98.5925 17.0265Z" fill="white"/>
<path d="M101.07 18.32C101.07 17.2501 101.879 16.6333 103.314 16.5456L104.948 16.4528V15.9398C104.948 15.312 104.527 14.9575 103.713 14.9575C103.048 14.9575 102.588 15.1979 102.456 15.6182H101.303C101.425 14.5972 102.399 13.9424 103.768 13.9424C105.281 13.9424 106.134 14.6842 106.134 15.9398V20.001H104.988V19.1656H104.893C104.702 19.4653 104.434 19.7095 104.115 19.8735C103.797 20.0375 103.44 20.1152 103.081 20.0989C102.828 20.1248 102.572 20.0982 102.33 20.0207C102.087 19.9433 101.864 19.8166 101.675 19.649C101.485 19.4814 101.334 19.2766 101.229 19.0477C101.125 18.8188 101.071 18.5709 101.07 18.32ZM104.948 17.8121V17.3152L103.475 17.408C102.644 17.4628 102.267 17.7412 102.267 18.2652C102.267 18.8002 102.738 19.1115 103.386 19.1115C103.576 19.1304 103.767 19.1115 103.95 19.056C104.132 19.0004 104.301 18.9093 104.447 18.7881C104.592 18.6669 104.712 18.518 104.798 18.3503C104.884 18.1826 104.935 17.9996 104.948 17.8121Z" fill="white"/>
<path d="M107.698 17.0265C107.698 15.1483 108.678 13.9585 110.202 13.9585C110.579 13.9414 110.954 14.0304 111.281 14.215C111.609 14.3997 111.876 14.6724 112.052 15.0013H112.141V11.7368H113.332V20.001H112.191V19.0619H112.097C111.907 19.3886 111.63 19.6579 111.296 19.8407C110.962 20.0235 110.584 20.1128 110.202 20.0989C108.667 20.099 107.698 18.9092 107.698 17.0265ZM108.928 17.0265C108.928 18.2872 109.531 19.0458 110.54 19.0458C111.543 19.0458 112.164 18.2762 112.164 17.0316C112.164 15.7929 111.537 15.0123 110.54 15.0123C109.538 15.0123 108.928 15.7761 108.928 17.0265Z" fill="white"/>
<path d="M118.26 17.0266C118.222 16.636 118.268 16.2419 118.393 15.8696C118.519 15.4973 118.722 15.1549 118.99 14.8646C119.258 14.5742 119.585 14.3422 119.949 14.1834C120.313 14.0246 120.707 13.9426 121.105 13.9426C121.504 13.9426 121.898 14.0246 122.262 14.1834C122.626 14.3422 122.953 14.5742 123.221 14.8646C123.488 15.1549 123.692 15.4973 123.818 15.8696C123.943 16.2419 123.989 16.636 123.951 17.0266C123.989 17.4176 123.945 17.8123 123.819 18.1852C123.694 18.5582 123.491 18.9011 123.223 19.1921C122.955 19.483 122.628 19.7155 122.263 19.8746C121.899 20.0337 121.504 20.1159 121.105 20.1159C120.707 20.1159 120.312 20.0337 119.948 19.8746C119.583 19.7155 119.256 19.483 118.988 19.1921C118.72 18.9011 118.517 18.5582 118.392 18.1852C118.266 17.8123 118.222 17.4176 118.26 17.0266ZM122.726 17.0266C122.726 15.7382 122.138 14.9848 121.107 14.9848C120.072 14.9848 119.49 15.7382 119.49 17.0266C119.49 18.3254 120.072 19.073 121.107 19.073C122.138 19.073 122.726 18.3202 122.726 17.0266Z" fill="white"/>
<path d="M125.548 14.0574H126.694V15.0016H126.783C126.934 14.6625 127.189 14.3782 127.512 14.1883C127.834 13.9985 128.209 13.9126 128.584 13.9426C128.877 13.9209 129.172 13.9645 129.446 14.0702C129.72 14.1759 129.967 14.3411 130.167 14.5534C130.368 14.7657 130.518 15.0197 130.605 15.2967C130.692 15.5737 130.715 15.8664 130.672 16.1533V20.0011H129.481V16.4479C129.481 15.4927 129.06 15.0177 128.18 15.0177C127.98 15.0086 127.781 15.042 127.596 15.1157C127.411 15.1894 127.245 15.3016 127.108 15.4447C126.971 15.5877 126.867 15.7583 126.803 15.9445C126.74 16.1308 126.718 16.3285 126.739 16.524V20.0012H125.548V14.0574Z" fill="white"/>
<path d="M137.4 12.5774V14.0843H138.707V15.0724H137.4V18.1287C137.4 18.7513 137.661 19.024 138.253 19.024C138.405 19.0235 138.557 19.0145 138.707 18.9969V19.974C138.494 20.0117 138.277 20.0317 138.06 20.0339C136.736 20.0339 136.208 19.575 136.208 18.4291V15.0723H135.25V14.0842H136.208V12.5774H137.4Z" fill="white"/>
<path d="M140.335 11.7368H141.515V15.0123H141.609C141.768 14.67 142.029 14.3841 142.358 14.1936C142.687 14.003 143.068 13.9171 143.449 13.9476C143.741 13.9319 144.033 13.9799 144.304 14.0882C144.575 14.1965 144.818 14.3624 145.017 14.5741C145.215 14.7857 145.364 15.0379 145.452 15.3126C145.54 15.5874 145.566 15.8779 145.527 16.1634V20.001H144.335V16.4528C144.335 15.5034 143.886 15.0226 143.045 15.0226C142.84 15.0061 142.634 15.0338 142.442 15.1038C142.249 15.1739 142.074 15.2845 141.929 15.428C141.785 15.5716 141.674 15.7445 141.604 15.9348C141.534 16.125 141.507 16.328 141.526 16.5295V20.001H140.335L140.335 11.7368Z" fill="white"/>
<path d="M152.469 18.3962C152.308 18.9394 151.957 19.4093 151.479 19.7237C151.001 20.038 150.426 20.1768 149.855 20.1158C149.457 20.1261 149.062 20.0511 148.697 19.896C148.332 19.7408 148.006 19.5093 147.741 19.2174C147.475 18.9255 147.278 18.5802 147.162 18.2056C147.046 17.8309 147.014 17.4359 147.068 17.0478C147.015 16.6586 147.048 16.2627 147.163 15.8869C147.279 15.5111 147.476 15.1643 147.74 14.8698C148.003 14.5754 148.328 14.3402 148.692 14.1802C149.056 14.0202 149.451 13.9391 149.85 13.9425C151.528 13.9425 152.541 15.0724 152.541 16.9389V17.3482H148.281V17.4139C148.262 17.632 148.29 17.8516 148.363 18.0585C148.435 18.2654 148.551 18.4551 148.702 18.6154C148.853 18.7758 149.037 18.9032 149.241 18.9895C149.445 19.0758 149.665 19.1192 149.888 19.1167C150.172 19.1504 150.461 19.0999 150.717 18.9716C150.972 18.8433 151.183 18.643 151.323 18.3961L152.469 18.3962ZM148.281 16.4806H151.328C151.343 16.2811 151.316 16.0808 151.247 15.8924C151.179 15.704 151.072 15.5318 150.932 15.3868C150.792 15.2417 150.623 15.1272 150.435 15.0504C150.248 14.9736 150.046 14.9363 149.843 14.9409C149.637 14.9383 149.433 14.9764 149.242 15.0529C149.051 15.1294 148.878 15.2427 148.732 15.3862C148.587 15.5297 148.472 15.7005 148.394 15.8884C148.317 16.0764 148.278 16.2778 148.281 16.4806Z" fill="white"/>
</svg>
