<svg width="180" height="54" viewBox="0 0 180 54" fill="none" xmlns="http://www.w3.org/2000/svg">
<path d="M166.332 0.599978H13.6757C13.1843 0.599978 12.6989 0.599978 12.2089 0.602618C11.7987 0.605258 11.3917 0.612927 10.9776 0.619382C10.0779 0.629812 9.1803 0.707791 8.29262 0.852639C7.40619 1.00064 6.54753 1.27967 5.74568 1.68028C4.9448 2.08428 4.21303 2.60924 3.57689 3.23611C2.93741 3.86122 2.40435 4.58376 1.99822 5.37595C1.59096 6.16656 1.30857 7.01378 1.1608 7.88833C1.01161 8.76178 0.93134 9.6453 0.92069 10.531C0.908256 10.9357 0.906943 11.3417 0.900391 11.7465V42.2573C0.906943 42.6672 0.908256 43.0642 0.92069 43.4742C0.931343 44.3599 1.01162 45.2433 1.1608 46.1167C1.30816 46.9918 1.59057 47.8395 1.99822 48.6304C2.40417 49.42 2.9373 50.1397 3.57689 50.7613C4.21061 51.3909 4.94287 51.9163 5.74568 52.3172C6.54752 52.7189 7.40609 52.9995 8.29262 53.1498C9.18045 53.2935 10.0779 53.3715 10.9776 53.3832C11.3917 53.3922 11.7987 53.3973 12.2089 53.3973C12.6989 53.4 13.1844 53.4 13.6757 53.4H166.332C166.814 53.4 167.303 53.4 167.785 53.3973C168.193 53.3973 168.612 53.3922 169.02 53.3832C169.918 53.3722 170.814 53.2941 171.7 53.1498C172.589 52.9985 173.451 52.7179 174.256 52.3172C175.059 51.916 175.79 51.3907 176.423 50.7613C177.061 50.1372 177.596 49.4181 178.007 48.6304C178.411 47.8389 178.691 46.9913 178.836 46.1167C178.985 45.2432 179.069 44.3599 179.085 43.4742C179.09 43.0642 179.09 42.6672 179.09 42.2573C179.1 41.7778 179.1 41.3009 179.1 40.8135V13.1877C179.1 12.7043 179.1 12.2247 179.09 11.7465C179.09 11.3417 179.09 10.9357 179.085 10.5309C179.069 9.64517 178.985 8.76185 178.836 7.88828C178.69 7.01423 178.411 6.16708 178.007 5.3759C177.179 3.78804 175.868 2.49553 174.256 1.68016C173.451 1.28053 172.589 1.00158 171.7 0.85252C170.814 0.707034 169.918 0.629028 169.02 0.619197C168.612 0.612755 168.193 0.60502 167.785 0.602446C167.303 0.599806 166.814 0.599978 166.332 0.599978Z" fill="#A6A6A6"/>
<path d="M12.2156 52.2447C11.8074 52.2447 11.409 52.2396 11.004 52.2306C10.1649 52.2198 9.32783 52.1479 8.49956 52.0153C7.72724 51.8843 6.97907 51.6405 6.27973 51.2921C5.58681 50.9465 4.9548 50.4934 4.40793 49.9502C3.85314 49.4133 3.39125 48.7906 3.04057 48.1068C2.68602 47.4185 2.44066 46.6808 2.31302 45.9193C2.17518 45.101 2.1006 44.2737 2.08993 43.4443C2.08143 43.1659 2.07031 42.239 2.07031 42.239V11.7464C2.07031 11.7464 2.08216 10.8337 2.09 10.5656C2.10021 9.73753 2.17436 8.91144 2.31178 8.09446C2.43966 7.33087 2.68522 6.59101 3.03995 5.9005C3.38935 5.21716 3.84867 4.59401 4.40012 4.05521C4.95094 3.5113 5.58497 3.05588 6.27908 2.70556C6.97681 2.35824 7.72356 2.11621 8.49432 1.98756C9.32531 1.85367 10.1653 1.78128 11.0073 1.771L12.2163 1.75488H167.778L169.002 1.77165C169.836 1.78141 170.668 1.85316 171.492 1.98626C172.27 2.11653 173.025 2.36025 173.731 2.70942C175.121 3.41542 176.253 4.53237 176.966 5.90372C177.316 6.58947 177.557 7.32329 177.684 8.08029C177.823 8.90397 177.9 9.73655 177.916 10.5714C177.92 10.9452 177.92 11.3468 177.92 11.7464C177.931 12.2414 177.931 12.7125 177.931 13.1875V40.8133C177.931 41.2928 177.931 41.7608 177.92 42.2325C177.92 42.6618 177.92 43.055 177.915 43.4597C177.899 44.2797 177.823 45.0974 177.686 45.9064C177.561 46.6734 177.317 47.4168 176.963 48.1107C176.609 48.7871 176.15 49.4044 175.602 49.9399C175.054 50.4861 174.421 50.9418 173.727 51.2896C173.023 51.6407 172.27 51.8853 171.492 52.0153C170.664 52.1486 169.826 52.2205 168.987 52.2306C168.595 52.2396 168.184 52.2447 167.785 52.2447L166.333 52.2474L12.2156 52.2447Z" fill="#041E54"/>
<path d="M42.6105 26.5018C42.6281 25.1526 42.9919 23.8298 43.668 22.6563C44.344 21.4828 45.3104 20.4969 46.4771 19.7902C45.7359 18.7473 44.7581 17.8891 43.6213 17.2837C42.4845 16.6782 41.2201 16.3422 39.9284 16.3024C37.1731 16.0175 34.502 17.9267 33.098 17.9267C31.6667 17.9267 29.505 16.3307 27.1771 16.3779C25.6714 16.4258 24.204 16.8572 22.9178 17.6299C21.6316 18.4027 20.5705 19.4905 19.838 20.7874C16.6646 26.1999 19.0316 34.1546 22.0714 38.5297C23.5923 40.6721 25.3697 43.0652 27.6955 42.9803C29.9714 42.8873 30.8214 41.5506 33.5686 41.5506C36.2902 41.5506 37.0877 42.9803 39.4607 42.9263C41.9028 42.8873 43.4415 40.7745 44.909 38.6118C46.0017 37.0853 46.8426 35.3982 47.4004 33.6129C45.9816 33.0217 44.7708 32.0322 43.919 30.7676C43.0672 29.5031 42.6122 28.0195 42.6105 26.5018Z" fill="white"/>
<path d="M38.1287 13.425C39.4603 11.8503 40.1163 9.82617 39.9574 7.78259C37.9231 7.99309 36.044 8.95093 34.6944 10.4653C34.0346 11.2051 33.5292 12.0657 33.2072 12.9981C32.8852 13.9304 32.7529 14.9161 32.8178 15.8988C33.8353 15.9091 34.842 15.6919 35.7619 15.2634C36.6818 14.8349 37.4911 14.2063 38.1287 13.425Z" fill="white"/>
<path d="M68.783 36.4241H62.4408L60.9177 40.8546H58.2314L64.2386 24.4629H67.0296L73.0368 40.8546H70.3047L68.783 36.4241ZM63.0976 34.3796H68.1249L65.6466 27.1893H65.5773L63.0976 34.3796Z" fill="white"/>
<path d="M86.0109 34.8798C86.0109 38.5936 83.9932 40.9796 80.9484 40.9796C80.1771 41.0194 79.4101 40.8443 78.735 40.4746C78.06 40.1048 77.5043 39.5552 77.1316 38.8888H77.074V44.8081H74.584V28.9037H76.9942V30.8915H77.04C77.4299 30.2282 77.9949 29.6815 78.6751 29.3094C79.3553 28.9374 80.1251 28.754 80.9026 28.7787C83.9814 28.7787 86.0109 31.1763 86.0109 34.8798ZM83.4515 34.8798C83.4515 32.4603 82.1823 30.8696 80.2458 30.8696C78.3433 30.8696 77.0636 32.4938 77.0636 34.8798C77.0636 37.2878 78.3433 38.9004 80.2458 38.9004C82.1823 38.9004 83.4515 37.3213 83.4515 34.8798Z" fill="white"/>
<path d="M99.3615 34.8798C99.3615 38.5936 97.3438 40.9796 94.299 40.9796C93.5277 41.0194 92.7606 40.8443 92.0856 40.4746C91.4106 40.1048 90.8549 39.5552 90.4822 38.8888H90.4246V44.8081H87.9346V28.9037H90.3448V30.8915H90.3906C90.7804 30.2282 91.3455 29.6815 92.0256 29.3094C92.7058 28.9374 93.4756 28.754 94.2532 28.7787C97.3321 28.7787 99.3615 31.1763 99.3615 34.8798ZM96.8021 34.8798C96.8021 32.4603 95.5329 30.8695 93.5964 30.8695C91.6938 30.8695 90.4142 32.4938 90.4142 34.8798C90.4142 37.2878 91.6938 38.9004 93.5964 38.9004C95.5329 38.9004 96.8021 37.3213 96.8021 34.8798Z" fill="white"/>
<path d="M108.187 36.2875C108.371 37.913 109.974 38.9802 112.164 38.9802C114.263 38.9802 115.773 37.9129 115.773 36.4472C115.773 35.1749 114.862 34.4131 112.706 33.891L110.55 33.3793C107.494 32.6523 106.076 31.2446 106.076 28.9604C106.076 26.1322 108.578 24.1896 112.13 24.1896C115.646 24.1896 118.056 26.1322 118.138 28.9604H115.624C115.473 27.3246 114.101 26.3372 112.095 26.3372C110.089 26.3372 108.717 27.3362 108.717 28.7902C108.717 29.9491 109.593 30.631 111.738 31.153L113.571 31.5965C116.985 32.3918 118.403 33.7428 118.403 36.1404C118.403 39.2071 115.924 41.1278 111.98 41.1278C108.29 41.1278 105.799 39.2522 105.638 36.2873L108.187 36.2875Z" fill="white"/>
<path d="M123.777 26.0754V28.9036H126.084V30.8462H123.777V37.4346C123.777 38.4581 124.239 38.9351 125.253 38.9351C125.527 38.9304 125.801 38.9114 126.072 38.8783V40.8093C125.616 40.8933 125.153 40.9313 124.689 40.9228C122.233 40.9228 121.276 40.014 121.276 37.6963V30.8462H119.512V28.9036H121.275V26.0754H123.777Z" fill="white"/>
<path d="M127.42 34.8797C127.42 31.1196 129.668 28.7567 133.173 28.7567C136.69 28.7567 138.928 31.1195 138.928 34.8797C138.928 38.6502 136.702 41.0028 133.173 41.0028C129.646 41.0028 127.42 38.6502 127.42 34.8797ZM136.391 34.8797C136.391 32.3003 135.191 30.778 133.173 30.778C131.156 30.778 129.957 32.3119 129.957 34.8797C129.957 37.4695 131.156 38.9802 133.173 38.9802C135.191 38.9802 136.391 37.4695 136.391 34.8797Z" fill="white"/>
<path d="M140.98 28.9036H143.355V30.9377H143.413C143.574 30.3024 143.951 29.741 144.483 29.3478C145.014 28.9546 145.667 28.7536 146.331 28.7786C146.618 28.7776 146.904 28.8083 147.184 28.8701V31.1646C146.822 31.0556 146.444 31.0055 146.065 31.0164C145.703 31.0019 145.343 31.0648 145.008 31.2006C144.673 31.3364 144.372 31.5419 144.126 31.8032C143.879 32.0644 143.693 32.375 143.58 32.7139C143.467 33.0527 143.43 33.4116 143.47 33.7659V40.8545H140.98L140.98 28.9036Z" fill="white"/>
<path d="M158.664 37.3444C158.329 39.5139 156.185 41.0028 153.441 41.0028C149.912 41.0028 147.722 38.6734 147.722 34.9365C147.722 31.1879 149.924 28.7567 153.336 28.7567C156.693 28.7567 158.803 31.028 158.803 34.6516V35.492H150.235V35.6403C150.196 36.0801 150.252 36.5232 150.399 36.9401C150.547 37.357 150.783 37.7382 151.091 38.0584C151.4 38.3785 151.774 38.6303 152.189 38.797C152.604 38.9638 153.051 39.0416 153.499 39.0253C154.087 39.0797 154.678 38.9454 155.182 38.6425C155.687 38.3397 156.079 37.8844 156.3 37.3444L158.664 37.3444ZM150.247 33.7776H156.312C156.334 33.3821 156.273 32.9864 156.133 32.6152C155.993 32.244 155.776 31.9054 155.497 31.6206C155.217 31.3357 154.881 31.1109 154.509 30.9601C154.138 30.8094 153.738 30.7359 153.336 30.7444C152.931 30.7421 152.529 30.8188 152.154 30.9703C151.778 31.1217 151.437 31.3449 151.15 31.6269C150.863 31.9089 150.635 32.2441 150.48 32.6133C150.325 32.9824 150.246 33.3781 150.247 33.7776Z" fill="white"/>
<path d="M62.7853 12.1248C63.3073 12.0879 63.8311 12.1656 64.319 12.3523C64.8069 12.539 65.2466 12.83 65.6065 13.2044C65.9663 13.5788 66.2374 14.0272 66.4 14.5172C66.5627 15.0073 66.6129 15.5268 66.5471 16.0384C66.5471 18.5546 65.1667 20.001 62.7853 20.001H59.8975V12.1248H62.7853ZM61.1392 18.8871H62.6466C63.0196 18.9091 63.3929 18.8488 63.7393 18.7107C64.0857 18.5727 64.3965 18.3602 64.6491 18.0889C64.9016 17.8175 65.0896 17.4941 65.1993 17.1422C65.3089 16.7902 65.3376 16.4186 65.2831 16.0544C65.3336 15.6916 65.3021 15.3223 65.1907 14.973C65.0794 14.6236 64.8909 14.3029 64.6389 14.0337C64.387 13.7645 64.0777 13.5535 63.7332 13.4159C63.3888 13.2784 63.0177 13.2175 62.6466 13.2378H61.1392V18.8871Z" fill="white"/>
<path d="M67.95 17.0265C67.9121 16.6359 67.9574 16.2418 68.0831 15.8695C68.2089 15.4971 68.4122 15.1548 68.6801 14.8644C68.948 14.5741 69.2746 14.342 69.6388 14.1833C70.003 14.0245 70.397 13.9425 70.7953 13.9425C71.1936 13.9425 71.5875 14.0245 71.9517 14.1833C72.316 14.342 72.6425 14.5741 72.9104 14.8644C73.1783 15.1548 73.3816 15.4971 73.5074 15.8695C73.6331 16.2418 73.6785 16.6359 73.6405 17.0265C73.6792 17.4175 73.6344 17.8122 73.509 18.1851C73.3836 18.558 73.1803 18.901 72.9124 19.1919C72.6444 19.4829 72.3176 19.7154 71.953 19.8745C71.5884 20.0336 71.194 20.1158 70.7953 20.1158C70.3965 20.1158 70.0021 20.0336 69.6375 19.8745C69.2729 19.7154 68.9461 19.4829 68.6781 19.1919C68.4102 18.901 68.207 18.558 68.0816 18.1851C67.9561 17.8122 67.9113 17.4175 67.95 17.0265ZM72.4158 17.0265C72.4158 15.7381 71.8283 14.9847 70.7972 14.9847C69.7622 14.9847 69.18 15.7381 69.18 17.0265C69.18 18.3253 69.7623 19.0729 70.7972 19.0729C71.8283 19.0729 72.4158 18.3201 72.4158 17.0265Z" fill="white"/>
<path d="M81.2046 20.001H79.9694L78.7224 15.6233H78.6282L77.3865 20.001H76.1631L74.5 14.0571H75.7077L76.7885 18.5926H76.8775L78.1179 14.0571H79.2602L80.5007 18.5926H80.5949L81.6704 14.0571H82.8611L81.2046 20.001Z" fill="white"/>
<path d="M84.2608 14.0571H85.407V15.0013H85.4959C85.6469 14.6622 85.9015 14.3779 86.2242 14.1881C86.5469 13.9983 86.9218 13.9124 87.2964 13.9424C87.59 13.9206 87.8847 13.9642 88.1589 14.07C88.433 14.1757 88.6795 14.3408 88.88 14.5531C89.0806 14.7655 89.2301 15.0195 89.3175 15.2965C89.4048 15.5734 89.4278 15.8662 89.3847 16.1531V20.0009H88.194V16.4477C88.194 15.4925 87.7727 15.0175 86.8921 15.0175C86.6928 15.0083 86.4938 15.0417 86.3088 15.1154C86.1238 15.1891 85.9572 15.3014 85.8204 15.4444C85.6836 15.5875 85.5797 15.758 85.5161 15.9443C85.4524 16.1306 85.4303 16.3282 85.4514 16.5237V20.001H84.2607L84.2608 14.0571Z" fill="white"/>
<path d="M91.2812 11.7367H92.472V20.0008H91.2812V11.7367Z" fill="white"/>
<path d="M94.1277 17.0265C94.0898 16.6359 94.1352 16.2417 94.2609 15.8694C94.3867 15.497 94.5901 15.1547 94.858 14.8643C95.1259 14.5739 95.4525 14.3419 95.8168 14.1832C96.181 14.0244 96.575 13.9424 96.9733 13.9424C97.3716 13.9424 97.7655 14.0244 98.1298 14.1832C98.4941 14.3419 98.8207 14.5739 99.0886 14.8643C99.3565 15.1547 99.5599 15.497 99.6856 15.8694C99.8114 16.2417 99.8568 16.6359 99.8189 17.0265C99.8575 17.4175 99.8126 17.8122 99.6872 18.1851C99.5617 18.558 99.3585 18.901 99.0905 19.1919C98.8225 19.4829 98.4957 19.7154 98.1311 19.8745C97.7665 20.0336 97.3721 20.1157 96.9733 20.1157C96.5745 20.1157 96.1801 20.0336 95.8155 19.8745C95.4509 19.7154 95.1241 19.4829 94.8561 19.1919C94.5881 18.901 94.3848 18.558 94.2594 18.1851C94.1339 17.8122 94.0891 17.4175 94.1277 17.0265ZM98.5935 17.0265C98.5935 15.7381 98.006 14.9846 96.9749 14.9846C95.9399 14.9846 95.3577 15.7381 95.3577 17.0265C95.3577 18.3252 95.94 19.0729 96.9749 19.0729C98.006 19.0729 98.5935 18.3201 98.5935 17.0265Z" fill="white"/>
<path d="M101.071 18.32C101.071 17.2501 101.88 16.6333 103.315 16.5456L104.95 16.4528V15.9398C104.95 15.312 104.528 14.9575 103.714 14.9575C103.05 14.9575 102.589 15.1979 102.457 15.6182H101.304C101.426 14.5972 102.401 13.9424 103.769 13.9424C105.282 13.9424 106.135 14.6842 106.135 15.9398V20.001H104.989V19.1656H104.895C104.703 19.4653 104.435 19.7095 104.117 19.8735C103.798 20.0375 103.441 20.1152 103.082 20.0989C102.829 20.1248 102.573 20.0982 102.331 20.0207C102.089 19.9433 101.866 19.8166 101.676 19.649C101.487 19.4814 101.335 19.2766 101.231 19.0477C101.127 18.8188 101.072 18.5709 101.071 18.32ZM104.95 17.8121V17.3152L103.476 17.408C102.645 17.4628 102.269 17.7412 102.269 18.2652C102.269 18.8002 102.74 19.1115 103.387 19.1115C103.577 19.1304 103.769 19.1115 103.951 19.056C104.133 19.0004 104.302 18.9093 104.448 18.7881C104.594 18.6669 104.713 18.518 104.8 18.3503C104.886 18.1826 104.937 17.9996 104.95 17.8121Z" fill="white"/>
<path d="M107.699 17.0264C107.699 15.1482 108.679 13.9584 110.204 13.9584C110.581 13.9413 110.955 14.0303 111.283 14.2149C111.61 14.3996 111.878 14.6723 112.054 15.0012H112.143V11.7367H113.334V20.0008H112.193V19.0618H112.098C111.909 19.3884 111.632 19.6578 111.298 19.8406C110.964 20.0234 110.585 20.1127 110.204 20.0988C108.669 20.0989 107.699 18.909 107.699 17.0264ZM108.929 17.0264C108.929 18.2871 109.532 19.0457 110.541 19.0457C111.545 19.0457 112.165 18.2761 112.165 17.0315C112.165 15.7927 111.538 15.0122 110.541 15.0122C109.539 15.0122 108.929 15.776 108.929 17.0264Z" fill="white"/>
<path d="M118.262 17.0265C118.224 16.6359 118.269 16.2418 118.395 15.8695C118.52 15.4971 118.724 15.1548 118.992 14.8644C119.26 14.5741 119.586 14.342 119.95 14.1833C120.315 14.0245 120.708 13.9425 121.107 13.9425C121.505 13.9425 121.899 14.0245 122.263 14.1833C122.627 14.342 122.954 14.5741 123.222 14.8644C123.49 15.1548 123.693 15.4971 123.819 15.8695C123.945 16.2418 123.99 16.6359 123.952 17.0265C123.991 17.4175 123.946 17.8122 123.82 18.1851C123.695 18.558 123.492 18.901 123.224 19.1919C122.956 19.4829 122.629 19.7154 122.265 19.8745C121.9 20.0336 121.506 20.1158 121.107 20.1158C120.708 20.1158 120.314 20.0336 119.949 19.8745C119.584 19.7154 119.258 19.4829 118.99 19.1919C118.722 18.901 118.518 18.558 118.393 18.1851C118.268 17.8122 118.223 17.4175 118.262 17.0265ZM122.727 17.0265C122.727 15.7381 122.14 14.9847 121.109 14.9847C120.074 14.9847 119.492 15.7381 119.492 17.0265C119.492 18.3253 120.074 19.0729 121.109 19.0729C122.14 19.0729 122.727 18.3201 122.727 17.0265Z" fill="white"/>
<path d="M125.549 14.0571H126.695V15.0013H126.784C126.935 14.6622 127.19 14.3779 127.512 14.1881C127.835 13.9983 128.21 13.9124 128.584 13.9424C128.878 13.9206 129.173 13.9642 129.447 14.07C129.721 14.1757 129.968 14.3408 130.168 14.5531C130.369 14.7655 130.518 15.0195 130.606 15.2965C130.693 15.5734 130.716 15.8662 130.673 16.1531V20.0009H129.482V16.4477C129.482 15.4925 129.061 15.0175 128.18 15.0175C127.981 15.0083 127.782 15.0417 127.597 15.1154C127.412 15.1891 127.245 15.3014 127.108 15.4444C126.972 15.5875 126.868 15.758 126.804 15.9443C126.74 16.1306 126.718 16.3282 126.74 16.5237V20.001H125.549V14.0571Z" fill="white"/>
<path d="M137.402 12.5773V14.0842H138.709V15.0722H137.402V18.1286C137.402 18.7512 137.662 19.0239 138.255 19.0239C138.407 19.0234 138.558 19.0143 138.709 18.9968V19.9739C138.495 20.0116 138.278 20.0316 138.061 20.0338C136.737 20.0338 136.21 19.5749 136.21 18.4289V15.0722H135.252V14.0841H136.21V12.5773H137.402Z" fill="white"/>
<path d="M140.336 11.7367H141.516V15.0122H141.61C141.769 14.6699 142.03 14.384 142.359 14.1935C142.689 14.0029 143.069 13.917 143.45 13.9474C143.742 13.9318 144.034 13.9798 144.305 14.0881C144.576 14.1964 144.82 14.3623 145.018 14.5739C145.216 14.7856 145.365 15.0378 145.453 15.3125C145.541 15.5872 145.567 15.8778 145.528 16.1633V20.0009H144.336V16.4527C144.336 15.5033 143.887 15.0225 143.046 15.0225C142.841 15.006 142.635 15.0337 142.443 15.1037C142.25 15.1737 142.075 15.2844 141.931 15.4279C141.786 15.5715 141.675 15.7444 141.605 15.9347C141.535 16.1249 141.509 16.3279 141.527 16.5294V20.0008H140.336L140.336 11.7367Z" fill="white"/>
<path d="M152.47 18.3962C152.308 18.9394 151.958 19.4093 151.48 19.7237C151.002 20.038 150.427 20.1768 149.856 20.1158C149.458 20.1261 149.063 20.0511 148.698 19.896C148.333 19.7408 148.007 19.5093 147.741 19.2174C147.476 18.9255 147.279 18.5802 147.163 18.2056C147.046 17.8309 147.014 17.4359 147.069 17.0478C147.016 16.6586 147.048 16.2627 147.164 15.8869C147.28 15.5111 147.477 15.1643 147.74 14.8698C148.004 14.5754 148.329 14.3402 148.693 14.1802C149.057 14.0202 149.452 13.9391 149.851 13.9425C151.529 13.9425 152.542 15.0724 152.542 16.9389V17.3482H148.282V17.4139C148.263 17.632 148.291 17.8516 148.363 18.0585C148.436 18.2654 148.551 18.4551 148.703 18.6154C148.854 18.7758 149.038 18.9032 149.242 18.9895C149.446 19.0758 149.666 19.1192 149.888 19.1167C150.173 19.1504 150.462 19.0999 150.717 18.9716C150.973 18.8433 151.184 18.643 151.324 18.3961L152.47 18.3962ZM148.282 16.4806H151.329C151.344 16.2811 151.317 16.0808 151.248 15.8924C151.18 15.704 151.072 15.5318 150.933 15.3868C150.793 15.2417 150.624 15.1272 150.436 15.0504C150.249 14.9736 150.047 14.9363 149.844 14.9409C149.638 14.9383 149.434 14.9764 149.243 15.0529C149.052 15.1294 148.879 15.2427 148.733 15.3862C148.588 15.5297 148.473 15.7005 148.395 15.8884C148.318 16.0764 148.279 16.2778 148.282 16.4806Z" fill="white"/>
</svg>
