<svg width="23" height="27" viewBox="0 0 23 27" fill="none" xmlns="http://www.w3.org/2000/svg">
<path d="M0.861328 25.1836C0.861446 24.4378 1.46605 23.833 2.21191 23.833L21.1211 23.833C21.8667 23.8333 22.4706 24.438 22.4707 25.1836C22.4705 25.9292 21.8666 26.5338 21.1211 26.5342L2.21191 26.5342C1.46609 26.5342 0.861506 25.9294 0.861328 25.1836ZM2.6084 13.1094C2.08121 12.5819 2.08103 11.7276 2.6084 11.2002C3.13578 10.673 3.99015 10.6731 4.51758 11.2002L10.3154 16.998L10.3154 1.34961C10.3157 0.6039 10.9212 -0.000977002 11.667 -0.000977035C12.4125 -0.000652818 13.0163 0.604101 13.0166 1.34961L13.0166 17L18.8164 11.2002C19.3439 10.6731 20.1982 10.6729 20.7256 11.2002C21.2529 11.7275 21.2527 12.5819 20.7256 13.1094L12.6211 21.2139C12.5792 21.2558 12.5338 21.2934 12.4873 21.3291C12.3962 21.3991 12.2968 21.4588 12.1895 21.5039C12.1737 21.5105 12.1576 21.5164 12.1416 21.5225C11.9939 21.578 11.8341 21.6093 11.667 21.6094C11.289 21.6094 10.9465 21.4543 10.7012 21.2041L2.6084 13.1094Z" fill="white"/>
</svg>
