<svg width="96" height="96" viewBox="0 0 96 96" fill="none" xmlns="http://www.w3.org/2000/svg">
<path d="M79.579 39.5789C84.2298 39.5789 88 43.3492 88 48V48C88 70.0914 70.0914 88 48 88C25.9086 88 8 70.0914 8 48C8 25.9086 25.9086 8 48 8H75.3684V8C75.3684 17.3016 67.828 24.8421 58.5263 24.8421H48C35.2102 24.8421 24.8421 35.2102 24.8421 48C24.8421 60.7898 35.2102 71.1579 48 71.1579C57.8178 71.1579 66.2013 65.0456 69.5707 56.4211H50.1053V54.7368C50.1053 46.3654 56.8917 39.5789 65.2632 39.5789H79.579Z" fill="#00CC91"/>
</svg>
