<svg width="180" height="54" viewBox="0 0 180 54" fill="none" xmlns="http://www.w3.org/2000/svg">
<g clip-path="url(#clip0_399_12593)">
<path d="M7.50039 0.599976H172.5C176.196 0.599976 179.1 3.50398 179.1 7.19998V46.8C179.1 50.496 176.196 53.4 172.5 53.4H7.50039C3.80439 53.4 0.900391 50.496 0.900391 46.8V7.19998C0.900391 3.50398 3.80439 0.599976 7.50039 0.599976Z" fill="#041E54"/>
<path d="M172.5 1.65598C175.536 1.65598 178.044 4.16398 178.044 7.19998V46.8C178.044 49.836 175.536 52.344 172.5 52.344H7.50039C4.46439 52.344 1.95639 49.836 1.95639 46.8V7.19998C1.95639 4.16398 4.46439 1.65598 7.50039 1.65598H172.5ZM172.5 0.599976H7.50039C3.80439 0.599976 0.900391 3.50398 0.900391 7.19998V46.8C0.900391 50.496 3.80439 53.4 7.50039 53.4H172.5C176.196 53.4 179.1 50.496 179.1 46.8V7.19998C179.1 3.50398 176.196 0.599976 172.5 0.599976Z" fill="#A6A6A6"/>
<path d="M63.4661 14.0642C63.4661 14.9882 63.2021 16.0442 62.4101 16.7042C61.6181 17.4962 60.5621 17.8922 59.5061 17.8922C57.2621 17.8922 55.4141 16.0442 55.4141 13.6682C55.4141 12.6122 55.8101 11.5562 56.6021 10.7642C57.3941 9.97217 58.4501 9.57617 59.5061 9.57617C60.0341 9.57617 60.5621 9.70817 61.0901 9.84017C61.6181 9.97217 62.0141 10.3682 62.2781 10.7642L61.6181 11.4242C61.0901 10.7642 60.2981 10.5002 59.5061 10.5002C57.7901 10.5002 56.4701 11.8202 56.4701 13.5362V13.6682C56.4701 15.3842 57.7901 16.8362 59.5061 16.8362C60.2981 16.8362 61.0901 16.5722 61.7501 15.9122C62.1461 15.5162 62.4101 14.8562 62.4101 14.3282H59.5061V13.5362H63.3341C63.4661 13.6682 63.4661 13.9322 63.4661 14.0642ZM69.5381 10.7642H65.9741V13.2722H69.2741V14.1962H65.9741V16.7042H69.5381V17.7602H64.9181V9.84017H69.5381V10.7642ZM73.8941 17.7602H72.8381V10.7642H70.5941V9.84017H76.1381V10.7642H73.8941V17.7602ZM79.9661 17.7602V9.84017H81.0221V17.7602H79.9661ZM85.5101 17.7602H84.4541V10.7642H82.2101V9.84017H87.6221V10.7642H85.3781L85.5101 17.7602ZM98.0501 16.7042C96.4661 18.2882 93.8261 18.2882 92.2421 16.7042C90.6581 15.1202 90.6581 12.4802 92.2421 10.8962C93.8261 9.31217 96.4661 9.31217 98.0501 10.8962C99.6341 12.4802 99.6341 15.1202 98.0501 16.7042ZM93.0341 16.0442C94.2221 17.2322 96.2021 17.2322 97.3901 16.0442C98.5781 14.7242 98.5781 12.7442 97.3901 11.5562C96.2021 10.3682 94.2221 10.3682 93.0341 11.5562C91.8461 12.8762 91.8461 14.7242 93.0341 16.0442ZM100.69 17.7602V9.84017H101.878L105.706 16.0442V9.84017H106.762V17.7602H105.706L101.614 11.2922V17.7602H100.69Z" fill="white" stroke="white" stroke-width="0.264" stroke-miterlimit="10"/>
<path d="M90.7932 29.3778C87.7572 29.3778 85.2492 31.8858 85.2492 35.0538C85.2492 38.0898 87.7572 40.5978 90.9252 40.5978C93.9612 40.5978 96.4692 38.0898 96.4692 35.0538C96.4692 32.0178 94.0932 29.5098 91.0572 29.3778C90.9252 29.2458 90.9252 29.2458 90.7932 29.3778ZM90.7932 38.3538C88.9452 38.4858 87.2292 37.0338 87.0972 35.1858C86.9652 33.3378 88.4172 31.6218 90.2652 31.4898C92.1132 31.3578 93.8292 32.8098 93.9612 34.6578V34.9218C94.0932 36.7698 92.7732 38.2218 90.7932 38.3538C90.9252 38.3538 90.9252 38.3538 90.7932 38.3538ZM78.5172 29.3778C75.4812 29.3778 72.9732 31.8858 72.9732 35.0538C72.9732 38.0898 75.4812 40.5978 78.6492 40.5978C81.6852 40.5978 84.1932 38.0898 84.1932 35.0538C84.1932 32.0178 81.8172 29.5098 78.7812 29.3778C78.6492 29.2458 78.6492 29.2458 78.5172 29.3778ZM78.5172 38.3538C76.6692 38.4858 74.9532 37.0338 74.8212 35.1858C74.6892 33.3378 76.1412 31.6218 77.9892 31.4898C79.8372 31.3578 81.5532 32.8098 81.6852 34.6578V34.9218C81.8172 36.7698 80.3652 38.2218 78.5172 38.3538ZM63.8652 31.0938V33.4698H69.5412C69.4092 34.5258 69.0132 35.5818 68.2212 36.5058C67.0332 37.6938 65.4492 38.3538 63.8652 38.2218C60.3012 38.2218 57.5292 35.4498 57.5292 31.8858C57.5292 28.3218 60.3012 25.5498 63.8652 25.5498C65.4492 25.5498 67.0332 26.0778 68.2212 27.2658L69.9372 25.5498C68.3532 23.9658 66.2412 23.0418 63.9972 23.0418C59.2452 22.9098 55.1532 26.6058 54.8892 31.3578C54.7572 36.1098 58.4532 40.2018 63.2052 40.4658H63.8652C66.1092 40.5978 68.3532 39.6738 69.9372 38.0898C71.2572 36.5058 72.0492 34.5258 72.0492 32.5458C72.0492 32.0178 72.0492 31.4898 71.9172 31.0938H63.8652ZM123.793 32.9418C123.133 30.8298 121.153 29.5098 119.041 29.3778C116.137 29.3778 113.761 31.7538 113.761 34.6578V35.0538C113.761 38.0898 116.137 40.5978 119.173 40.5978H119.437C121.285 40.5978 123.133 39.6738 124.057 38.0898L122.209 36.7698C121.681 37.6938 120.625 38.3538 119.437 38.3538C118.249 38.3538 117.193 37.6938 116.665 36.6378L124.189 33.6018L123.793 32.9418ZM116.005 34.7898C115.873 33.0738 117.193 31.6218 118.909 31.4898C119.833 31.4898 120.625 31.8858 121.021 32.6778L116.005 34.7898ZM109.933 40.2018H112.441V23.7018H109.933V40.2018ZM105.973 30.5658C105.181 29.7738 103.993 29.2458 102.937 29.2458C99.9012 29.3778 97.3932 32.0178 97.6572 35.1858C97.7892 38.0898 100.165 40.3338 102.937 40.4658C104.125 40.4658 105.181 39.9378 105.841 39.1458H105.973V39.9378C105.973 42.0498 104.785 43.2378 102.937 43.2378C101.617 43.2378 100.561 42.4458 100.165 41.2578L98.0532 42.1818C98.8452 44.1618 100.825 45.4818 103.069 45.4818C105.973 45.4818 108.349 43.7658 108.349 39.6738V29.6418H106.105V30.5658H105.973ZM103.069 38.3538C101.221 38.2218 99.7692 36.5058 99.9012 34.6578C100.033 32.9418 101.353 31.7538 103.069 31.4898C104.785 31.6218 106.105 33.0738 106.105 34.7898V34.9218C106.237 36.6378 104.917 38.2218 103.201 38.3538H103.069ZM135.277 23.7018H129.337V40.2018H131.845V33.9978H135.277C138.049 34.2618 140.557 32.0178 140.821 29.2458C141.085 26.4738 138.841 23.9658 136.069 23.7018H135.277ZM135.277 31.6218H131.845V25.9458H135.409C136.993 25.9458 138.181 27.2658 138.181 28.7178C138.181 30.1698 136.861 31.6218 135.277 31.6218ZM150.457 29.2458C148.609 29.1138 146.893 30.1698 146.101 31.7538L148.345 32.6778C148.741 31.8858 149.665 31.3578 150.589 31.4898C151.909 31.3578 153.097 32.2818 153.229 33.6018V33.7338C152.437 33.3378 151.513 33.0738 150.721 33.0738C148.345 33.0738 145.969 34.3938 145.969 36.7698C146.101 38.8818 147.817 40.4658 149.929 40.4658H150.061C151.381 40.5978 152.569 39.9378 153.229 38.8818H153.361V40.2018H155.737V33.8658C155.605 30.9618 153.361 29.2458 150.457 29.2458ZM150.193 38.2218C149.401 38.2218 148.213 37.8258 148.213 36.7698C148.213 35.4498 149.665 35.0538 150.853 35.0538C151.645 35.0538 152.437 35.1858 153.097 35.5818C152.965 37.1658 151.777 38.3538 150.193 38.2218ZM164.185 29.6418L161.413 36.7698H161.281L158.377 29.6418H155.737L160.093 39.6738L157.585 45.2178H160.093L166.825 29.6418H164.185ZM142.009 40.2018H144.517V23.7018H142.009V40.2018Z" fill="white"/>
<path d="M14.6278 10.5C14.2318 11.028 13.9678 11.688 14.0998 12.348V41.52C14.0998 42.18 14.2318 42.84 14.7598 43.368L14.8918 43.5L31.2598 27.132V26.736L14.6278 10.5Z" fill="url(#paint0_linear_399_12593)"/>
<path d="M36.5409 32.677L31.1289 27.265V26.869L36.5409 21.457H36.6729L43.1409 25.153C44.9889 26.209 44.9889 27.925 43.1409 28.981L36.6729 32.677H36.5409Z" fill="url(#paint1_linear_399_12593)"/>
<path d="M36.6729 32.544L31.1289 27L14.6289 43.5C15.4209 44.16 16.6089 44.16 17.4009 43.632L36.6729 32.544Z" fill="url(#paint2_linear_399_12593)"/>
<path d="M36.6729 21.4569L17.4009 10.5009C16.6089 9.84086 15.4209 9.84086 14.6289 10.5009L31.1289 27.0009L36.6729 21.4569Z" fill="url(#paint3_linear_399_12593)"/>
<path opacity="0.2" d="M36.5409 32.4141L17.4009 43.2381C16.6089 43.7661 15.5529 43.7661 14.7609 43.2381L14.6289 43.3701L14.7609 43.5021C15.5529 44.0301 16.6089 44.0301 17.4009 43.5021L36.6729 32.5461L36.5409 32.4141Z" fill="black"/>
<path opacity="0.12" d="M14.6268 43.236C14.2308 42.708 13.9668 42.048 13.9668 41.388V41.652C13.9668 42.312 14.0988 42.972 14.6268 43.5V43.236ZM43.1388 28.716L36.5388 32.412L36.6708 32.544L43.1388 28.848C43.9308 28.452 44.3268 27.792 44.4588 27C44.3268 27.792 43.7988 28.32 43.1388 28.716Z" fill="black"/>
<path opacity="0.25" d="M17.3996 10.6312L43.1396 25.2832C43.7996 25.6792 44.3276 26.2072 44.4596 26.9992C44.3276 26.2072 43.9316 25.4152 43.1396 25.1512L17.3996 10.4992C15.5516 9.44317 14.0996 10.3672 14.0996 12.3472V12.4792C14.0996 10.4992 15.5516 9.57517 17.3996 10.6312Z" fill="white"/>
</g>
<defs>
<linearGradient id="paint0_linear_399_12593" x1="29.6784" y1="12.0998" x2="7.52881" y2="34.2494" gradientUnits="userSpaceOnUse">
<stop stop-color="#00A0FF"/>
<stop offset="0.01" stop-color="#00A1FF"/>
<stop offset="0.26" stop-color="#00BEFF"/>
<stop offset="0.51" stop-color="#00D2FF"/>
<stop offset="0.76" stop-color="#00DFFF"/>
<stop offset="1" stop-color="#00E3FF"/>
</linearGradient>
<linearGradient id="paint1_linear_399_12593" x1="45.5565" y1="27.001" x2="13.6257" y2="27.001" gradientUnits="userSpaceOnUse">
<stop stop-color="#FFE000"/>
<stop offset="0.41" stop-color="#FFBD00"/>
<stop offset="0.78" stop-color="#FFA500"/>
<stop offset="1" stop-color="#FF9C00"/>
</linearGradient>
<linearGradient id="paint2_linear_399_12593" x1="33.6739" y1="30.0334" x2="3.62935" y2="60.0634" gradientUnits="userSpaceOnUse">
<stop stop-color="#FF3A44"/>
<stop offset="1" stop-color="#C31162"/>
</linearGradient>
<linearGradient id="paint3_linear_399_12593" x1="10.5343" y1="0.842419" x2="23.9441" y2="14.2523" gradientUnits="userSpaceOnUse">
<stop stop-color="#32A071"/>
<stop offset="0.07" stop-color="#2DA771"/>
<stop offset="0.48" stop-color="#15CF74"/>
<stop offset="0.8" stop-color="#06E775"/>
<stop offset="1" stop-color="#00F076"/>
</linearGradient>
<clipPath id="clip0_399_12593">
<rect width="178.2" height="52.8" fill="white" transform="translate(0.900391 0.599976)"/>
</clipPath>
</defs>
</svg>
