<svg width="180" height="54" viewBox="0 0 180 54" fill="none" xmlns="http://www.w3.org/2000/svg">
<g clip-path="url(#clip0_18_1437)">
<path d="M7.49966 0.600098H172.5C176.196 0.600098 179.1 3.5041 179.1 7.2001V46.8001C179.1 50.4961 176.196 53.4001 172.5 53.4001H7.49966C3.80366 53.4001 0.899658 50.4961 0.899658 46.8001V7.2001C0.899658 3.5041 3.80366 0.600098 7.49966 0.600098Z" fill="#041E54"/>
<path d="M172.5 1.6561C175.536 1.6561 178.044 4.1641 178.044 7.2001V46.8001C178.044 49.8361 175.536 52.3441 172.5 52.3441H7.49966C4.46366 52.3441 1.95566 49.8361 1.95566 46.8001V7.2001C1.95566 4.1641 4.46366 1.6561 7.49966 1.6561H172.5ZM172.5 0.600098H7.49966C3.80366 0.600098 0.899658 3.5041 0.899658 7.2001V46.8001C0.899658 50.4961 3.80366 53.4001 7.49966 53.4001H172.5C176.196 53.4001 179.1 50.4961 179.1 46.8001V7.2001C179.1 3.5041 176.196 0.600098 172.5 0.600098Z" fill="#A6A6A6"/>
<path d="M63.4661 14.0642C63.4661 14.9882 63.2021 16.0442 62.4101 16.7042C61.6181 17.4962 60.5621 17.8922 59.5061 17.8922C57.2621 17.8922 55.4141 16.0442 55.4141 13.6682C55.4141 12.6122 55.8101 11.5562 56.6021 10.7642C57.3941 9.97217 58.4501 9.57617 59.5061 9.57617C60.0341 9.57617 60.5621 9.70817 61.0901 9.84017C61.6181 9.97217 62.0141 10.3682 62.2781 10.7642L61.6181 11.4242C61.0901 10.7642 60.2981 10.5002 59.5061 10.5002C57.7901 10.5002 56.4701 11.8202 56.4701 13.5362V13.6682C56.4701 15.3842 57.7901 16.8362 59.5061 16.8362C60.2981 16.8362 61.0901 16.5722 61.7501 15.9122C62.1461 15.5162 62.4101 14.8562 62.4101 14.3282H59.5061V13.5362H63.3341C63.4661 13.6682 63.4661 13.9322 63.4661 14.0642ZM69.5381 10.7642H65.9741V13.2722H69.2741V14.1962H65.9741V16.7042H69.5381V17.7602H64.9181V9.84017H69.5381V10.7642ZM73.8941 17.7602H72.8381V10.7642H70.5941V9.84017H76.1381V10.7642H73.8941V17.7602ZM79.9661 17.7602V9.84017H81.0221V17.7602H79.9661ZM85.5101 17.7602H84.4541V10.7642H82.2101V9.84017H87.6221V10.7642H85.3781L85.5101 17.7602ZM98.0501 16.7042C96.4661 18.2882 93.8261 18.2882 92.2421 16.7042C90.6581 15.1202 90.6581 12.4802 92.2421 10.8962C93.8261 9.31217 96.4661 9.31217 98.0501 10.8962C99.6341 12.4802 99.6341 15.1202 98.0501 16.7042ZM93.0341 16.0442C94.2221 17.2322 96.2021 17.2322 97.3901 16.0442C98.5781 14.7242 98.5781 12.7442 97.3901 11.5562C96.2021 10.3682 94.2221 10.3682 93.0341 11.5562C91.8461 12.8762 91.8461 14.7242 93.0341 16.0442ZM100.69 17.7602V9.84017H101.878L105.706 16.0442V9.84017H106.762V17.7602H105.706L101.614 11.2922V17.7602H100.69Z" fill="white" stroke="white" stroke-width="0.264" stroke-miterlimit="10"/>
<path d="M90.793 29.3778C87.757 29.3778 85.249 31.8858 85.249 35.0538C85.249 38.0898 87.757 40.5978 90.925 40.5978C93.961 40.5978 96.469 38.0898 96.469 35.0538C96.469 32.0178 94.093 29.5098 91.057 29.3778C90.925 29.2458 90.925 29.2458 90.793 29.3778ZM90.793 38.3538C88.945 38.4858 87.229 37.0338 87.097 35.1858C86.965 33.3378 88.417 31.6218 90.265 31.4898C92.113 31.3578 93.829 32.8098 93.961 34.6578V34.9218C94.093 36.7698 92.773 38.2218 90.793 38.3538C90.925 38.3538 90.925 38.3538 90.793 38.3538ZM78.517 29.3778C75.481 29.3778 72.973 31.8858 72.973 35.0538C72.973 38.0898 75.481 40.5978 78.649 40.5978C81.685 40.5978 84.193 38.0898 84.193 35.0538C84.193 32.0178 81.817 29.5098 78.781 29.3778C78.649 29.2458 78.649 29.2458 78.517 29.3778ZM78.517 38.3538C76.669 38.4858 74.953 37.0338 74.821 35.1858C74.689 33.3378 76.141 31.6218 77.989 31.4898C79.837 31.3578 81.553 32.8098 81.685 34.6578V34.9218C81.817 36.7698 80.365 38.2218 78.517 38.3538ZM63.865 31.0938V33.4698H69.541C69.409 34.5258 69.013 35.5818 68.221 36.5058C67.033 37.6938 65.449 38.3538 63.865 38.2218C60.301 38.2218 57.529 35.4498 57.529 31.8858C57.529 28.3218 60.301 25.5498 63.865 25.5498C65.449 25.5498 67.033 26.0778 68.221 27.2658L69.937 25.5498C68.353 23.9658 66.241 23.0418 63.997 23.0418C59.245 22.9098 55.153 26.6058 54.889 31.3578C54.757 36.1098 58.453 40.2018 63.205 40.4658H63.865C66.109 40.5978 68.353 39.6738 69.937 38.0898C71.257 36.5058 72.049 34.5258 72.049 32.5458C72.049 32.0178 72.049 31.4898 71.917 31.0938H63.865ZM123.793 32.9418C123.133 30.8298 121.153 29.5098 119.041 29.3778C116.137 29.3778 113.761 31.7538 113.761 34.6578V35.0538C113.761 38.0898 116.137 40.5978 119.173 40.5978H119.437C121.285 40.5978 123.133 39.6738 124.057 38.0898L122.209 36.7698C121.681 37.6938 120.625 38.3538 119.437 38.3538C118.249 38.3538 117.193 37.6938 116.665 36.6378L124.189 33.6018L123.793 32.9418ZM116.005 34.7898C115.873 33.0738 117.193 31.6218 118.909 31.4898C119.833 31.4898 120.625 31.8858 121.021 32.6778L116.005 34.7898ZM109.933 40.2018H112.441V23.7018H109.933V40.2018ZM105.973 30.5658C105.181 29.7738 103.993 29.2458 102.937 29.2458C99.901 29.3778 97.393 32.0178 97.657 35.1858C97.789 38.0898 100.165 40.3338 102.937 40.4658C104.125 40.4658 105.181 39.9378 105.841 39.1458H105.973V39.9378C105.973 42.0498 104.785 43.2378 102.937 43.2378C101.617 43.2378 100.561 42.4458 100.165 41.2578L98.053 42.1818C98.845 44.1618 100.825 45.4818 103.069 45.4818C105.973 45.4818 108.349 43.7658 108.349 39.6738V29.6418H106.105V30.5658H105.973ZM103.069 38.3538C101.221 38.2218 99.769 36.5058 99.901 34.6578C100.033 32.9418 101.353 31.7538 103.069 31.4898C104.785 31.6218 106.105 33.0738 106.105 34.7898V34.9218C106.237 36.6378 104.917 38.2218 103.201 38.3538H103.069ZM135.277 23.7018H129.337V40.2018H131.845V33.9978H135.277C138.049 34.2618 140.557 32.0178 140.821 29.2458C141.085 26.4738 138.841 23.9658 136.069 23.7018H135.277ZM135.277 31.6218H131.845V25.9458H135.409C136.993 25.9458 138.181 27.2658 138.181 28.7178C138.181 30.1698 136.861 31.6218 135.277 31.6218ZM150.457 29.2458C148.609 29.1138 146.893 30.1698 146.101 31.7538L148.345 32.6778C148.741 31.8858 149.665 31.3578 150.589 31.4898C151.909 31.3578 153.097 32.2818 153.229 33.6018V33.7338C152.437 33.3378 151.513 33.0738 150.721 33.0738C148.345 33.0738 145.969 34.3938 145.969 36.7698C146.101 38.8818 147.817 40.4658 149.929 40.4658H150.061C151.381 40.5978 152.569 39.9378 153.229 38.8818H153.361V40.2018H155.737V33.8658C155.605 30.9618 153.361 29.2458 150.457 29.2458ZM150.193 38.2218C149.401 38.2218 148.213 37.8258 148.213 36.7698C148.213 35.4498 149.665 35.0538 150.853 35.0538C151.645 35.0538 152.437 35.1858 153.097 35.5818C152.965 37.1658 151.777 38.3538 150.193 38.2218ZM164.185 29.6418L161.413 36.7698H161.281L158.377 29.6418H155.737L160.093 39.6738L157.585 45.2178H160.093L166.825 29.6418H164.185ZM142.009 40.2018H144.517V23.7018H142.009V40.2018Z" fill="white"/>
<path d="M14.6276 10.5C14.2316 11.028 13.9676 11.688 14.0996 12.348V41.52C14.0996 42.18 14.2316 42.84 14.7596 43.368L14.8916 43.5L31.2596 27.132V26.736L14.6276 10.5Z" fill="url(#paint0_linear_18_1437)"/>
<path d="M36.5402 32.677L31.1282 27.265V26.869L36.5402 21.457H36.6722L43.1402 25.153C44.9882 26.209 44.9882 27.925 43.1402 28.981L36.6722 32.677H36.5402Z" fill="url(#paint1_linear_18_1437)"/>
<path d="M36.6722 32.544L31.1282 27L14.6282 43.5C15.4202 44.16 16.6082 44.16 17.4002 43.632L36.6722 32.544Z" fill="url(#paint2_linear_18_1437)"/>
<path d="M36.6722 21.4569L17.4002 10.5009C16.6082 9.84086 15.4202 9.84086 14.6282 10.5009L31.1282 27.0009L36.6722 21.4569Z" fill="url(#paint3_linear_18_1437)"/>
<path opacity="0.2" d="M36.5402 32.4141L17.4002 43.2381C16.6082 43.7661 15.5522 43.7661 14.7602 43.2381L14.6282 43.3701L14.7602 43.5021C15.5522 44.0301 16.6082 44.0301 17.4002 43.5021L36.6722 32.5461L36.5402 32.4141Z" fill="black"/>
<path opacity="0.12" d="M14.6264 43.236C14.2304 42.708 13.9664 42.048 13.9664 41.388V41.652C13.9664 42.312 14.0984 42.972 14.6264 43.5V43.236ZM43.1384 28.716L36.5384 32.412L36.6704 32.544L43.1384 28.848C43.9304 28.452 44.3264 27.792 44.4584 27C44.3264 27.792 43.7984 28.32 43.1384 28.716Z" fill="black"/>
<path opacity="0.25" d="M17.3996 10.6314L43.1396 25.2834C43.7996 25.6794 44.3276 26.2074 44.4596 26.9994C44.3276 26.2074 43.9316 25.4154 43.1396 25.1514L17.3996 10.4994C15.5516 9.44341 14.0996 10.3674 14.0996 12.3474V12.4794C14.0996 10.4994 15.5516 9.57541 17.3996 10.6314Z" fill="white"/>
</g>
<defs>
<linearGradient id="paint0_linear_18_1437" x1="29.6782" y1="12.0998" x2="7.52862" y2="34.2494" gradientUnits="userSpaceOnUse">
<stop stop-color="#00A0FF"/>
<stop offset="0.01" stop-color="#00A1FF"/>
<stop offset="0.26" stop-color="#00BEFF"/>
<stop offset="0.51" stop-color="#00D2FF"/>
<stop offset="0.76" stop-color="#00DFFF"/>
<stop offset="1" stop-color="#00E3FF"/>
</linearGradient>
<linearGradient id="paint1_linear_18_1437" x1="45.5558" y1="27.001" x2="13.625" y2="27.001" gradientUnits="userSpaceOnUse">
<stop stop-color="#FFE000"/>
<stop offset="0.41" stop-color="#FFBD00"/>
<stop offset="0.78" stop-color="#FFA500"/>
<stop offset="1" stop-color="#FF9C00"/>
</linearGradient>
<linearGradient id="paint2_linear_18_1437" x1="33.6731" y1="30.0334" x2="3.62862" y2="60.0634" gradientUnits="userSpaceOnUse">
<stop stop-color="#FF3A44"/>
<stop offset="1" stop-color="#C31162"/>
</linearGradient>
<linearGradient id="paint3_linear_18_1437" x1="10.5335" y1="0.842419" x2="23.9434" y2="14.2523" gradientUnits="userSpaceOnUse">
<stop stop-color="#32A071"/>
<stop offset="0.07" stop-color="#2DA771"/>
<stop offset="0.48" stop-color="#15CF74"/>
<stop offset="0.8" stop-color="#06E775"/>
<stop offset="1" stop-color="#00F076"/>
</linearGradient>
<clipPath id="clip0_18_1437">
<rect width="178.2" height="52.8" fill="white" transform="translate(0.900024 0.600098)"/>
</clipPath>
</defs>
</svg>
