<svg width="32" height="32" viewBox="0 0 32 32" fill="none" xmlns="http://www.w3.org/2000/svg">
<mask id="mask0_2212_4503" style="mask-type:alpha" maskUnits="userSpaceOnUse" x="0" y="0" width="32" height="32">
<rect width="32" height="32" fill="black"/>
</mask>
<g mask="url(#mask0_2212_4503)">
<path d="M22.0771 21.5726L6.27637 30.6957C5.59943 31.0865 4.8515 31.1086 4.21094 30.8656L17.791 17.2865L22.0771 21.5726ZM16.5059 16.0013L2.87012 29.6361C2.72354 29.3264 2.6397 28.9763 2.63965 28.597V3.40369C2.63965 3.02491 2.72394 2.67502 2.87012 2.3656L16.5059 16.0013ZM28.0938 13.9008C29.7099 14.8338 29.7099 17.1659 28.0938 18.099L23.707 20.6302L19.0771 16.0004L23.708 11.3685L28.0938 13.9008ZM4.21094 1.13416C4.85149 0.891199 5.59944 0.913256 6.27637 1.30408L22.0791 10.4271L17.792 14.7152L4.21094 1.13416Z" fill="black"/>
</g>
</svg>
