<svg width="110" height="240" viewBox="0 0 110 240" fill="none" xmlns="http://www.w3.org/2000/svg">
<path d="M35.4588 52.0371C28.9754 68.5308 25.4859 86.0161 25.1507 103.689C24.8903 115.97 26.1811 128.231 28.9929 140.188C35.362 167.226 48.2261 190.8 67.5848 210.908C78.5746 222.266 91.3311 231.818 105.375 239.208C106.102 239.527 106.852 239.792 107.62 240L110 239.603L109.662 237.608C109.092 236.684 108.258 235.947 107.265 235.493C85.4326 224.297 67.3919 208.811 53.3285 188.852C45.3975 177.578 39.102 165.262 34.6245 152.262C31.3724 142.886 29.0718 133.213 27.7577 123.384C25.6767 108.036 26.0252 92.455 28.7905 77.1991C30.3378 68.5649 32.6692 60.0835 35.7563 51.8579C35.8408 51.6706 35.8543 51.4597 35.7946 51.2634C35.6829 51.5213 35.5602 51.7777 35.4588 52.0371ZM48.738 206.688C44.1981 205.877 39.7579 206.205 35.5984 208.425C35.1716 208.652 34.7603 208.898 34.1814 209.244C35.4073 210.666 36.509 212.065 37.7383 213.346C42.7313 218.565 48.6016 222.387 55.7952 223.952C60.209 224.914 64.5716 224.847 68.7468 222.82C70.4088 222.014 71.8738 220.861 73.0385 219.441C65.867 213.348 58.176 208.375 48.738 206.688ZM76.1605 178.784C73.5072 180.533 71.448 183.031 70.2529 185.95C68.5041 190.107 68.3639 194.393 69.4202 198.722C70.7954 204.347 73.8639 208.982 78.0974 212.907C78.2539 213.037 78.4143 213.148 78.6037 213.312C80.3108 211.332 81.5853 209.028 82.3472 206.541C83.8089 201.921 83.7067 197.254 82.6453 192.592C81.5518 187.885 79.5374 183.435 76.7146 179.494C76.5554 179.268 76.3705 179.052 76.1605 178.784ZM23.1117 177.947C20.8179 177.903 18.5393 178.339 16.4262 179.228C16.4848 179.441 16.5553 179.652 16.6368 179.858C19.8206 186.444 24.2958 191.932 30.6613 195.771C34.4076 198.018 38.4248 199.407 42.8624 199.369C45.784 199.394 48.6443 198.518 51.0418 196.863C51.2323 196.735 51.4109 196.592 51.5872 196.441C51.6601 196.372 51.7278 196.298 51.7892 196.219C47.6001 190.792 42.8437 186.04 36.9886 182.452C32.7411 179.849 28.2122 178.021 23.1117 177.947ZM63.5025 157.569C60.9604 158.604 58.7391 160.284 57.0648 162.438C53.8745 166.459 52.6599 171.113 52.8497 176.141C53.0617 181.662 55.0267 186.588 58.1998 191.081C58.282 191.197 58.3705 191.308 58.4644 191.413C58.4977 191.451 58.5613 191.466 58.6638 191.516C61.2193 189.485 63.233 186.867 64.5282 183.892C67.0046 178.328 67.3415 172.54 66.3217 166.622C65.7913 163.493 64.8434 160.449 63.5025 157.569ZM4.99586 147.534C5.55933 149.166 6.05273 150.823 6.70144 152.42C9.28901 158.826 13.1648 164.27 19.0274 168.163C22.5343 170.49 26.3666 171.862 30.667 171.686C32.5721 171.606 34.4382 171.117 36.1352 170.254C35.9287 169.807 35.7453 169.378 35.5343 168.964C32.2777 162.547 28.1642 156.767 22.4953 152.18C18.7449 149.146 14.5908 146.904 9.65413 146.54C8.08186 146.426 6.473 146.736 4.88192 146.851L4.99586 147.534ZM55.375 134.5C52.3852 135.109 49.6294 136.543 47.4289 138.636C43.2206 142.613 41.2989 147.608 40.9605 153.242C40.6799 157.917 41.6852 162.361 43.7591 166.85C45.2105 165.801 46.6712 164.907 47.9374 163.799C52.3894 159.908 54.7063 154.855 55.8018 149.193C56.6756 144.462 56.5766 139.608 55.5125 134.92C55.4918 134.817 55.4446 134.714 55.375 134.5ZM0 112.609C0.0677563 113.555 0.0969596 114.335 0.180196 115.113C1.02253 122.925 3.64216 130.004 9.15888 135.813C12.3152 139.142 16.078 141.486 20.7767 142.059C22.5929 142.312 24.4459 142.144 26.1876 141.569C25.379 139.16 24.6755 136.796 23.7953 134.502C21.755 129.189 18.9956 124.291 15.0771 120.095C11.9438 116.743 8.31339 114.14 3.71241 113.126C2.54761 112.871 1.34457 112.791 0 112.609ZM51.9064 110.427C48.751 110.41 45.6638 111.35 43.0617 113.119C37.7394 116.663 34.9132 121.787 33.7445 127.876C32.9916 131.784 33.2155 135.671 34.1655 139.645C36.5353 139.041 38.7624 137.981 40.7181 136.525C45.3267 133.166 48.2318 128.61 50.0759 123.334C51.4571 119.324 52.1029 115.105 51.9821 110.876C51.9671 110.725 51.9416 110.574 51.9064 110.427ZM53.2985 85.9907C50.2347 85.3678 47.0488 85.6736 44.1589 86.8677C37.6378 89.5535 33.7209 94.5664 31.5002 101.013C30.3893 104.337 29.9204 107.835 30.1175 111.326C31.4285 111.109 32.7028 111.013 33.9195 110.675C39.7773 109.036 44.1213 105.383 47.5179 100.523C50.572 96.1524 52.4061 91.2955 53.2985 85.9907ZM1.69118 78.2064C1.59634 80.955 1.35513 83.6153 1.44881 86.2625C1.64132 91.9291 2.99825 97.3101 5.9912 102.215C8.34502 106.063 11.4103 109.167 15.7356 110.849C17.6742 111.609 19.7679 111.91 21.848 111.729C21.7327 110.418 21.6464 109.123 21.4959 107.844C20.6528 100.67 18.7303 93.8281 14.7451 87.6879C12.0828 83.5885 8.68619 80.2993 3.89345 78.6852C3.37933 78.5114 2.83426 78.3921 2.31904 78.2518C2.11121 78.2226 1.90117 78.2076 1.69118 78.2064ZM52.2405 60.9089C45.1751 61.6141 40.0514 65.4006 36.1727 71.0419C33.9014 74.4108 32.4013 78.2265 31.7753 82.2222C31.7506 82.356 31.7298 82.4961 31.6857 82.8359C33.3294 82.7922 34.9064 82.8721 36.4491 82.6889C42.675 81.9404 47.6425 78.8342 51.8672 74.4121C55.293 70.8508 57.7684 66.6799 59.5818 62.0434C57.275 61.0525 54.7471 60.6619 52.2405 60.9089ZM10.6773 44.0797C10.0058 46.6847 9.28464 49.0123 8.81712 51.3871C7.74309 56.8153 7.82333 62.235 9.42666 67.5542C10.9386 72.5492 13.4806 76.8541 18.1282 79.6726C19.8016 80.6786 21.685 81.2969 23.6373 81.4806C23.8081 78.2007 24.0822 75.0363 24.1075 71.8736C24.1699 67.4954 23.5703 63.1335 22.3278 58.9336C20.8737 54.1218 18.686 49.7413 14.591 46.5616C13.4564 45.6829 12.1571 45.0074 10.6773 44.0797ZM65.7183 37.0667C60.3412 35.9054 55.3995 37.1618 50.8212 39.957C45.2329 43.3621 41.5116 48.296 39.1735 54.303C39.1473 54.3955 39.1273 54.4902 39.1155 54.5857C41.3729 55.3452 43.7595 55.668 46.143 55.5361C53.4916 55.153 59.4209 51.7305 64.6408 46.8737C67.0287 44.6168 69.1233 42.0749 70.8755 39.308C69.3329 38.2165 67.5768 37.4535 65.7183 37.0667ZM26.7775 12.217C25.0267 14.9319 23.5914 17.8326 22.4993 20.8638C20.4653 26.5544 19.6159 32.3745 20.7837 38.3511C21.6848 42.9589 23.6171 47.0427 27.5879 49.8839C28.6872 50.652 29.9301 51.2144 31.2168 51.9149C32.6001 48.2151 33.6357 44.3979 34.311 40.5127C35.2478 35.0708 35.5008 29.6257 34.3171 24.1969C33.3601 19.7979 31.4962 15.8786 27.8943 12.9462C27.6487 12.7476 27.3982 12.559 27.1416 12.3756C27.0246 12.3138 26.9025 12.261 26.7775 12.217ZM68.0875 0.226799C66.5389 0.816504 64.9382 1.27794 63.4441 1.9716C56.8001 5.07007 51.7373 9.90115 47.8563 15.9917C45.0129 20.4536 43.0912 25.251 42.6919 30.5437C42.5584 32.2781 42.6915 34.0316 42.7049 35.778L43.0229 35.9082C44.6311 34.8497 46.294 33.8554 47.8445 32.7137C58.8664 24.6056 66.0257 13.9503 69.3236 0.748732C69.3839 0.506077 69.4088 0.249622 69.4513 0L68.0875 0.226799Z" fill="url(#paint0_linear_18_1057)"/>
<defs>
<linearGradient id="paint0_linear_18_1057" x1="66.4678" y1="246.807" x2="26.8044" y2="7.0553" gradientUnits="userSpaceOnUse">
<stop stop-color="#FFB516"/>
<stop offset="1" stop-color="#FFB515"/>
</linearGradient>
</defs>
</svg>
