<svg width="90" height="196" viewBox="0 0 90 196" fill="none" xmlns="http://www.w3.org/2000/svg">
<path d="M29.0117 42.497C23.7071 55.9668 20.8521 70.2465 20.5778 84.6797C20.3648 94.7088 21.4209 104.722 23.7214 114.487C28.9325 136.568 39.4577 155.82 55.2966 172.242C64.2883 181.517 74.7255 189.318 86.2156 195.353C86.8103 195.613 87.4243 195.83 88.0526 196L90 195.676L89.7231 194.047C89.2571 193.292 88.5748 192.69 87.7621 192.319C69.8994 183.176 55.1388 170.529 43.6324 154.229C37.1434 145.022 31.9925 134.964 28.3291 124.347C25.6683 116.691 23.786 108.791 22.7109 100.764C21.0082 88.2293 21.2933 75.5049 23.5558 63.0459C24.8218 55.9947 26.7293 49.0682 29.2552 42.3506C29.3243 42.1976 29.3353 42.0254 29.2865 41.8651C29.1951 42.0757 29.0947 42.2851 29.0117 42.497ZM39.8766 168.795C36.1621 168.132 32.5292 168.401 29.126 170.214C28.7767 170.399 28.4402 170.6 27.9666 170.882C28.9696 172.044 29.871 173.187 30.8768 174.233C34.962 178.495 39.765 181.616 45.6506 182.894C49.2619 183.68 52.8313 183.625 56.2474 181.97C57.6072 181.312 58.8058 180.37 59.7588 179.21C53.8912 174.234 47.5986 170.173 39.8766 168.795ZM62.3131 146.007C60.1423 147.435 58.4575 149.475 57.4796 151.859C56.0488 155.254 55.9341 158.754 56.7984 162.29C57.9235 166.884 60.4341 170.669 63.8978 173.874C64.0259 173.98 64.1571 174.07 64.3121 174.205C65.7089 172.588 66.7516 170.706 67.375 168.675C68.5709 164.902 68.4873 161.091 67.6188 157.284C66.7242 153.439 65.076 149.805 62.7665 146.586C62.6362 146.402 62.485 146.226 62.3131 146.007ZM18.9096 145.324C17.0329 145.288 15.1685 145.644 13.4396 146.369C13.4875 146.544 13.5453 146.716 13.6119 146.884C16.2168 152.262 19.8784 156.744 25.0865 159.879C28.1517 161.714 31.4385 162.849 35.0692 162.818C37.4597 162.838 39.7998 162.123 41.7615 160.771C41.9173 160.667 42.0635 160.55 42.2077 160.427C42.2673 160.371 42.3227 160.31 42.373 160.246C38.9455 155.814 35.054 151.933 30.2634 149.002C26.7881 146.877 23.0827 145.384 18.9096 145.324ZM51.9566 128.681C49.8767 129.526 48.0593 130.898 46.6893 132.658C44.0791 135.941 43.0854 139.742 43.2407 143.849C43.4141 148.357 45.0218 152.381 47.618 156.049C47.6853 156.144 47.7576 156.235 47.8345 156.32C47.8618 156.352 47.9138 156.364 47.9976 156.405C50.0885 154.746 51.7361 152.608 52.7958 150.179C54.8219 145.634 55.0976 140.908 54.2632 136.075C53.8293 133.52 53.0537 131.034 51.9566 128.681ZM4.08752 120.486C4.54854 121.819 4.95224 123.172 5.483 124.477C7.6001 129.708 10.7712 134.154 15.5678 137.333C18.4372 139.233 21.5727 140.354 25.0912 140.21C26.6499 140.145 28.1767 139.745 29.5652 139.041C29.3962 138.675 29.2461 138.326 29.0735 137.988C26.409 132.747 23.0435 128.027 18.4053 124.281C15.3367 121.803 11.938 119.971 7.89883 119.674C6.61243 119.581 5.29609 119.834 3.9943 119.928L4.08752 120.486ZM45.3068 109.841C42.8606 110.339 40.6059 111.51 38.8055 113.219C35.3623 116.467 33.79 120.546 33.5131 125.148C33.2836 128.965 34.1061 132.595 35.8029 136.261C36.9904 135.404 38.1856 134.674 39.2215 133.769C42.8641 130.591 44.7597 126.465 45.6561 121.841C46.3709 117.977 46.29 114.013 45.4193 110.184C45.4024 110.1 45.3638 110.017 45.3068 109.841ZM0 91.9643C0.0554369 92.7369 0.0793306 93.3736 0.147433 94.0085C0.836615 100.389 2.97995 106.17 7.49363 110.914C10.0761 113.633 13.1548 115.547 16.9991 116.015C18.4851 116.222 20.0012 116.085 21.4262 115.615C20.7646 113.647 20.1891 111.717 19.4689 109.843C17.7995 105.504 15.5418 101.505 12.3358 98.0777C9.7722 95.3397 6.80186 93.2144 3.03743 92.386C2.08441 92.1776 1.1001 92.113 0 91.9643ZM42.4689 90.1817C39.8872 90.1684 37.3613 90.9357 35.2323 92.3805C30.8777 95.2747 28.5654 99.4594 27.6091 104.432C26.9931 107.624 27.1763 110.798 27.9536 114.044C29.8925 113.55 31.7147 112.684 33.3148 111.496C37.0855 108.752 39.4624 105.032 40.9712 100.723C42.1013 97.4482 42.6297 94.0028 42.5308 90.5486C42.5185 90.4252 42.4977 90.3025 42.4689 90.1817ZM43.6079 70.2257C41.1011 69.7171 38.4945 69.9668 36.13 70.9419C30.7946 73.1353 27.5898 77.2293 25.7729 82.4939C24.864 85.2084 24.4803 88.0654 24.6416 90.9166C25.7142 90.7387 26.7569 90.6606 27.7523 90.3842C32.5451 89.0465 36.0992 86.0627 38.8783 82.0939C41.3771 78.5244 42.8778 74.558 43.6079 70.2257ZM1.38369 63.8686C1.3061 66.1133 1.10874 68.2858 1.18539 70.4477C1.3429 75.0754 2.45312 79.4699 4.90189 83.4759C6.82774 86.6183 9.33572 89.1534 12.8746 90.5268C14.4607 91.1474 16.1737 91.3931 17.8756 91.245C17.7813 90.1748 17.7107 89.1168 17.5876 88.0729C16.8978 82.214 15.3248 76.6263 12.0641 71.6118C9.88594 68.264 7.10688 65.5778 3.18555 64.2595C2.76491 64.1177 2.31894 64.0202 1.89739 63.9057C1.72736 63.8818 1.5555 63.8695 1.38369 63.8686ZM42.7422 49.7423C36.9615 50.3181 32.7693 53.4104 29.5959 58.0176C27.7375 60.7688 26.5102 63.8849 25.998 67.1481C25.9777 67.2574 25.9608 67.3718 25.9247 67.6493C27.2695 67.6136 28.5598 67.6789 29.822 67.5293C34.9159 66.918 38.9803 64.3813 42.4368 60.7699C45.2397 57.8615 47.2651 54.4552 48.7488 50.6687C46.8613 49.8595 44.793 49.5405 42.7422 49.7423ZM8.73597 35.9984C8.18655 38.1259 7.59652 40.0267 7.21401 41.9661C6.33526 46.3991 6.40091 50.8253 7.71272 55.1692C8.94975 59.2485 11.0296 62.7642 14.8321 65.066C16.2013 65.8875 17.7423 66.3925 19.3396 66.5424C19.4793 63.8639 19.7036 61.2796 19.7243 58.6968C19.7754 55.1212 19.2848 51.5591 18.2682 48.1291C17.0785 44.1995 15.2885 40.622 11.9381 38.0253C11.0098 37.3077 9.94673 36.756 8.73597 35.9984ZM53.7695 30.2712C49.3701 29.3227 45.3269 30.3488 41.581 32.6316C37.0088 35.4124 33.964 39.4418 32.0511 44.3474C32.0296 44.423 32.0132 44.5004 32.0036 44.5783C33.8506 45.1986 35.8032 45.4622 37.7533 45.3545C43.7658 45.0416 48.6171 42.2466 52.888 38.2802C54.8417 36.4371 56.5554 34.3612 57.989 32.1015C56.7269 31.2101 55.2901 30.587 53.7695 30.2712ZM21.9089 9.97718C20.4764 12.1944 19.3021 14.5633 18.4086 17.0388C16.7443 21.6861 16.0494 26.4392 17.0048 31.32C17.7421 35.0831 19.3231 38.4182 22.5719 40.7385C23.4713 41.3658 24.4883 41.8251 25.541 42.3972C26.6728 39.3757 27.5201 36.2583 28.0726 33.0854C28.8391 28.6411 29.0461 24.1943 28.0776 19.7608C27.2946 16.1683 25.7696 12.9675 22.8226 10.5728C22.6217 10.4106 22.4167 10.2566 22.2068 10.1067C22.111 10.0563 22.0111 10.0132 21.9089 9.97718ZM55.708 0.185219C54.4409 0.666812 53.1312 1.04365 51.9088 1.61014C46.4728 4.14055 42.3305 8.08594 39.1552 13.0599C36.8287 16.7038 35.2564 20.6217 34.9298 24.944C34.8205 26.3604 34.9294 27.7925 34.9403 29.2187L35.2006 29.3251C36.5163 28.4606 37.8769 27.6486 39.1455 26.7162C48.1634 20.0946 54.021 11.3928 56.7193 0.611465C56.7687 0.413296 56.789 0.203858 56.8238 0L55.708 0.185219Z" fill="url(#paint0_linear_18_1061)"/>
<defs>
<linearGradient id="paint0_linear_18_1061" x1="54.3827" y1="201.559" x2="22.0477" y2="5.74253" gradientUnits="userSpaceOnUse">
<stop stop-color="#FFB516"/>
<stop offset="1" stop-color="#FFB515"/>
</linearGradient>
</defs>
</svg>
