<svg width="191" height="20" viewBox="0 0 191 20" fill="none" xmlns="http://www.w3.org/2000/svg">
<path d="M21.3711 12.5V4H25.2567V12.5C25.2567 14.433 26.7789 16 28.6566 16C30.5343 16 32.0565 14.433 32.0565 12.5V4H35.9421V12.5C35.9421 16.6421 32.6803 20 28.6566 20C24.6329 20 21.3711 16.6421 21.3711 12.5Z" fill="#041E54"/>
<path d="M16.4566 8.5C17.5612 8.5 18.4566 9.39543 18.4566 10.5C18.4566 15.7467 14.3249 20 9.22829 20C4.13165 20 0 15.7467 0 10.5C0 5.25329 4.13165 1 9.22829 1H15.5424C15.5424 3.20914 13.7515 5 11.5424 5H9.22829C6.2776 5 3.8856 7.46243 3.8856 10.5C3.8856 13.5376 6.2776 16 9.22829 16C11.4933 16 13.4275 14.5483 14.2048 12.5H9.71399V11.997C9.71399 10.0657 11.2797 8.5 13.211 8.5H16.4566Z" fill="#00CC91"/>
<rect x="37.8848" width="3.8856" height="20" fill="#041E54"/>
<rect x="78.6836" width="3.8856" height="20" fill="#041E54"/>
<path d="M180.111 4.86621C181.126 4.31382 182.283 4.00006 183.511 4C187.534 4 190.797 7.35786 190.797 11.5V20H186.911V11.5C186.911 9.567 185.388 8 183.511 8C181.633 8.00019 180.111 9.56712 180.111 11.5V20H176.226V0H180.111V4.86621Z" fill="#041E54"/>
<path d="M140.853 4H135.024V20H131.139V4H125.311V0H140.853V4Z" fill="#041E54"/>
<path d="M55.3697 12C55.3697 9.79086 53.63 8 51.4841 8C49.3381 8 47.5985 9.79086 47.5985 12C47.5985 14.2091 49.3381 16 51.4841 16C53.63 16 55.3697 14.2091 55.3697 12ZM59.2553 12C59.2553 16.4183 55.776 20 51.4841 20C47.1922 20 43.7129 16.4183 43.7129 12C43.7129 7.58172 47.1922 4 51.4841 4C55.776 4 59.2553 7.58172 59.2553 12Z" fill="#041E54"/>
<path d="M96.1685 12C96.1685 9.79086 94.4289 8 92.2829 8C90.137 8 88.3973 9.79086 88.3973 12C88.3973 14.2091 90.137 16 92.2829 16C94.4289 16 96.1685 14.2091 96.1685 12ZM100.054 12C100.054 16.4183 96.5748 20 92.2829 20C87.991 20 84.5117 16.4183 84.5117 12C84.5117 7.58172 87.991 4 92.2829 4C96.5748 4 100.054 7.58172 100.054 12Z" fill="#041E54"/>
<path d="M72.855 12C72.855 9.79086 71.1154 8 68.9694 8C66.8235 8 65.0838 9.79086 65.0838 12C65.0838 14.2091 66.8235 16 68.9694 16C71.1154 16 72.855 14.2091 72.855 12ZM76.7406 12C76.7406 16.4183 73.2613 20 68.9694 20C64.6775 20 61.1982 16.4183 61.1982 12C61.1982 7.58172 64.6775 4 68.9694 4C73.2613 4 76.7406 7.58172 76.7406 12Z" fill="#041E54"/>
<path d="M113.654 12C113.654 9.79086 111.914 8 109.768 8C107.622 8 105.883 9.79086 105.883 12C105.883 14.2091 107.622 16 109.768 16C111.914 16 113.654 14.2091 113.654 12ZM117.539 12C117.539 16.4183 114.06 20 109.768 20C105.476 20 101.997 16.4183 101.997 12C101.997 7.58172 105.476 4 109.768 4C114.06 4 117.539 7.58172 117.539 12Z" fill="#041E54"/>
<path d="M149.596 4C153.887 4.00016 157.366 7.58182 157.366 12C157.366 12.3384 157.345 12.672 157.305 13H145.832C146.263 14.7253 147.785 16 149.596 16C150.583 15.9999 151.48 15.6238 152.166 15H156.798C156.72 15.1977 156.637 15.3925 156.545 15.582C156.104 16.4882 155.501 17.2953 154.776 17.9629C153.403 19.2282 151.585 19.9999 149.596 20C145.304 20 141.824 16.4183 141.824 12C141.824 7.58172 145.304 4 149.596 4ZM149.596 8C148.158 8 146.903 8.80478 146.231 10H152.96C152.288 8.80484 151.034 8.00011 149.596 8Z" fill="#041E54"/>
<path d="M167.081 4C170.702 4.00014 173.745 6.5496 174.607 10H170.445C169.773 8.80477 168.519 8.00011 167.081 8C164.935 8 163.195 9.79086 163.195 12C163.195 14.2091 164.935 16 167.081 16C168.077 15.9999 168.982 15.6168 169.671 14.9824C169.977 14.6999 170.239 14.3674 170.445 14H174.604C174.465 14.552 174.274 15.0822 174.03 15.582C173.589 16.4882 172.986 17.2953 172.262 17.9629C170.888 19.2282 169.07 19.9999 167.081 20C162.789 20 159.31 16.4183 159.31 12C159.31 7.58172 162.789 4 167.081 4Z" fill="#041E54"/>
</svg>
