<svg width="110" height="240" viewBox="0 0 110 240" fill="none" xmlns="http://www.w3.org/2000/svg">
<path d="M74.5412 52.0371C81.0246 68.5308 84.5141 86.0161 84.8493 103.689C85.1097 115.97 83.8189 128.231 81.0071 140.188C74.638 167.226 61.7739 190.8 42.4152 210.908C31.4254 222.266 18.6689 231.818 4.62532 239.208C3.89847 239.527 3.14803 239.792 2.38009 240L2.65581e-06 239.603L0.33841 237.608C0.907944 236.684 1.74189 235.947 2.73524 235.493C24.5674 224.297 42.6081 208.81 56.6715 188.852C64.6025 177.578 70.898 165.262 75.3755 152.262C78.6276 142.886 80.9282 133.213 82.2423 123.384C84.3233 108.036 83.9748 92.455 81.2095 77.1991C79.6622 68.5649 77.3308 60.0835 74.2437 51.8579C74.1592 51.6706 74.1457 51.4597 74.2054 51.2634C74.3171 51.5213 74.4398 51.7777 74.5412 52.0371ZM61.262 206.688C65.8019 205.877 70.2421 206.205 74.4016 208.425C74.8284 208.652 75.2397 208.898 75.8186 209.244C74.5927 210.666 73.491 212.065 72.2617 213.346C67.2687 218.565 61.3984 222.387 54.2048 223.952C49.791 224.914 45.4284 224.847 41.2531 222.82C39.5912 222.014 38.1262 220.861 36.9615 219.441C44.133 213.348 51.824 208.375 61.262 206.688ZM33.8395 178.784C36.4928 180.533 38.552 183.031 39.7471 185.95C41.4959 190.107 41.6361 194.393 40.5798 198.722C39.2046 204.347 36.1361 208.982 31.9026 212.907C31.7461 213.037 31.5857 213.148 31.3963 213.312C29.6892 211.332 28.4147 209.028 27.6528 206.541C26.1911 201.921 26.2933 197.254 27.3547 192.592C28.4482 187.885 30.4626 183.435 33.2854 179.494C33.4446 179.268 33.6295 179.052 33.8395 178.784ZM86.8883 177.947C89.1821 177.903 91.4607 178.339 93.5738 179.228C93.5152 179.441 93.4447 179.652 93.3632 179.858C90.1794 186.444 85.7042 191.932 79.3387 195.771C75.5924 198.018 71.5752 199.407 67.1376 199.369C64.216 199.394 61.3557 198.518 58.9582 196.863C58.7677 196.735 58.5891 196.592 58.4128 196.441C58.3399 196.372 58.2722 196.298 58.2108 196.219C62.3999 190.792 67.1563 186.04 73.0114 182.452C77.2589 179.849 81.7878 178.021 86.8883 177.947ZM46.4975 157.569C49.0396 158.604 51.2609 160.284 52.9352 162.438C56.1255 166.459 57.3401 171.113 57.1503 176.141C56.9383 181.662 54.9733 186.588 51.8002 191.081C51.718 191.197 51.6295 191.308 51.5356 191.413C51.5023 191.451 51.4387 191.466 51.3362 191.516C48.7807 189.485 46.767 186.867 45.4718 183.892C42.9954 178.328 42.6585 172.54 43.6783 166.622C44.2087 163.493 45.1566 160.449 46.4975 157.569ZM105.004 147.534C104.441 149.166 103.947 150.823 103.299 152.42C100.711 158.826 96.8352 164.27 90.9726 168.163C87.4657 170.49 83.6334 171.862 79.333 171.686C77.4279 171.606 75.5618 171.117 73.8648 170.254C74.0713 169.807 74.2547 169.378 74.4657 168.964C77.7223 162.547 81.8358 156.767 87.5047 152.18C91.2551 149.146 95.4092 146.904 100.346 146.54C101.918 146.426 103.527 146.736 105.118 146.851L105.004 147.534ZM54.625 134.5C57.6148 135.109 60.3706 136.543 62.5711 138.636C66.7794 142.613 68.7011 147.608 69.0395 153.242C69.3201 157.917 68.3148 162.361 66.2409 166.85C64.7895 165.801 63.3288 164.907 62.0626 163.799C57.6106 159.908 55.2937 154.855 54.1981 149.193C53.3244 144.462 53.4234 139.608 54.4875 134.92C54.5082 134.817 54.5554 134.714 54.625 134.5ZM110 112.609C109.932 113.555 109.903 114.335 109.82 115.113C108.977 122.925 106.358 130.004 100.841 135.813C97.6848 139.142 93.922 141.486 89.2233 142.059C87.4071 142.312 85.5541 142.144 83.8124 141.569C84.621 139.16 85.3245 136.796 86.2047 134.502C88.245 129.189 91.0044 124.291 94.9229 120.095C98.0562 116.743 101.687 114.14 106.288 113.126C107.452 112.871 108.655 112.791 110 112.609ZM58.0936 110.427C61.249 110.41 64.3362 111.35 66.9383 113.119C72.2606 116.663 75.0868 121.787 76.2555 127.876C77.0084 131.784 76.7845 135.671 75.8345 139.646C73.4647 139.041 71.2376 137.981 69.2819 136.525C64.6733 133.166 61.7682 128.61 59.9241 123.334C58.5429 119.324 57.8971 115.105 58.0179 110.876C58.0329 110.725 58.0584 110.574 58.0936 110.427ZM56.7015 85.9907C59.7653 85.3678 62.9512 85.6736 65.8411 86.8677C72.3622 89.5535 76.2791 94.5664 78.4998 101.013C79.6107 104.337 80.0796 107.835 79.8825 111.326C78.5715 111.109 77.2972 111.013 76.0805 110.675C70.2227 109.036 65.8787 105.383 62.4821 100.523C59.428 96.1524 57.5939 91.2955 56.7015 85.9907ZM108.309 78.2064C108.404 80.955 108.645 83.6153 108.551 86.2625C108.359 91.9291 107.002 97.3101 104.009 102.215C101.655 106.063 98.5897 109.167 94.2644 110.849C92.3258 111.609 90.2321 111.91 88.152 111.729C88.2673 110.418 88.3536 109.123 88.5041 107.844C89.3472 100.67 91.2697 93.8281 95.2549 87.6879C97.9172 83.5886 101.314 80.2993 106.107 78.6852C106.621 78.5114 107.166 78.3921 107.681 78.2518C107.889 78.2226 108.099 78.2076 108.309 78.2064ZM57.7595 60.9089C64.8249 61.6141 69.9486 65.4006 73.8273 71.0419C76.0986 74.4108 77.5987 78.2265 78.2247 82.2222C78.2494 82.356 78.2702 82.4961 78.3143 82.8359C76.6706 82.7922 75.0936 82.8721 73.5509 82.6889C67.325 81.9404 62.3575 78.8342 58.1328 74.4121C54.707 70.8508 52.2316 66.6799 50.4182 62.0434C52.725 61.0525 55.2529 60.6619 57.7595 60.9089ZM99.3227 44.0797C99.9942 46.6847 100.715 49.0123 101.183 51.3871C102.257 56.8153 102.177 62.235 100.573 67.5542C99.0614 72.5492 96.5194 76.8541 91.8718 79.6726C90.1984 80.6786 88.315 81.2969 86.3627 81.4806C86.1919 78.2007 85.9178 75.0363 85.8925 71.8736C85.8301 67.4954 86.4297 63.1335 87.6722 58.9336C89.1263 54.1218 91.314 49.7413 95.409 46.5616C96.5436 45.6829 97.8429 45.0074 99.3227 44.0797ZM44.2817 37.0667C49.6588 35.9054 54.6005 37.1618 59.1788 39.957C64.7671 43.3621 68.4884 48.296 70.8265 54.303C70.8527 54.3955 70.8727 54.4902 70.8845 54.5857C68.6271 55.3452 66.2405 55.668 63.857 55.5361C56.5084 55.153 50.5791 51.7305 45.3592 46.8737C42.9713 44.6168 40.8767 42.0749 39.1245 39.308C40.6671 38.2165 42.4232 37.4535 44.2817 37.0667ZM83.2225 12.217C84.9733 14.9319 86.4086 17.8326 87.5007 20.8638C89.5347 26.5544 90.3841 32.3745 89.2163 38.3511C88.3152 42.9589 86.3829 47.0427 82.4121 49.8839C81.3128 50.652 80.0699 51.2144 78.7832 51.9149C77.3999 48.2151 76.3643 44.3979 75.689 40.5127C74.7522 35.0708 74.4992 29.6257 75.6829 24.1969C76.6399 19.7979 78.5038 15.8786 82.1057 12.9462C82.3513 12.7476 82.6018 12.559 82.8584 12.3756C82.9754 12.3138 83.0975 12.261 83.2225 12.217ZM41.9125 0.226799C43.4611 0.816504 45.0618 1.27794 46.5559 1.9716C53.1999 5.07007 58.2627 9.90115 62.1437 15.9917C64.9871 20.4536 66.9088 25.251 67.3081 30.5437C67.4416 32.2781 67.3085 34.0316 67.2951 35.778L66.9771 35.9082C65.3689 34.8497 63.706 33.8554 62.1555 32.7137C51.1336 24.6056 43.9743 13.9503 40.6764 0.748732C40.6161 0.506077 40.5912 0.249622 40.5487 0L41.9125 0.226799Z" fill="url(#paint0_linear_18_1058)"/>
<defs>
<linearGradient id="paint0_linear_18_1058" x1="43.5322" y1="246.807" x2="83.1956" y2="7.0553" gradientUnits="userSpaceOnUse">
<stop stop-color="#FFB516"/>
<stop offset="1" stop-color="#FFB515"/>
</linearGradient>
</defs>
</svg>
