<svg width="90" height="196" viewBox="0 0 90 196" fill="none" xmlns="http://www.w3.org/2000/svg">
<path d="M60.9883 42.497C66.2929 55.9668 69.1479 70.2465 69.4222 84.6797C69.6352 94.7088 68.5791 104.722 66.2786 114.487C61.0675 136.568 50.5423 155.82 34.7034 172.242C25.7117 181.517 15.2745 189.318 3.78436 195.353C3.18966 195.613 2.57566 195.83 1.94735 196L2.79961e-06 195.676L0.276881 194.047C0.742864 193.292 1.42518 192.69 2.23793 192.319C20.1006 183.176 34.8612 170.529 46.3676 154.229C52.8566 145.022 58.0075 134.964 61.6709 124.347C64.3317 116.691 66.214 108.791 67.2891 100.764C68.9918 88.2293 68.7067 75.5049 66.4442 63.0459C65.1782 55.9947 63.2707 49.0682 60.7448 42.3506C60.6757 42.1976 60.6647 42.0254 60.7135 41.8651C60.8049 42.0757 60.9053 42.2851 60.9883 42.497ZM50.1234 168.795C53.8379 168.132 57.4708 168.401 60.874 170.214C61.2233 170.399 61.5598 170.6 62.0334 170.882C61.0304 172.044 60.129 173.187 59.1232 174.233C55.038 178.495 50.235 181.616 44.3494 182.894C40.7381 183.68 37.1687 183.625 33.7526 181.97C32.3928 181.312 31.1942 180.37 30.2412 179.21C36.1088 174.234 42.4014 170.173 50.1234 168.795ZM27.6869 146.007C29.8577 147.435 31.5425 149.475 32.5204 151.859C33.9512 155.254 34.0659 158.754 33.2016 162.29C32.0765 166.884 29.5659 170.669 26.1022 173.874C25.9741 173.98 25.8429 174.07 25.6879 174.205C24.2911 172.588 23.2484 170.706 22.625 168.675C21.4291 164.902 21.5127 161.091 22.3812 157.284C23.2758 153.439 24.924 149.805 27.2335 146.586C27.3638 146.402 27.515 146.226 27.6869 146.007ZM71.0904 145.324C72.9671 145.288 74.8315 145.644 76.5604 146.369C76.5125 146.544 76.4547 146.716 76.3881 146.884C73.7832 152.262 70.1216 156.744 64.9135 159.879C61.8483 161.714 58.5615 162.849 54.9308 162.818C52.5403 162.838 50.2002 162.123 48.2385 160.771C48.0827 160.667 47.9365 160.55 47.7923 160.427C47.7327 160.371 47.6773 160.31 47.627 160.246C51.0545 155.814 54.946 151.933 59.7366 149.002C63.2119 146.877 66.9173 145.384 71.0904 145.324ZM38.0434 128.681C40.1233 129.526 41.9407 130.898 43.3107 132.658C45.9209 135.941 46.9146 139.742 46.7593 143.849C46.5859 148.357 44.9782 152.381 42.382 156.049C42.3147 156.144 42.2424 156.235 42.1655 156.32C42.1382 156.352 42.0862 156.364 42.0024 156.405C39.9115 154.746 38.2639 152.608 37.2042 150.179C35.1781 145.634 34.9024 140.908 35.7368 136.075C36.1707 133.52 36.9463 131.034 38.0434 128.681ZM85.9125 120.486C85.4515 121.819 85.0478 123.172 84.517 124.477C82.3999 129.708 79.2288 134.154 74.4322 137.333C71.5628 139.233 68.4273 140.354 64.9088 140.21C63.3501 140.145 61.8233 139.745 60.4348 139.041C60.6038 138.675 60.7539 138.326 60.9265 137.988C63.591 132.747 66.9565 128.027 71.5947 124.281C74.6633 121.803 78.062 119.971 82.1012 119.674C83.3876 119.581 84.7039 119.834 86.0057 119.928L85.9125 120.486ZM44.6932 109.841C47.1394 110.339 49.3941 111.51 51.1945 113.219C54.6377 116.467 56.21 120.546 56.4869 125.148C56.7164 128.965 55.8939 132.595 54.1971 136.261C53.0096 135.404 51.8144 134.674 50.7785 133.769C47.1359 130.591 45.2403 126.465 44.3439 121.841C43.6291 117.977 43.71 114.013 44.5807 110.184C44.5976 110.1 44.6362 110.017 44.6932 109.841ZM90 91.9643C89.9446 92.7369 89.9207 93.3736 89.8526 94.0085C89.1634 100.389 87.02 106.17 82.5064 110.914C79.9239 113.633 76.8452 115.547 73.0009 116.015C71.5149 116.222 69.9988 116.085 68.5738 115.615C69.2354 113.647 69.8109 111.717 70.5311 109.843C72.2005 105.504 74.4582 101.505 77.6642 98.0777C80.2278 95.3397 83.1981 93.2144 86.9626 92.386C87.9156 92.1776 88.8999 92.113 90 91.9643ZM47.5311 90.1817C50.1128 90.1684 52.6387 90.9357 54.7677 92.3805C59.1223 95.2747 61.4346 99.4594 62.3909 104.432C63.0069 107.624 62.8237 110.798 62.0464 114.044C60.1075 113.55 58.2853 112.684 56.6852 111.496C52.9145 108.752 50.5376 105.032 49.0288 100.723C47.8987 97.4482 47.3703 94.0028 47.4692 90.5486C47.4815 90.4252 47.5023 90.3025 47.5311 90.1817ZM46.3921 70.2257C48.8989 69.7171 51.5055 69.9668 53.87 70.9419C59.2054 73.1353 62.4102 77.2293 64.2271 82.4939C65.136 85.2084 65.5197 88.0654 65.3584 90.9166C64.2858 90.7387 63.2431 90.6606 62.2477 90.3842C57.4549 89.0465 53.9008 86.0627 51.1217 82.0939C48.6229 78.5244 47.1222 74.558 46.3921 70.2257ZM88.6163 63.8686C88.6939 66.1133 88.8913 68.2858 88.8146 70.4477C88.6571 75.0754 87.5469 79.4699 85.0981 83.4759C83.1723 86.6183 80.6643 89.1534 77.1254 90.5268C75.5393 91.1474 73.8263 91.3931 72.1244 91.245C72.2187 90.1748 72.2893 89.1168 72.4124 88.0729C73.1022 82.214 74.6752 76.6263 77.9359 71.6118C80.1141 68.264 82.8931 65.5778 86.8144 64.2595C87.2351 64.1177 87.6811 64.0202 88.1026 63.9057C88.2726 63.8818 88.4445 63.8695 88.6163 63.8686ZM47.2578 49.7423C53.0385 50.3181 57.2307 53.4104 60.4041 58.0176C62.2625 60.7688 63.4898 63.8849 64.002 67.1481C64.0223 67.2574 64.0392 67.3718 64.0753 67.6493C62.7305 67.6136 61.4402 67.6789 60.178 67.5293C55.0841 66.918 51.0197 64.3813 47.5632 60.7699C44.7603 57.8615 42.7349 54.4552 41.2512 50.6687C43.1387 49.8595 45.207 49.5405 47.2578 49.7423ZM81.264 35.9984C81.8135 38.1259 82.4035 40.0267 82.786 41.9661C83.6647 46.3991 83.5991 50.8253 82.2873 55.1692C81.0502 59.2485 78.9704 62.7642 75.1679 65.066C73.7987 65.8875 72.2577 66.3925 70.6604 66.5424C70.5207 63.8639 70.2964 61.2796 70.2757 58.6968C70.2246 55.1212 70.7152 51.5591 71.7318 48.1291C72.9215 44.1995 74.7115 40.622 78.0619 38.0253C78.9902 37.3077 80.0533 36.756 81.264 35.9984ZM36.2305 30.2712C40.6299 29.3227 44.6731 30.3488 48.419 32.6316C52.9912 35.4124 56.036 39.4418 57.9489 44.3474C57.9704 44.423 57.9868 44.5004 57.9964 44.5783C56.1494 45.1986 54.1968 45.4622 52.2467 45.3545C46.2342 45.0416 41.3829 42.2466 37.112 38.2802C35.1583 36.4371 33.4446 34.3612 32.011 32.1015C33.2731 31.2101 34.7099 30.587 36.2305 30.2712ZM68.0911 9.97718C69.5236 12.1944 70.6979 14.5633 71.5914 17.0388C73.2557 21.6861 73.9506 26.4392 72.9952 31.32C72.2579 35.0831 70.6769 38.4182 67.4281 40.7385C66.5287 41.3658 65.5117 41.8251 64.459 42.3972C63.3272 39.3757 62.4799 36.2583 61.9274 33.0854C61.1609 28.6411 60.9539 24.1943 61.9224 19.7608C62.7054 16.1683 64.2304 12.9675 67.1774 10.5728C67.3783 10.4106 67.5833 10.2566 67.7932 10.1067C67.889 10.0563 67.9889 10.0132 68.0911 9.97718ZM34.292 0.185219C35.5591 0.666812 36.8688 1.04365 38.0912 1.61014C43.5272 4.14055 47.6695 8.08594 50.8448 13.0599C53.1713 16.7038 54.7436 20.6217 55.0702 24.944C55.1795 26.3604 55.0706 27.7925 55.0597 29.2187L54.7994 29.3251C53.4837 28.4606 52.1231 27.6486 50.8545 26.7162C41.8366 20.0946 35.979 11.3928 33.2807 0.611465C33.2313 0.413296 33.211 0.203858 33.1762 0L34.292 0.185219Z" fill="url(#paint0_linear_18_1059)"/>
<defs>
<linearGradient id="paint0_linear_18_1059" x1="35.6173" y1="201.559" x2="67.9523" y2="5.74253" gradientUnits="userSpaceOnUse">
<stop stop-color="#FFB516"/>
<stop offset="1" stop-color="#FFB515"/>
</linearGradient>
</defs>
</svg>
