<svg width="26" height="26" viewBox="0 0 26 26" fill="none" xmlns="http://www.w3.org/2000/svg">
<path d="M12.0919 0.968667C12.4494 0.193795 13.5506 0.193793 13.9081 0.968665L16.9976 7.66679C17.1433 7.98259 17.4426 8.20004 17.7879 8.24098L25.1129 9.10948C25.9603 9.20995 26.3006 10.2573 25.6741 10.8367L20.2586 15.8449C20.0032 16.081 19.8889 16.4328 19.9567 16.7739L21.3943 24.0088C21.5606 24.8458 20.6696 25.4931 19.925 25.0763L13.4884 21.4734C13.185 21.3035 12.815 21.3035 12.5116 21.4734L6.07501 25.0763C5.3304 25.4931 4.43943 24.8458 4.60574 24.0088L6.0433 16.7739C6.11108 16.4328 5.99677 16.081 5.74143 15.8449L0.32586 10.8367C-0.30064 10.2573 0.0396747 9.20995 0.887068 9.10948L8.21208 8.24098C8.55745 8.20004 8.85673 7.98259 9.0024 7.66679L12.0919 0.968667Z" fill="#FFBF46"/>
</svg>
