<svg width="24" height="24" viewBox="0 0 24 24" fill="none" xmlns="http://www.w3.org/2000/svg">
<path d="M11.2736 1.57493C11.5595 0.955033 12.4405 0.955035 12.7264 1.57493L15.1981 6.93343C15.3146 7.18607 15.554 7.36003 15.8303 7.39279L21.6903 8.08759C22.3683 8.16796 22.6405 9.00587 22.1393 9.46937L17.8069 13.4759C17.6026 13.6648 17.5111 13.9463 17.5654 14.2192L18.7154 20.0071C18.8485 20.6766 18.1357 21.1945 17.54 20.8611L12.3908 17.9787C12.148 17.8428 11.852 17.8428 11.6092 17.9787L6.46 20.8611C5.86431 21.1945 5.15155 20.6766 5.28459 20.0071L6.43464 14.2192C6.48887 13.9463 6.39741 13.6648 6.19314 13.4759L1.86069 9.46937C1.35949 9.00587 1.63174 8.16796 2.30966 8.08759L8.16967 7.39279C8.44596 7.36003 8.68538 7.18607 8.80192 6.93343L11.2736 1.57493Z" fill="#FFBF46"/>
</svg>
