<svg width="80" height="80" viewBox="0 0 80 80" fill="none" xmlns="http://www.w3.org/2000/svg">
<mask id="mask0_1329_4045" style="mask-type:alpha" maskUnits="userSpaceOnUse" x="0" y="0" width="80" height="80">
<rect width="80" height="80" fill="#C4C4C4"/>
</mask>
<g mask="url(#mask0_1329_4045)">
<path d="M46.0435 13.5874C53.6587 5.97228 66.0054 5.97221 73.6206 13.5874C81.2357 21.2026 81.2357 33.5494 73.6206 41.1646L71.1458 43.6394L48.5183 21.012L39.6795 29.8509C38.3127 31.2177 36.0966 31.2177 34.7298 29.8509C33.3629 28.484 33.3629 26.2679 34.7298 24.9011L46.0435 13.5874Z" fill="#31C3FF"/>
<path d="M37.5581 67.3281C38.9249 65.9615 41.1405 65.9615 42.5073 67.3281C43.8742 68.695 43.8742 70.9115 42.5073 72.2783L41.0933 73.6924C39.7265 75.059 37.5108 75.0588 36.144 73.6924C34.7772 72.3255 34.7772 70.109 36.144 68.7422L37.5581 67.3281ZM30.4868 60.2568C31.8535 58.8903 34.0692 58.8905 35.436 60.2568C36.8029 61.6237 36.8029 63.8402 35.436 65.207L32.6079 68.0352C31.2411 69.4019 29.0255 69.4019 27.6587 68.0352C26.2919 66.6683 26.2919 64.4528 27.6587 63.0859L30.4868 60.2568ZM22.7085 52.4785C24.0753 51.1119 26.2919 51.1118 27.6587 52.4785C29.0255 53.8453 29.0254 56.0619 27.6587 57.4287L23.4155 61.6709C22.0487 63.0377 19.8331 63.0377 18.4663 61.6709C17.0995 60.3041 17.0995 58.0885 18.4663 56.7217L22.7085 52.4785ZM14.9302 44.7012C16.297 43.3343 18.5135 43.3343 19.8804 44.7012C21.2469 46.068 21.2469 48.2836 19.8804 49.6504L14.2231 55.3076C12.8564 56.6742 10.6407 56.6741 9.27393 55.3076C7.90709 53.9408 7.90709 51.7243 9.27393 50.3574L14.9302 44.7012Z" fill="#31C3FF"/>
<path d="M6.44581 13.5874C14.061 5.97217 26.4077 5.97217 34.023 13.5874L37.205 16.7694L31.9017 22.0727C28.9727 25.0016 28.9727 29.7503 31.9017 32.6793C34.8306 35.6082 39.5793 35.6082 42.5083 32.6793L47.8116 27.376L71.1461 50.7105C72.3176 51.8821 72.3176 53.7816 71.1461 54.9531C69.9745 56.1247 68.075 56.1247 66.9034 54.9531L60.5395 48.5892L57.0039 52.1247L61.9537 57.0745C63.1253 58.246 63.1253 60.1455 61.9537 61.3171C60.7821 62.4887 58.8826 62.4887 57.711 61.3171L52.7613 56.3674L49.2258 59.9029L52.7613 63.4384C53.9329 64.61 53.9329 66.5095 52.7613 67.6811C51.5897 68.8526 49.6902 68.8526 48.5187 67.6811L44.9831 64.1455L44.97 64.1586C43.6704 63.0197 42.0725 62.4046 40.4498 62.3149C40.3515 60.5366 39.6241 58.7865 38.2656 57.428C36.7286 55.891 34.6905 55.1622 32.6771 55.2383C32.7533 53.225 32.0245 51.1869 30.4874 49.6498C28.9504 48.1128 26.9123 47.384 24.8989 47.4602C24.9751 45.4468 24.2463 43.4087 22.7093 41.8717C19.7803 38.9427 15.0316 38.9427 12.1027 41.8717L9.62779 44.3465L6.44581 41.1646C-1.16941 33.5493 -1.16941 21.2026 6.44581 13.5874ZM38.7165 66.5589C38.7241 66.5559 38.7317 66.553 38.7393 66.55C38.6792 66.5739 38.6195 66.5993 38.5605 66.6266H38.5591C38.611 66.6025 38.6637 66.5804 38.7165 66.5589ZM35.4199 69.7934C35.4275 69.7763 35.4355 69.7593 35.4434 69.7423C35.4673 69.6907 35.4928 69.6396 35.5194 69.589C35.484 69.6563 35.4506 69.7244 35.4199 69.7934ZM31.6455 59.4879C31.653 59.4848 31.6607 59.4819 31.6683 59.4789C31.6081 59.5028 31.5484 59.5282 31.4894 59.5555H31.488C31.54 59.5314 31.5926 59.5093 31.6455 59.4879ZM23.8673 51.7097C23.8749 51.7066 23.8825 51.7037 23.8901 51.7007C23.8299 51.7246 23.7702 51.75 23.7112 51.7774H23.7098C23.7618 51.7533 23.8145 51.7311 23.8673 51.7097ZM16.0891 43.9315C16.0967 43.9285 16.1043 43.9256 16.1119 43.9226C16.0518 43.9464 15.9921 43.9718 15.9331 43.9992H15.9317C15.9836 43.9751 16.0363 43.953 16.0891 43.9315Z" fill="#4D9AFC"/>
</g>
</svg>
