<svg width="80" height="80" viewBox="0 0 80 80" fill="none" xmlns="http://www.w3.org/2000/svg">
<path d="M10 14V16C10 22.6274 15.3726 28 22 28H58C64.6274 28 70 22.6274 70 16V14H10ZM74 16C74 24.8366 66.8366 32 58 32H22C13.1634 32 6 24.8366 6 16V14C6 11.7909 7.79086 10 10 10H70C72.2091 10 74 11.7909 74 14V16Z" fill="#FFBF46"/>
<path d="M44.3906 55.3242C45.0204 57.8353 46.3923 60.1269 48.3633 61.8789L51.875 65H60C63.3137 65 66 67.6863 66 71V76H14V71C14 67.6863 16.6863 65 20 65H28.125L31.6367 61.8789C33.6077 60.1269 34.9786 57.8353 35.6084 55.3242C37.0154 55.9841 38.4816 56.5465 40 57C41.5181 56.5466 42.9839 55.9839 44.3906 55.3242Z" fill="#FFBF46"/>
<path d="M40 53C28.0806 49.4401 19.348 39.2336 17.675 26.907L15.3644 9.88172C15.1361 8.19988 15.7455 6.51282 16.9959 5.3651C17.9523 4.48714 19.2034 4 20.5017 4L59.4983 4C60.7966 4 62.0477 4.48714 63.0042 5.3651C64.2545 6.51283 64.8639 8.19989 64.6356 9.88172L62.325 26.907C60.652 39.2336 51.9194 49.4401 40 53Z" fill="#FFAC16"/>
<path d="M39.0919 13.9687C39.4494 13.1938 40.5506 13.1938 40.9081 13.9687L43.1512 18.8318C43.2969 19.1476 43.5961 19.365 43.9415 19.406L49.2598 20.0365C50.1072 20.137 50.4475 21.1844 49.821 21.7638L45.889 25.3999C45.6337 25.636 45.5194 25.9878 45.5872 26.329L46.6309 31.5818C46.7972 32.4187 45.9062 33.0661 45.1616 32.6493L40.4884 30.0334C40.185 29.8635 39.815 29.8635 39.5116 30.0334L34.8384 32.6493C34.0937 33.0661 33.2028 32.4187 33.3691 31.5818L34.4128 26.329C34.4806 25.9878 34.3663 25.636 34.111 25.3999L30.179 21.7638C29.5525 21.1844 29.8928 20.137 30.7402 20.0365L36.0585 19.406C36.4039 19.365 36.7031 19.1476 36.8488 18.8318L39.0919 13.9687Z" fill="#FFF1C9"/>
</svg>
