<svg width="80" height="80" viewBox="0 0 80 80" fill="none" xmlns="http://www.w3.org/2000/svg">
<rect width="80" height="80" fill="white"/>
<path d="M46.4844 45C56.1579 45.0001 63.9999 52.8421 64 62.5156V63.5898C63.9998 67.6823 60.6823 70.9998 56.5898 71H23.4102C19.3177 70.9998 16.0002 67.6823 16 63.5898V62.5156C16.0001 52.8421 23.8421 45.0001 33.5156 45H46.4844ZM40.3438 8C49.9324 8 57.7061 15.6112 57.7061 25C57.7061 34.3888 49.9324 42 40.3438 42C30.7553 41.9998 22.9824 34.3887 22.9824 25C22.9824 15.6113 30.7553 8.00018 40.3438 8Z" fill="#00CC91"/>
<path d="M26.2256 44.25C19.0772 46.9839 14.0001 53.9062 14 62.0156V63.0898L14.0117 63.5488C14.0744 64.7824 14.3899 65.9488 14.9043 67H6.48438C2.90324 67 0 64.0968 0 60.5156V59.5762C7.82205e-05 51.1118 6.8618 44.2501 15.3262 44.25H26.2256ZM64.6738 44.25C73.1381 44.2502 79.9999 51.1119 80 59.5762V60.5156C80 64.0967 77.0967 66.9999 73.5156 67H65.0957C65.6101 65.9488 65.9256 64.7824 65.9883 63.5488L66 63.0898V62.0156C65.9999 53.906 60.9229 46.9838 53.7744 44.25H64.6738ZM21.7666 11C23.1561 11 24.5035 11.1798 25.7871 11.5166C22.7082 14.9645 20.8369 19.5138 20.8369 24.5C20.8369 31.1774 24.1948 37.0685 29.3125 40.583C27.0709 41.8046 24.5003 42.5 21.7666 42.5C13.0545 42.5 5.99219 35.4485 5.99219 26.75C5.99219 18.0515 13.0545 11 21.7666 11ZM58.8242 11C67.5361 11.0002 74.5986 18.0516 74.5986 26.75C74.5986 35.4484 67.5361 42.4998 58.8242 42.5C56.1094 42.5 53.555 41.8144 51.3242 40.6084C56.4628 37.097 59.8369 31.1936 59.8369 24.5C59.8369 19.5048 57.9578 14.9492 54.8691 11.499C56.1331 11.1732 57.4584 11 58.8242 11Z" fill="#4DE3B8"/>
</svg>
