<svg width="80" height="80" viewBox="0 0 80 80" fill="none" xmlns="http://www.w3.org/2000/svg">
<circle cx="40" cy="40" r="40" fill="#FFAA00" fill-opacity="0.16"/>
<path d="M44.5719 34.3346C45.4766 34.9682 45.6966 36.2153 45.0631 37.1201L32.3822 55.2302C32.1495 55.5625 31.8207 55.8159 31.4404 55.9573L21.3326 59.7141C20.0207 60.2016 18.6265 59.2255 18.636 57.8259L18.7092 47.0427C18.7119 46.637 18.8384 46.242 19.071 45.9096L31.7519 27.7995C32.3854 26.8947 33.6325 26.6748 34.5373 27.3083L44.5719 34.3346ZM46.847 20.4069C50.5228 22.9807 51.3791 28.0998 48.8053 31.7756C48.2856 32.5178 47.2548 32.7094 46.5126 32.1897L35.8892 24.7511C35.1472 24.2314 34.9745 23.1971 35.4941 22.455C38.0679 18.7793 43.1712 17.8333 46.847 20.4069Z" fill="#FFAA00"/>
<path d="M58.9911 57.6371C58.9911 57.6371 54.735 54.876 49.6709 54.876C44.481 54.876 42.8645 59.3398 34.3702 59.7261C27.7753 60.0261 21.5742 57.6371 21.5742 57.6371" stroke="#FFAA00" stroke-width="6" stroke-linecap="round" stroke-linejoin="round"/>
</svg>
