<svg width="88" height="88" viewBox="0 0 88 88" fill="none" xmlns="http://www.w3.org/2000/svg">
<g clip-path="url(#clip0_2307_6313)">
<path fill-rule="evenodd" clip-rule="evenodd" d="M2.92187 24.2C2.92187 15.7292 2.92187 11.4938 4.5704 8.25839C6.02049 5.41244 8.33432 3.09861 11.1803 1.64853C14.4157 0 18.6511 0 27.1219 0H63.8C72.2708 0 76.5062 0 79.7416 1.64853C82.5876 3.09861 84.9014 5.41244 86.3515 8.25839C88 11.4938 88 15.7292 88 24.2V63.8C88 72.2708 88 76.5062 86.3515 79.7416C84.9014 82.5876 82.5876 84.9014 79.7416 86.3515C76.5062 88 72.2708 88 63.8 88H27.1219C18.6511 88 14.4157 88 11.1803 86.3515C8.33432 84.9014 6.02049 82.5876 4.5704 79.7416C2.92187 76.5062 2.92187 72.2708 2.92187 63.8V24.2Z" fill="#345FDF"/>
<path d="M27.1221 0.34375H63.7998C68.0409 0.34375 71.2012 0.344172 73.7061 0.548828C76.2069 0.753157 78.0248 1.15962 79.5859 1.95508C82.3669 3.37215 84.6279 5.63312 86.0449 8.41406C86.8404 9.97523 87.2468 11.7931 87.4512 14.2939C87.6558 16.7988 87.6562 19.9591 87.6562 24.2002V63.7998C87.6562 68.0409 87.6558 71.2012 87.4512 73.7061C87.2468 76.2069 86.8404 78.0248 86.0449 79.5859C84.6279 82.3669 82.3669 84.6279 79.5859 86.0449C78.0248 86.8404 76.2069 87.2468 73.7061 87.4512C71.2012 87.6558 68.0409 87.6562 63.7998 87.6562H27.1221C22.881 87.6562 19.7207 87.6558 17.2158 87.4512C14.715 87.2468 12.8971 86.8404 11.3359 86.0449C8.555 84.6279 6.29402 82.3669 4.87695 79.5859C4.0815 78.0248 3.67503 76.2069 3.4707 73.7061C3.26605 71.2012 3.26562 68.0409 3.26562 63.7998V24.2002C3.26562 19.9591 3.26605 16.7988 3.4707 14.2939C3.67503 11.7931 4.0815 9.97523 4.87695 8.41406C6.29402 5.63312 8.555 3.37215 11.3359 1.95508C12.8971 1.15962 14.715 0.753157 17.2158 0.548828C19.7207 0.344172 22.881 0.34375 27.1221 0.34375Z" stroke="black" stroke-opacity="0.16" stroke-width="0.6875"/>
<path fill-rule="evenodd" clip-rule="evenodd" d="M3.09375 24.3719C3.09375 15.9011 3.09375 11.6657 4.74228 8.43027C6.19236 5.58432 8.50619 3.27049 11.3521 1.8204C14.5876 0.171875 18.823 0.171875 27.2938 0.171875H63.9375C71.6382 0.171875 75.4886 0.171875 78.4299 1.67054C81.0171 2.98879 83.1206 5.09228 84.4388 7.67951C85.9375 10.6208 85.9375 14.4712 85.9375 22.1719V63.9375C85.9375 71.6382 85.9375 75.4886 84.4388 78.4299C83.1206 81.0171 81.0171 83.1206 78.4299 84.4388C75.4886 85.9375 71.6382 85.9375 63.9375 85.9375H27.2937C18.823 85.9375 14.5876 85.9375 11.3521 84.289C8.50619 82.8389 6.19236 80.5251 4.74228 77.6791C3.09375 74.4437 3.09375 70.2083 3.09375 61.7375V24.3719Z" fill="#D2D9DF"/>
<path d="M63.9375 0C67.785 0 70.681 -0.000530484 72.9824 0.1875C75.2859 0.375701 77.0089 0.753845 78.5078 1.51758C81.1274 2.85231 83.2571 4.982 84.5918 7.60156C85.3555 9.10047 85.7337 10.8235 85.9219 13.127C86.1099 15.4284 86.1094 18.3244 86.1094 22.1719V63.9375C86.1094 67.785 86.1099 70.681 85.9219 72.9824C85.7337 75.2859 85.3555 77.0089 84.5918 78.5078C83.2571 81.1274 81.1274 83.2571 78.5078 84.5918C77.0089 85.3555 75.2859 85.7337 72.9824 85.9219C70.681 86.1099 67.785 86.1094 63.9375 86.1094H27.2939C23.0614 86.1094 19.8765 86.1091 17.3457 85.9023C14.8131 85.6954 12.9203 85.2809 11.2744 84.4424C8.39612 82.9758 6.05543 80.6351 4.58887 77.7568C3.75032 76.1109 3.33583 74.2181 3.12891 71.6855C2.92214 69.1548 2.92188 65.9699 2.92188 61.7373V24.3721C2.92188 20.1395 2.92214 16.9546 3.12891 14.4238C3.33583 11.8913 3.75032 9.99843 4.58887 8.35254C6.05543 5.47425 8.39612 3.13356 11.2744 1.66699C12.9203 0.828445 14.8131 0.413951 17.3457 0.207031C19.8765 0.000260963 23.0614 0 27.2939 0H63.9375Z" stroke="black" stroke-opacity="0.16" stroke-width="0.34375"/>
<path fill-rule="evenodd" clip-rule="evenodd" d="M2.92188 24.3719C2.92188 15.9011 2.92188 11.6657 4.5704 8.43027C6.02049 5.58432 8.33432 3.27049 11.1803 1.8204C14.4157 0.171875 18.6511 0.171875 27.1219 0.171875H63.8C71.3082 0.171875 75.0623 0.171875 77.9301 1.63307C80.4526 2.91837 82.5035 4.96927 83.7888 7.49181C85.25 10.3596 85.25 14.1137 85.25 21.6219V63.8C85.25 71.3082 85.25 75.0623 83.7888 77.9301C82.5035 80.4526 80.4526 82.5035 77.9301 83.7888C75.0623 85.25 71.3082 85.25 63.8 85.25H27.1219C18.6511 85.25 14.4157 85.25 11.1803 83.6015C8.33432 82.1514 6.02049 79.8376 4.5704 76.9916C2.92188 73.7562 2.92188 69.5208 2.92188 61.05V24.3719Z" fill="#E9EFF5"/>
<path d="M27.1221 0.257812H63.7998C67.5553 0.257812 70.3674 0.258133 72.5986 0.44043C74.8285 0.622648 76.471 0.986683 77.8906 1.70996C80.397 2.98702 82.4349 5.02487 83.7119 7.53125C84.4352 8.95085 84.7992 10.5934 84.9814 12.8232C85.1637 15.0545 85.1641 17.8666 85.1641 21.6221V63.7998C85.1641 67.5553 85.1637 70.3674 84.9814 72.5986C84.7992 74.8285 84.4352 76.471 83.7119 77.8906C82.4349 80.397 80.397 82.4349 77.8906 83.7119C76.471 84.4352 74.8285 84.7992 72.5986 84.9814C70.3674 85.1637 67.5553 85.1641 63.7998 85.1641H27.1221C22.8853 85.1641 19.7122 85.1637 17.1943 84.958C14.6781 84.7524 12.8231 84.3422 11.2197 83.5254C8.38995 82.0835 6.08833 79.7819 4.64648 76.9521C3.82966 75.3488 3.41949 73.4938 3.21387 70.9775C3.00815 68.4597 3.00781 65.2866 3.00781 61.0498V24.3721C3.00781 20.1353 3.00815 16.9622 3.21387 14.4443C3.41949 11.9281 3.82966 10.0731 4.64648 8.46973C6.08833 5.63995 8.38995 3.33833 11.2197 1.89648C12.8231 1.07966 14.6781 0.669488 17.1943 0.463867C19.7122 0.258154 22.8853 0.257812 27.1221 0.257812Z" stroke="black" stroke-opacity="0.16" stroke-width="0.171875"/>
<path fill-rule="evenodd" clip-rule="evenodd" d="M2.92187 24.3719C2.92187 15.9011 2.92187 11.6657 4.5704 8.43027C6.02049 5.58432 8.33432 3.27049 11.1803 1.8204C14.4157 0.171875 18.6511 0.171875 27.1219 0.171875H65.5187C72.0644 0.171875 75.3372 0.171875 77.8373 1.44574C80.0364 2.56626 81.8244 4.35422 82.9449 6.55336C84.2188 9.05345 84.2188 12.3263 84.2188 18.8719V65.5188C84.2188 72.0644 84.2188 75.3372 82.9449 77.8373C81.8244 80.0364 80.0364 81.8244 77.8373 82.9449C75.3372 84.2188 72.0644 84.2188 65.5187 84.2188H27.1219C18.6511 84.2188 14.4157 84.2188 11.1803 82.5702C8.33432 81.1201 6.02049 78.8063 4.5704 75.9604C2.92187 72.7249 2.92187 68.4895 2.92187 60.0187V24.3719Z" fill="#FEFEFE"/>
<path d="M27.1221 0.257812H65.5186C68.7928 0.257812 71.2439 0.258112 73.1885 0.416992C75.1317 0.575791 76.5621 0.892862 77.7979 1.52246C79.9808 2.63474 81.7559 4.4098 82.8682 6.59277C83.4978 7.82854 83.8148 9.25889 83.9736 11.2021C84.1325 13.1468 84.1328 15.5978 84.1328 18.8721V65.5186C84.1328 68.7928 84.1325 71.2439 83.9736 73.1885C83.8148 75.1317 83.4978 76.5621 82.8682 77.7979C81.7559 79.9808 79.9808 81.7559 77.7979 82.8682C76.5621 83.4978 75.1317 83.8148 73.1885 83.9736C71.2439 84.1325 68.7928 84.1328 65.5186 84.1328H27.1221C22.8853 84.1328 19.7122 84.1325 17.1943 83.9268C14.6781 83.7211 12.8231 83.311 11.2197 82.4941C8.38995 81.0523 6.08833 78.7507 4.64648 75.9209C3.82966 74.3176 3.41949 72.4626 3.21387 69.9463C3.00815 67.4285 3.00781 64.2554 3.00781 60.0186V24.3721C3.00781 20.1353 3.00815 16.9621 3.21387 14.4443C3.41949 11.9281 3.82966 10.0731 4.64648 8.46973C6.08833 5.63995 8.38995 3.33833 11.2197 1.89648C12.8231 1.07966 14.6781 0.669488 17.1943 0.463867C19.7122 0.258154 22.8853 0.257812 27.1221 0.257812Z" stroke="black" stroke-opacity="0.12" stroke-width="0.171875"/>
<path d="M69.4375 64.2812H78.0313C81.0688 64.2812 83.5312 66.7437 83.5312 69.7813V80.4375C83.5312 83.4751 81.0688 85.9375 78.0313 85.9375H69.4375V64.2812Z" fill="#FFBD45"/>
<path d="M71.1562 42.625H78.0313C81.0688 42.625 83.5312 45.0874 83.5312 48.125V58.7813C83.5312 61.8188 81.0688 64.2812 78.0312 64.2812H71.1562V42.625Z" fill="#D47CFF"/>
<path d="M71.1562 20.7969H78.0313C81.0688 20.7969 83.5312 23.2593 83.5312 26.2969V37.125C83.5312 40.1626 81.0688 42.625 78.0312 42.625H71.1562V20.7969Z" fill="#31C3FF"/>
<path d="M59.125 19.9375H73.2188V83.1875C73.2188 85.8454 71.0641 88 68.4062 88H59.125V19.9375Z" fill="black" fill-opacity="0.12"/>
<path fill-rule="evenodd" clip-rule="evenodd" d="M71.5893 82.3281C71.5893 85.4606 69.0499 88 65.9174 88H18.047C9.69364 88 2.92193 81.2282 2.922 72.8749L2.92202 69.576L2.92188 19.3894C2.92188 12.6473 3.59931 10.2024 4.8714 7.7376C6.14349 5.27279 8.01023 3.33839 10.3888 2.02019C12.7674 0.701994 15.1268 0 21.633 0H69.9231C74.655 0 76.3709 0.510541 78.1007 1.46923C79.8306 2.42792 81.1883 3.83476 82.1134 5.62735C83.0386 7.41994 83.5312 9.19802 83.5312 14.1014V15.4688C83.5312 18.5063 81.0688 20.9688 78.0312 20.9688H71.5891L71.5893 82.3281Z" fill="url(#paint0_linear_2307_6313)"/>
<g filter="url(#filter0_d_2307_6313)">
<path fill-rule="evenodd" clip-rule="evenodd" d="M47.5861 25.9522L46.1171 28.4967L58.0249 35.3717L59.494 32.8272C61.3924 29.539 60.2658 25.3343 56.9775 23.4358C53.6893 21.5373 49.4846 22.664 47.5861 25.9522ZM31.2507 54.246C31.0269 54.6336 30.9279 55.0807 30.967 55.5265L31.9203 66.3899C31.9368 66.5783 32.1355 66.6929 32.3068 66.6131L42.1915 62.0069C42.5971 61.8179 42.9348 61.5086 43.1585 61.121L56.553 37.9212L44.6451 31.0462L31.2507 54.246Z" fill="white"/>
<mask id="mask0_2307_6313" style="mask-type:luminance" maskUnits="userSpaceOnUse" x="30" y="22" width="31" height="45">
<path fill-rule="evenodd" clip-rule="evenodd" d="M47.5861 25.9522L46.1171 28.4967L58.0249 35.3717L59.494 32.8272C61.3924 29.539 60.2658 25.3343 56.9775 23.4358C53.6893 21.5373 49.4846 22.664 47.5861 25.9522ZM31.2507 54.246C31.0269 54.6336 30.9279 55.0807 30.967 55.5265L31.9203 66.3899C31.9368 66.5783 32.1355 66.6929 32.3068 66.6131L42.1915 62.0069C42.5971 61.8179 42.9348 61.5086 43.1585 61.121L56.553 37.9212L44.6451 31.0462L31.2507 54.246Z" fill="white"/>
</mask>
<g mask="url(#mask0_2307_6313)">
<path fill-rule="evenodd" clip-rule="evenodd" d="M31.9941 66.7769L57.6686 22.5156L65.1894 31.5994L38.6773 68.632L31.9941 66.7769Z" fill="#EAF4FF"/>
</g>
</g>
<path fill-rule="evenodd" clip-rule="evenodd" d="M3.95312 18.5625C3.95312 15.3685 3.95312 13.7715 4.19344 12.4395C5.31462 6.22526 10.1784 1.36149 16.3926 0.240318C17.7246 0 19.3216 0 22.5156 0V0V88V88C21.2389 88 20.6005 88 20.0614 87.9661C11.419 87.4224 4.53077 80.5341 3.98704 71.8917C3.95312 71.3526 3.95312 70.7143 3.95312 69.4375V18.5625Z" fill="white" fill-opacity="0.08"/>
<path fill-rule="evenodd" clip-rule="evenodd" d="M2.92188 18.5625C2.92188 15.3685 2.92188 13.7715 3.16219 12.4395C4.28337 6.22526 9.14713 1.36149 15.3614 0.240318C16.6934 0 18.2904 0 21.4844 0V0V88V88C18.2904 88 16.6934 88 15.3614 87.7597C9.14713 86.6385 4.28337 81.7747 3.16219 75.5605C2.92188 74.2285 2.92188 72.6315 2.92188 69.4375L2.92188 18.5625Z" fill="#2B96FF"/>
<circle cx="13.2344" cy="69.9531" r="2.32031" fill="#345FDF" stroke="url(#paint1_linear_2307_6313)" stroke-width="0.171875"/>
<circle cx="13.2344" cy="55.8594" r="2.32031" fill="#345FDF" stroke="url(#paint2_linear_2307_6313)" stroke-width="0.171875"/>
<circle cx="13.2344" cy="41.7656" r="2.32031" fill="#345FDF" stroke="url(#paint3_linear_2307_6313)" stroke-width="0.171875"/>
<circle cx="13.2344" cy="27.6719" r="2.32031" fill="#345FDF" stroke="url(#paint4_linear_2307_6313)" stroke-width="0.171875"/>
<circle cx="13.2344" cy="13.5781" r="2.32031" fill="#345FDF" stroke="url(#paint5_linear_2307_6313)" stroke-width="0.171875"/>
<path fill-rule="evenodd" clip-rule="evenodd" d="M7.28892 11.3445L7.04688 11.3438C2.99126 11.3438 0 11.9994 0 13.5658C0 14.2336 0.453572 14.6516 1.16046 14.9629C1.62295 15.1665 2.24113 15.3359 2.98255 15.4687L2.98242 15.4659L3.09298 13.7281C2.86043 13.6826 2.64781 13.6337 2.4581 13.5823L2.39817 13.566L2.49977 13.5382C2.61036 13.5089 2.72875 13.4804 2.85433 13.4529C3.94235 13.2144 5.44124 13.0754 7.04688 13.0754C8.65251 13.0754 10.1514 13.2144 11.2394 13.4529C11.7365 13.5618 12.121 13.6866 12.3551 13.8079L12.3797 13.8209L12.4204 13.8442L12.4234 13.853C12.541 14.19 12.8597 14.4316 13.2344 14.4316C13.709 14.4316 14.0938 14.044 14.0938 13.5658C14.0938 12.0307 11.2209 11.3703 7.28892 11.3445Z" fill="#DAEBFF"/>
<mask id="mask1_2307_6313" style="mask-type:luminance" maskUnits="userSpaceOnUse" x="0" y="11" width="15" height="5">
<path fill-rule="evenodd" clip-rule="evenodd" d="M7.28892 11.3445L7.04688 11.3438C2.99126 11.3438 0 11.9994 0 13.5658C0 14.2336 0.453572 14.6516 1.16046 14.9629C1.62295 15.1665 2.24113 15.3359 2.98255 15.4687L2.98242 15.4659L3.09298 13.7281C2.86043 13.6826 2.64781 13.6337 2.4581 13.5823L2.39817 13.566L2.49977 13.5382C2.61036 13.5089 2.72875 13.4804 2.85433 13.4529C3.94235 13.2144 5.44124 13.0754 7.04688 13.0754C8.65251 13.0754 10.1514 13.2144 11.2394 13.4529C11.7365 13.5618 12.121 13.6866 12.3551 13.8079L12.3797 13.8209L12.4204 13.8442L12.4234 13.853C12.541 14.19 12.8597 14.4316 13.2344 14.4316C13.709 14.4316 14.0938 14.044 14.0938 13.5658C14.0938 12.0307 11.2209 11.3703 7.28892 11.3445Z" fill="white"/>
</mask>
<g mask="url(#mask1_2307_6313)">
<rect y="10.4844" width="2.92188" height="7.21875" fill="#CCE4FF"/>
</g>
<path fill-rule="evenodd" clip-rule="evenodd" d="M7.28516 25.4384L7.04688 25.4375C3.05645 25.4375 0 26.2052 0 27.8599C0 28.522 0.436987 28.9835 1.12061 29.3284C1.58052 29.5604 2.19145 29.7539 2.92188 29.9063V28.1269C2.58897 28.0451 2.30437 27.9551 2.07848 27.8614L2.0747 27.8598L2.15214 27.8288C2.35275 27.7507 2.59733 27.6742 2.879 27.6035C3.9587 27.3323 5.44927 27.1739 7.04688 27.1739C8.64448 27.1739 10.135 27.3323 11.2147 27.6035C11.7053 27.7267 12.0834 27.8673 12.3126 28.0034L12.3372 28.0183C12.3606 28.0329 12.3802 28.0461 12.3962 28.0576L12.3977 28.0586L12.4026 28.0791C12.4987 28.4525 12.8347 28.7281 13.2344 28.7281C13.709 28.7281 14.0938 28.3394 14.0938 27.8599C14.0938 26.2383 11.1583 25.4686 7.28516 25.4384Z" fill="#DAEBFF"/>
<mask id="mask2_2307_6313" style="mask-type:luminance" maskUnits="userSpaceOnUse" x="0" y="25" width="15" height="5">
<path fill-rule="evenodd" clip-rule="evenodd" d="M7.28516 25.4384L7.04688 25.4375C3.05645 25.4375 0 26.2052 0 27.8599C0 28.522 0.436987 28.9835 1.12061 29.3284C1.58052 29.5604 2.19145 29.7539 2.92188 29.9063V28.1269C2.58897 28.0451 2.30437 27.9551 2.07848 27.8614L2.0747 27.8598L2.15214 27.8288C2.35275 27.7507 2.59733 27.6742 2.879 27.6035C3.9587 27.3323 5.44927 27.1739 7.04688 27.1739C8.64448 27.1739 10.135 27.3323 11.2147 27.6035C11.7053 27.7267 12.0834 27.8673 12.3126 28.0034L12.3372 28.0183C12.3606 28.0329 12.3802 28.0461 12.3962 28.0576L12.3977 28.0586L12.4026 28.0791C12.4987 28.4525 12.8347 28.7281 13.2344 28.7281C13.709 28.7281 14.0938 28.3394 14.0938 27.8599C14.0938 26.2383 11.1583 25.4686 7.28516 25.4384Z" fill="white"/>
</mask>
<g mask="url(#mask2_2307_6313)">
<rect y="25.0938" width="2.92188" height="5.32812" fill="#CCE4FF"/>
</g>
<path fill-rule="evenodd" clip-rule="evenodd" d="M7.28516 39.5322L7.04688 39.5312C3.05645 39.5312 0 40.299 0 41.9536C0 42.6157 0.436987 43.0773 1.12061 43.4222C1.58052 43.6542 2.19145 43.8477 2.92188 44V42.2207C2.58897 42.1388 2.30437 42.0488 2.07848 41.9552L2.0747 41.9536L2.15214 41.9225C2.35275 41.8445 2.59733 41.768 2.879 41.6972C3.9587 41.426 5.44927 41.2677 7.04688 41.2677C8.64448 41.2677 10.135 41.426 11.2147 41.6972C11.7053 41.8205 12.0834 41.961 12.3126 42.0972L12.3372 42.1121C12.3606 42.1266 12.3802 42.1398 12.3962 42.1513L12.3977 42.1524L12.4026 42.1728C12.4987 42.5462 12.8347 42.8219 13.2344 42.8219C13.709 42.8219 14.0938 42.4331 14.0938 41.9536C14.0938 40.3321 11.1583 39.5623 7.28516 39.5322Z" fill="#DAEBFF"/>
<mask id="mask3_2307_6313" style="mask-type:luminance" maskUnits="userSpaceOnUse" x="0" y="39" width="15" height="5">
<path fill-rule="evenodd" clip-rule="evenodd" d="M7.28516 39.5322L7.04688 39.5312C3.05645 39.5312 0 40.299 0 41.9536C0 42.6157 0.436987 43.0773 1.12061 43.4222C1.58052 43.6542 2.19145 43.8477 2.92188 44V42.2207C2.58897 42.1388 2.30437 42.0488 2.07848 41.9552L2.0747 41.9536L2.15214 41.9225C2.35275 41.8445 2.59733 41.768 2.879 41.6972C3.9587 41.426 5.44927 41.2677 7.04688 41.2677C8.64448 41.2677 10.135 41.426 11.2147 41.6972C11.7053 41.8205 12.0834 41.961 12.3126 42.0972L12.3372 42.1121C12.3606 42.1266 12.3802 42.1398 12.3962 42.1513L12.3977 42.1524L12.4026 42.1728C12.4987 42.5462 12.8347 42.8219 13.2344 42.8219C13.709 42.8219 14.0938 42.4331 14.0938 41.9536C14.0938 40.3321 11.1583 39.5623 7.28516 39.5322Z" fill="white"/>
</mask>
<g mask="url(#mask3_2307_6313)">
<rect y="39.5312" width="2.92188" height="6.1875" fill="#CCE4FF"/>
</g>
<path fill-rule="evenodd" clip-rule="evenodd" d="M7.28516 53.6259L7.04688 53.625C3.05645 53.625 0 54.3927 0 56.0474C0 56.7095 0.436987 57.171 1.12061 57.5159C1.58052 57.7479 2.19145 57.9414 2.92188 58.0938V56.3144C2.58897 56.2326 2.30437 56.1426 2.07848 56.0489L2.0747 56.0473L2.15214 56.0163C2.35275 55.9382 2.59733 55.8617 2.879 55.791C3.9587 55.5198 5.44927 55.3614 7.04688 55.3614C8.64448 55.3614 10.135 55.5198 11.2147 55.791C11.7053 55.9142 12.0834 56.0548 12.3126 56.1909L12.3372 56.2058C12.3606 56.2204 12.3802 56.2336 12.3962 56.2451L12.3977 56.2461L12.4026 56.2666C12.4987 56.64 12.8347 56.9156 13.2344 56.9156C13.709 56.9156 14.0938 56.5269 14.0938 56.0474C14.0938 54.4258 11.1583 53.6561 7.28516 53.6259Z" fill="#DAEBFF"/>
<mask id="mask4_2307_6313" style="mask-type:luminance" maskUnits="userSpaceOnUse" x="0" y="53" width="15" height="6">
<path fill-rule="evenodd" clip-rule="evenodd" d="M7.28516 53.6259L7.04688 53.625C3.05645 53.625 0 54.3927 0 56.0474C0 56.7095 0.436987 57.171 1.12061 57.5159C1.58052 57.7479 2.19145 57.9414 2.92188 58.0938V56.3144C2.58897 56.2326 2.30437 56.1426 2.07848 56.0489L2.0747 56.0473L2.15214 56.0163C2.35275 55.9382 2.59733 55.8617 2.879 55.791C3.9587 55.5198 5.44927 55.3614 7.04688 55.3614C8.64448 55.3614 10.135 55.5198 11.2147 55.791C11.7053 55.9142 12.0834 56.0548 12.3126 56.1909L12.3372 56.2058C12.3606 56.2204 12.3802 56.2336 12.3962 56.2451L12.3977 56.2461L12.4026 56.2666C12.4987 56.64 12.8347 56.9156 13.2344 56.9156C13.709 56.9156 14.0938 56.5269 14.0938 56.0474C14.0938 54.4258 11.1583 53.6561 7.28516 53.6259Z" fill="white"/>
</mask>
<g mask="url(#mask4_2307_6313)">
<rect y="53.7969" width="2.92188" height="4.98438" fill="#CCE4FF"/>
</g>
<path fill-rule="evenodd" clip-rule="evenodd" d="M7.28516 67.7197L7.04688 67.7188C3.05645 67.7188 0 68.4826 0 70.1289C0 70.7877 0.436987 71.2468 1.12061 71.59C1.60384 71.8326 2.25379 72.0328 3.03389 72.1877L2.95149 70.4132L2.98357 70.4095C2.62404 70.3241 2.3182 70.2293 2.07848 70.1304L2.0747 70.1288L2.15214 70.0979C2.35275 70.0203 2.59733 69.9442 2.879 69.8738C3.9587 69.604 5.44927 69.4464 7.04688 69.4464C8.64448 69.4464 10.135 69.604 11.2147 69.8738C11.7053 69.9964 12.0834 70.1362 12.3126 70.2717L12.3372 70.2866C12.3606 70.301 12.3802 70.3142 12.3962 70.3256L12.3977 70.3267L12.4026 70.347C12.4987 70.7185 12.8347 70.9927 13.2344 70.9927C13.709 70.9927 14.0938 70.606 14.0938 70.1289C14.0938 68.5155 11.1583 67.7497 7.28516 67.7197Z" fill="#DAEBFF"/>
<mask id="mask5_2307_6313" style="mask-type:luminance" maskUnits="userSpaceOnUse" x="0" y="67" width="15" height="6">
<path fill-rule="evenodd" clip-rule="evenodd" d="M7.28516 67.7197L7.04688 67.7188C3.05645 67.7188 0 68.4826 0 70.1289C0 70.7877 0.436987 71.2468 1.12061 71.59C1.60384 71.8326 2.25379 72.0328 3.03389 72.1877L2.95149 70.4132L2.98357 70.4095C2.62404 70.3241 2.3182 70.2293 2.07848 70.1304L2.0747 70.1288L2.15214 70.0979C2.35275 70.0203 2.59733 69.9442 2.879 69.8738C3.9587 69.604 5.44927 69.4464 7.04688 69.4464C8.64448 69.4464 10.135 69.604 11.2147 69.8738C11.7053 69.9964 12.0834 70.1362 12.3126 70.2717L12.3372 70.2866C12.3606 70.301 12.3802 70.3142 12.3962 70.3256L12.3977 70.3267L12.4026 70.347C12.4987 70.7185 12.8347 70.9927 13.2344 70.9927C13.709 70.9927 14.0938 70.606 14.0938 70.1289C14.0938 68.5155 11.1583 67.7497 7.28516 67.7197Z" fill="white"/>
</mask>
<g mask="url(#mask5_2307_6313)">
<rect y="67.375" width="3.09375" height="5.32812" fill="#CCE4FF"/>
</g>
</g>
<defs>
<filter id="filter0_d_2307_6313" x="30.959" y="22.5137" width="30.1445" height="44.8125" filterUnits="userSpaceOnUse" color-interpolation-filters="sRGB">
<feFlood flood-opacity="0" result="BackgroundImageFix"/>
<feColorMatrix in="SourceAlpha" type="matrix" values="0 0 0 0 0 0 0 0 0 0 0 0 0 0 0 0 0 0 127 0" result="hardAlpha"/>
<feOffset dx="0.6875" dy="0.6875"/>
<feColorMatrix type="matrix" values="0 0 0 0 0 0 0 0 0 0 0 0 0 0 0 0 0 0 0.08 0"/>
<feBlend mode="normal" in2="BackgroundImageFix" result="effect1_dropShadow_2307_6313"/>
<feBlend mode="normal" in="SourceGraphic" in2="effect1_dropShadow_2307_6313" result="shape"/>
</filter>
<linearGradient id="paint0_linear_2307_6313" x1="-37.8899" y1="42.8929" x2="49.8686" y2="124.292" gradientUnits="userSpaceOnUse">
<stop stop-color="#4AC0FF"/>
<stop offset="1" stop-color="#4C9DFF"/>
</linearGradient>
<linearGradient id="paint1_linear_2307_6313" x1="12.3957" y1="66.4717" x2="9.64662" y2="70.2594" gradientUnits="userSpaceOnUse">
<stop stop-color="#C6E7FF" stop-opacity="0.24"/>
<stop offset="1" stop-color="#94CAFF" stop-opacity="0.01"/>
</linearGradient>
<linearGradient id="paint2_linear_2307_6313" x1="12.3957" y1="52.3779" x2="9.64662" y2="56.1656" gradientUnits="userSpaceOnUse">
<stop stop-color="#C6E7FF" stop-opacity="0.24"/>
<stop offset="1" stop-color="#94CAFF" stop-opacity="0.01"/>
</linearGradient>
<linearGradient id="paint3_linear_2307_6313" x1="12.3957" y1="38.2842" x2="9.64662" y2="42.0719" gradientUnits="userSpaceOnUse">
<stop stop-color="#C6E7FF" stop-opacity="0.24"/>
<stop offset="1" stop-color="#94CAFF" stop-opacity="0.01"/>
</linearGradient>
<linearGradient id="paint4_linear_2307_6313" x1="12.3957" y1="24.1904" x2="9.64662" y2="27.9781" gradientUnits="userSpaceOnUse">
<stop stop-color="#C6E7FF" stop-opacity="0.24"/>
<stop offset="1" stop-color="#94CAFF" stop-opacity="0.01"/>
</linearGradient>
<linearGradient id="paint5_linear_2307_6313" x1="12.3957" y1="10.0967" x2="9.64662" y2="13.8844" gradientUnits="userSpaceOnUse">
<stop stop-color="#C6E7FF" stop-opacity="0.24"/>
<stop offset="1" stop-color="#94CAFF" stop-opacity="0.01"/>
</linearGradient>
<clipPath id="clip0_2307_6313">
<rect width="88" height="88" fill="white"/>
</clipPath>
</defs>
</svg>
