<svg width="80" height="80" viewBox="0 0 80 80" fill="none" xmlns="http://www.w3.org/2000/svg">
<circle cx="40" cy="40" r="40" fill="#149EFE" fill-opacity="0.14"/>
<path d="M19.7381 33.8906C17.0462 32.6612 17.0462 28.8369 19.7381 27.6075L38.0736 19.2336C39.5697 18.5503 41.2889 18.5503 42.785 19.2336L61.1205 27.6075C63.8124 28.8369 63.8124 32.6612 61.1205 33.8906L42.785 42.2645C41.2889 42.9478 39.5697 42.9478 38.0736 42.2645L19.7381 33.8906Z" fill="#149EFE"/>
<path d="M20.1758 40.9292L36.5452 48.9858C38.9494 50.1691 41.7666 50.1691 44.1707 48.9858L60.5402 40.9292" stroke="#149EFE" stroke-width="5.18053" stroke-linecap="round"/>
<path d="M20.248 51.3252L35.8549 59.0065C38.7399 60.4264 42.1206 60.4264 45.0055 59.0065L60.6124 51.3252" stroke="#149EFE" stroke-width="5.18053" stroke-linecap="round"/>
</svg>
