<svg width="80" height="80" viewBox="0 0 80 80" fill="none" xmlns="http://www.w3.org/2000/svg">
<circle cx="40" cy="40" r="40" fill="#C859F0" fill-opacity="0.14"/>
<g clip-path="url(#clip0_2307_5734)">
<path fill-rule="evenodd" clip-rule="evenodd" d="M40 16.4375C26.9883 16.4375 16.4375 26.9883 16.4375 40C16.4375 53.0117 26.9883 63.5625 40 63.5625C42.173 63.5625 43.9271 61.8084 43.9271 59.6354C43.9271 58.6144 43.5344 57.6981 42.906 56.9912C42.3039 56.3105 41.9112 55.3942 41.9112 54.3993C41.9112 52.2263 43.6653 50.4722 45.8383 50.4722H50.4722C57.6981 50.4722 63.5625 44.6078 63.5625 37.3819C63.5625 25.8101 53.0117 16.4375 40 16.4375ZM25.6007 40C23.4277 40 21.6736 38.2459 21.6736 36.0729C21.6736 33.8999 23.4277 32.1458 25.6007 32.1458C27.7737 32.1458 29.5278 33.8999 29.5278 36.0729C29.5278 38.2459 27.7737 40 25.6007 40ZM29.5278 25.6007C29.5278 27.7737 31.2818 29.5278 33.4548 29.5278C35.6278 29.5278 37.3819 27.7737 37.3819 25.6007C37.3819 23.4278 35.6278 21.6737 33.4548 21.6737C31.2818 21.6737 29.5278 23.4278 29.5278 25.6007ZM46.5452 29.5278C44.3722 29.5278 42.6181 27.7737 42.6181 25.6007C42.6181 23.4278 44.3722 21.6737 46.5452 21.6737C48.7181 21.6737 50.4722 23.4278 50.4722 25.6007C50.4722 27.7737 48.7181 29.5278 46.5452 29.5278ZM50.4722 36.0729C50.4722 38.2459 52.2263 40 54.3993 40C56.5723 40 58.3264 38.2459 58.3264 36.0729C58.3264 33.8999 56.5723 32.1458 54.3993 32.1458C52.2263 32.1458 50.4722 33.8999 50.4722 36.0729Z" fill="#C859F0"/>
</g>
<defs>
<clipPath id="clip0_2307_5734">
<rect width="58" height="58" fill="white" transform="translate(11 9)"/>
</clipPath>
</defs>
</svg>
