<svg width="80" height="80" viewBox="0 0 80 80" fill="none" xmlns="http://www.w3.org/2000/svg">
<rect width="80" height="80" rx="40" fill="#76CF10" fill-opacity="0.14"/>
<path d="M49.8368 48.4618H53.8559C54.0364 48.4618 54.2152 48.4262 54.3821 48.3571C54.5489 48.288 54.7005 48.1867 54.8281 48.059C54.9558 47.9313 55.0571 47.7798 55.1262 47.6129C55.1953 47.4461 55.2309 47.2673 55.2309 47.0867V43.0663C55.2309 42.7016 55.3757 42.3518 55.6336 42.094C55.8915 41.8361 56.2412 41.6913 56.6059 41.6913H60.625C60.9897 41.6913 61.3394 41.8361 61.5973 42.094C61.8551 42.3518 62 42.7016 62 43.0663V50.4693C62 50.8339 61.8551 51.1837 61.5973 51.4415C61.3394 51.6994 60.9897 51.8442 60.625 51.8442H56.6059C56.2412 51.8442 55.8915 51.9891 55.6336 52.247C55.3757 52.5048 55.2309 52.8546 55.2309 53.2193V53.8545C55.2309 54.2192 55.086 54.5689 54.8281 54.8268C54.5703 55.0846 54.2205 55.2295 53.8559 55.2295H49.8368C49.4721 55.2295 49.1223 55.0846 48.8645 54.8268C48.6066 54.5689 48.4618 54.2192 48.4618 53.8545V53.2193C48.4618 52.8546 48.3169 52.5048 48.059 52.247C47.8012 51.9891 47.4514 51.8442 47.0867 51.8442H43.0663C42.7016 51.8442 42.3518 51.6994 42.094 51.4415C41.8361 51.1837 41.6913 50.8339 41.6913 50.4693V43.0663C41.6913 42.7016 41.8361 42.3518 42.094 42.094C42.3518 41.8361 42.7016 41.6913 43.0663 41.6913H47.0854C47.45 41.6913 47.7998 41.8361 48.0576 42.094C48.3155 42.3518 48.4604 42.7016 48.4604 43.0663V47.0854C48.4604 47.45 48.6052 47.7998 48.8631 48.0576C49.121 48.3155 49.4707 48.4604 49.8354 48.4604L49.8368 48.4618ZM19.375 41.6913H36.9338C37.2984 41.6913 37.6482 41.8361 37.906 42.094C38.1639 42.3518 38.3088 42.7016 38.3088 43.0663V60.625C38.3088 60.9897 38.1639 61.3394 37.906 61.5973C37.6482 61.8551 37.2984 62 36.9338 62H19.375C19.0103 62 18.6606 61.8551 18.4027 61.5973C18.1449 61.3394 18 60.9897 18 60.625V43.0663C18 42.7016 18.1449 42.3518 18.4027 42.094C18.6606 41.8361 19.0103 41.6913 19.375 41.6913ZM24.7691 48.4604V55.2295H31.5383V48.4604H24.7691ZM19.375 18H36.9338C37.2984 18 37.6482 18.1449 37.906 18.4027C38.1639 18.6606 38.3088 19.0103 38.3088 19.375V36.9338C38.3088 37.2984 38.1639 37.6482 37.906 37.906C37.6482 38.1639 37.2984 38.3088 36.9338 38.3088H19.375C19.0103 38.3088 18.6606 38.1639 18.4027 37.906C18.1449 37.6482 18 37.2984 18 36.9338V19.375C18 19.0103 18.1449 18.6606 18.4027 18.4027C18.6606 18.1449 19.0103 18 19.375 18ZM24.7691 24.7691V31.5383H31.5383V24.7691H24.7691ZM43.0676 18H60.625C60.9897 18 61.3394 18.1449 61.5973 18.4027C61.8551 18.6606 62 19.0103 62 19.375V36.9338C62 37.2984 61.8551 37.6482 61.5973 37.906C61.3394 38.1639 60.9897 38.3088 60.625 38.3088H43.0663C42.7016 38.3088 42.3518 38.1639 42.094 37.906C41.8361 37.6482 41.6913 37.2984 41.6913 36.9338V19.375C41.6913 19.0103 41.8361 18.6606 42.094 18.4027C42.3518 18.1449 42.7016 18 43.0663 18H43.0676ZM48.4618 24.7691V31.5383H55.2309V24.7691H48.4618ZM56.6059 55.2309H60.625C60.9897 55.2309 61.3394 55.3757 61.5973 55.6336C61.8551 55.8915 62 56.2412 62 56.6059V60.625C62 60.9897 61.8551 61.3394 61.5973 61.5973C61.3394 61.8551 60.9897 62 60.625 62H56.6059C56.2412 62 55.8915 61.8551 55.6336 61.5973C55.3757 61.3394 55.2309 60.9897 55.2309 60.625V56.6059C55.2309 56.2412 55.3757 55.8915 55.6336 55.6336C55.8915 55.3757 56.2412 55.2309 56.6059 55.2309ZM43.0676 55.2309H47.0867C47.2673 55.2309 47.4461 55.2664 47.6129 55.3355C47.7798 55.4046 47.9313 55.5059 48.059 55.6336C48.1867 55.7613 48.288 55.9129 48.3571 56.0797C48.4262 56.2465 48.4618 56.4253 48.4618 56.6059V60.625C48.4618 60.8056 48.4262 60.9844 48.3571 61.1512C48.288 61.318 48.1867 61.4696 48.059 61.5973C47.9313 61.725 47.7798 61.8262 47.6129 61.8953C47.4461 61.9644 47.2673 62 47.0867 62H43.0663C42.7016 62 42.3518 61.8551 42.094 61.5973C41.8361 61.3394 41.6913 60.9897 41.6913 60.625V56.6059C41.6913 56.2412 41.8361 55.8915 42.094 55.6336C42.3518 55.3757 42.7016 55.2309 43.0663 55.2309H43.0676Z" fill="#42C31C"/>
</svg>
