<svg width="80" height="80" viewBox="0 0 80 80" fill="none" xmlns="http://www.w3.org/2000/svg">
<circle cx="40" cy="40" r="40" fill="#3E84F6" fill-opacity="0.14"/>
<path d="M46 16C47.1044 16.0002 48 16.8955 48 18V31.499C48.0001 32.0512 48.4478 32.499 49 32.499L61 32.5C62.1044 32.5002 63 33.3955 63 34.5V47.2295C63 47.7817 62.5521 48.2293 62 48.2295H60.75V62.749C60.7498 63.8534 59.8544 64.7489 58.75 64.749H22.251C21.1465 64.749 20.2511 63.8535 20.251 62.749L20.25 48.2295H19C18.4477 48.2295 18 47.7818 18 47.2295L18.001 34.499C18.0011 33.3945 18.8965 32.499 20.001 32.499H32C32.552 32.4988 32.9998 32.0511 33 31.499V18C33 16.8954 33.8954 16 35 16H46ZM29.833 43.749C29.3665 43.749 29.1333 43.749 28.9551 43.8398C28.7983 43.9197 28.6707 44.0473 28.5908 44.2041C28.5001 44.3823 28.5 44.6156 28.5 45.082V46.165C28.5 46.6317 28.5 46.8657 28.5908 47.0439C28.6707 47.2007 28.7983 47.3283 28.9551 47.4082C29.1333 47.4989 29.3666 47.499 29.833 47.499H51.167C51.6334 47.499 51.8667 47.499 52.0449 47.4082C52.2017 47.3283 52.3293 47.2007 52.4092 47.0439C52.5 46.8657 52.5 46.6317 52.5 46.165V45.082C52.5 44.6156 52.4999 44.3823 52.4092 44.2041C52.3293 44.0473 52.2017 43.9197 52.0449 43.8398C51.8667 43.749 51.6334 43.749 51.167 43.749H29.833Z" fill="#5E98F6"/>
</svg>
