<svg width="48" height="48" viewBox="0 0 48 48" fill="none" xmlns="http://www.w3.org/2000/svg">
<path d="M48 24C48 37.2551 37.2551 48 24 48C10.7449 48 0 37.2551 0 24C0 10.7449 10.7449 0 24 0C37.2551 0 48 10.7449 48 24Z" fill="#041E54"/>
<path d="M29.9268 19.1299C32.7702 19.1301 35.5928 21.1911 35.5928 25.3125V34.0703C35.5926 34.6367 35.129 35.1006 34.5625 35.1006H31.4717C30.9052 35.1006 30.4415 34.6367 30.4414 34.0703V26.8574C30.4414 25.4356 29.287 24.2822 27.8652 24.2822C26.4436 24.2824 25.29 25.4358 25.29 26.8574V34.0703C25.2899 34.6367 24.8262 35.1006 24.2598 35.1006H21.1689C20.6025 35.1006 20.1388 34.6367 20.1387 34.0703V20.6748C20.1387 20.1083 20.6024 19.6445 21.1689 19.6445H24.2598C24.8263 19.6445 25.29 20.1083 25.29 20.6748V21.334C26.3205 19.9993 28.0267 19.1299 29.9268 19.1299ZM17.8457 19.6445C17.9729 19.6447 18.076 19.7478 18.0762 19.875V34.8682C18.0762 34.9955 17.973 35.0994 17.8457 35.0996H13.1553C13.0278 35.0996 12.9238 34.9956 12.9238 34.8682V19.875C12.924 19.7477 13.0279 19.6445 13.1553 19.6445H17.8457ZM15.501 11.4023C17.2079 11.4025 18.5916 12.7862 18.5918 14.4932C18.5918 16.2003 17.208 17.5848 15.501 17.585C13.7938 17.585 12.4092 16.2004 12.4092 14.4932C12.4094 12.7861 13.7939 11.4023 15.501 11.4023Z" fill="white"/>
</svg>
