<svg width="48" height="48" viewBox="0 0 48 48" fill="none" xmlns="http://www.w3.org/2000/svg">
<circle cx="24" cy="24" r="24" fill="#041E54"/>
<path d="M21.6348 18.8701C22.7729 18.8701 23.8508 19.1146 24.8662 19.6006C25.5347 19.916 26.1435 20.3305 26.6982 20.8398L26.9336 21.0645C27.5481 21.679 28.0382 22.3709 28.3984 23.1318L28.5195 23.3867L28.3203 23.5859C27.7818 24.1244 27.1224 24.3945 26.3662 24.3945C26.0959 24.3945 25.8301 24.3527 25.5645 24.2764L25.415 24.2334L25.334 24.1016C24.9752 23.5179 24.4822 23.0264 23.8965 22.6631L23.6328 22.5146C23.0132 22.1915 22.3487 22.0293 21.6387 22.0293C21.0756 22.0294 20.5289 22.1364 19.999 22.3516C19.4726 22.5653 18.9986 22.8813 18.5811 23.2988L15.0342 26.8447C14.6168 27.2621 14.3017 27.7364 14.0879 28.2627L14.0869 28.2637C13.8748 28.7847 13.7656 29.3403 13.7656 29.9033C13.7656 30.3961 13.8471 30.8764 14.0117 31.3438L14.0879 31.5439L14.1729 31.7402C14.3517 32.126 14.5864 32.4792 14.8809 32.8018L15.0332 32.9609L15.0342 32.9619C15.4544 33.3822 15.9257 33.6943 16.4521 33.9082C16.9731 34.1203 17.5322 34.2305 18.0957 34.2305C18.6591 34.2305 19.2063 34.1235 19.7363 33.9082C20.2626 33.6944 20.7369 33.3793 21.1543 32.9619L23.8008 30.3154L24.0244 30.376C24.7778 30.5804 25.5571 30.6845 26.3662 30.6846C26.4915 30.6846 26.6749 30.6786 26.9189 30.667L27.8877 30.6211L27.2334 31.3369C27.1404 31.4387 27.0429 31.5458 26.9414 31.6504L26.9365 31.6543L23.3906 35.2012C22.6711 35.9207 21.852 36.4655 20.9336 36.8379L20.9346 36.8389C20.0334 37.2074 19.0675 37.3965 18.0928 37.3965C17.2394 37.3965 16.4044 37.2541 15.5957 36.9678L15.251 36.8359C14.3303 36.4608 13.5124 35.9146 12.7959 35.2012C12.0765 34.4817 11.5296 33.6633 11.1572 32.748C10.7887 31.8469 10.5996 30.881 10.5996 29.9062C10.5996 28.9315 10.7887 27.9656 11.1572 27.0645C11.5296 26.1492 12.0755 25.3307 12.7949 24.6113L16.3418 21.0654C16.4156 20.9917 16.5278 20.8886 16.6562 20.7686L16.6631 20.7617C17.3591 20.143 18.1373 19.6746 18.9951 19.3525H18.9971C19.8524 19.0345 20.7313 18.8732 21.6348 18.8701ZM29.9102 10.5996C30.8839 10.5996 31.8486 10.7875 32.749 11.1553C33.666 11.5252 34.4855 12.0755 35.207 12.7939C35.9256 13.5125 36.4758 14.3308 36.8457 15.2471C37.2138 16.1503 37.4033 17.1134 37.4004 18.0889L37.3906 18.4541C37.3493 19.3019 37.1647 20.1279 36.8408 20.9297L36.8398 20.9307C36.4647 21.8513 35.919 22.6699 35.2051 23.3838L31.6582 26.9297C31.5796 27.011 31.4678 27.1136 31.3408 27.2295L31.3369 27.2324C30.6433 27.8517 29.8648 28.3195 29.0039 28.6416L29.0049 28.6426C28.1599 28.9613 27.2646 29.125 26.3604 29.125C25.2261 29.1249 24.1476 28.8809 23.1328 28.3955L22.8496 28.2539C22.1973 27.9101 21.603 27.4674 21.0635 26.9307C20.449 26.3161 19.9589 25.6242 19.5986 24.8633L19.4775 24.6094L19.6758 24.4102C20.2119 23.8706 20.8714 23.6007 21.6299 23.6006C21.8996 23.6006 22.1693 23.6418 22.4336 23.7188L22.582 23.7617L22.6631 23.8936C23.0223 24.4779 23.5126 24.9691 24.0977 25.332L24.3613 25.4805C24.9828 25.804 25.6448 25.9657 26.3545 25.9658C26.9178 25.9658 27.4651 25.8588 27.9951 25.6436C28.5235 25.4301 28.9951 25.1143 29.4131 24.6963L32.9609 21.1494C33.3798 20.7332 33.6921 20.2596 33.9062 19.7324C34.1184 19.2113 34.2285 18.655 34.2285 18.0918C34.2285 17.599 34.147 17.1187 33.9824 16.6514L33.9062 16.4512C33.6928 15.9228 33.3779 15.4512 32.96 15.0332C32.5397 14.613 32.0684 14.3008 31.542 14.0869C31.021 13.8747 30.4618 13.7647 29.9014 13.7646C29.4086 13.7646 28.9283 13.8461 28.4609 14.0107L28.2607 14.0869C27.7324 14.3004 27.2607 14.6152 26.8428 15.0332L24.1934 17.6797L23.9697 17.6191C23.2161 17.4147 22.4362 17.3105 21.627 17.3105C21.5017 17.3106 21.3189 17.3165 21.0752 17.3281L20.1064 17.374L20.7607 16.6582C20.8535 16.5567 20.9536 16.4478 21.0605 16.3408L24.6064 12.7939C25.3204 12.08 26.1389 11.5343 27.0596 11.1592C27.9815 10.7861 28.9304 10.5967 29.9102 10.5996Z" fill="white"/>
</svg>
